<?xml version="1.0" encoding="UTF-8"?>
<svg id="_レイヤー_2" data-name="レイヤー 2" xmlns="http://www.w3.org/2000/svg" width="339.72" height="218.25" viewBox="0 0 339.72 218.25">
  <defs>
    <style>
      .cls-1 {
        fill: #211815;
      }

      .cls-2 {
        fill: #f5f19b;
      }

      .cls-3 {
        fill: #e0a99c;
      }

      .cls-4 {
        fill: #ecbb6e;
      }

      .cls-5 {
        fill: #93c9ce;
      }

      .cls-6 {
        fill: #5c948d;
      }

      .cls-7 {
        fill: #fffba1;
      }

      .cls-8, .cls-9 {
        fill: #fff;
      }

      .cls-10 {
        fill: #d3f2c9;
      }

      .cls-11 {
        fill: #de8a4c;
      }

      .cls-12 {
        fill: #ceeaeb;
      }

      .cls-13 {
        fill: #f2d496;
      }

      .cls-9 {
        stroke: #ceeaeb;
        stroke-miterlimit: 10;
        stroke-width: 2.83px;
      }
    </style>
  </defs>
  <g id="_レイヤー_1-2" data-name="レイヤー 1">
    <g>
      <circle class="cls-12" cx="30" cy="59.77" r="30"/>
      <path class="cls-9" d="M9.95,107.66h239.38c4.68,0,8.47,3.79,8.47,8.47v68.65s9.69,9.69,9.69,9.69h-9.69s0,.5,0,.5c0,4.68-3.79,8.47-8.47,8.47H9.95c-4.68,0-8.47-3.79-8.47-8.47v-78.84c0-4.68,3.79-8.47,8.47-8.47Z"/>
      <g>
        <path d="M19.13,132.84c0-.97.54-1.95,1.74-2.77-1.96.29-3.99.54-5.83.78l-.2-1.47c.55-.01,1.27-.07,2.07-.13,1.69-.99,3.57-2.4,4.87-3.51-1.63.25-2.92.36-4.06.41l-.25-1.44c1.74-.03,3.4-.1,5.86-.46l1.14.9c-.96,1.08-3.06,2.59-5.03,3.85,2.67-.29,5.59-.67,7.26-.99l.27,1.52c-1.23-.02-2.42.1-3.39.43-1.65.55-2.95,1.72-2.95,2.89,0,1.25,1.5,1.94,3.99,2.06l-.5,1.48c-2.91-.19-4.99-1.44-4.99-3.54Z"/>
        <path d="M33.21,135.36c1.84-.72,2.59-1.23,3.33-2.01.67-.72,1.26-1.88,1.26-2.96,0-1.47-.98-2-1.91-2-.5,0-.97.08-2.21.41-1.12.3-1.69.46-2.61.72l-.44-1.47c.92-.23,1.49-.38,2.54-.63,1.39-.35,2.13-.48,2.94-.48,1.77,0,3.36.99,3.36,3.21,0,1.89-.79,3.13-1.56,4.04-.81.94-1.95,1.68-3.45,2.26l-1.26-1.09ZM32.82,124.89l.57-1.33c1.5.27,2.91.57,4.54,1.35l-.63,1.38c-1.46-.72-3-1.09-4.49-1.39Z"/>
        <path d="M48.54,134.48c0-.66.49-1.23,1.21-1.23s1.21.57,1.21,1.23-.5,1.21-1.21,1.21-1.21-.56-1.21-1.21ZM48.87,124.79h1.76l-.09,7.33h-1.56l-.11-7.33Z"/>
        <path d="M58.22,135.33c1.23-2.76,2.1-5.34,2.71-7.93-1.02.08-1.98.12-2.77.15l-.17-1.52c1.03-.03,2.14-.08,3.28-.15.15-.81.3-1.64.42-2.48l1.54.24c-.13.72-.29,1.42-.43,2.12,1.11-.12,2.21-.25,3.27-.46l.24,1.5c-1.18.19-2.54.36-3.85.48-.69,2.92-1.54,5.7-2.71,8.65l-1.53-.6ZM63.45,133.4c0-.56.21-1.23.68-1.89l1.36.44c-.39.45-.57.9-.57,1.21,0,.58.66.92,2.13.92.96,0,1.98-.11,2.79-.29l.3,1.56c-.93.18-2.13.21-2.85.21-2.74,0-3.84-.9-3.84-2.16ZM64.22,128.6c1.71-.29,3.7-.42,5.4-.35l-.2,1.49c-1.63-.09-3.45.03-4.8.27l-.4-1.41ZM66.74,124.61l.9-.54c.55.71.85,1.25,1.24,2.12l-.94.57c-.39-.87-.71-1.46-1.2-2.15ZM68.45,124.1l.88-.55c.54.67.88,1.24,1.26,2.08l-.93.57c-.39-.87-.71-1.42-1.21-2.1Z"/>
        <path d="M72.98,134.9c1.28-2.38,2.07-4.33,2.71-6.57-.92.13-1.77.25-2.43.36l-.25-1.46c.69-.06,1.96-.2,2.98-.34.24-1.04.45-2.12.65-3.25l1.53.24c-.19.93-.4,1.86-.64,2.82.42-.03.81-.06,1.12-.06,1.44,0,2.4.88,2.4,2.68,0,1.29-.12,2.91-.45,4.27-.38,1.56-1.28,1.96-2.17,1.96-.71,0-1.4-.13-2.01-.36l-.12-1.65c.7.35,1.38.48,1.83.48.58,0,.89-.32,1.11-1.35.2-.88.3-1.99.3-3.06s-.43-1.59-1.18-1.59c-.27,0-.62.03-1.16.09-.71,2.62-1.48,4.83-2.8,7.51l-1.41-.73ZM81.59,126.48l1.28-.84c1.04,1.47,1.75,3.19,2.34,5.46l-1.44.81c-.56-2.29-1.1-3.92-2.18-5.43Z"/>
        <path d="M91.26,134.82c3.18-.27,5.28-1.23,5.25-2.83-.02-.97-.84-1.61-2.13-1.58-1.58.03-3.15.96-4.4,2.34l-1.18-.57c.34-1.82.52-4.08.54-6.08l1.59.15c-.04,1.26-.2,2.85-.42,4.32,1.15-.99,2.73-1.48,3.9-1.51,2.05-.04,3.63.99,3.66,2.82v.08c0,2.38-2.04,3.72-5.87,4.2l-.94-1.33ZM90.66,124.94l.56-1.26c1.46.24,2.95.75,4.36,1.5l-.61,1.35c-1.44-.76-2.85-1.26-4.31-1.59Z"/>
        <path d="M100.62,133.48l1.3-1.12c.92.78,1.98,1.99,2.77,3.13l-1.41,1.24c-.69-1.15-1.64-2.29-2.67-3.25Z"/>
        <path d="M115.49,125.77h5.21v1.18h-5.21v-1.18ZM115.88,131.61h4.36v4.2h-3.07v.75h-1.29v-4.95ZM116.13,123.8h3.92v1.15h-3.92v-1.15ZM116.13,127.76h3.92v1.11h-3.92v-1.11ZM116.13,129.68h3.92v1.09h-3.92v-1.09ZM118.98,134.66v-1.93h-1.81v1.93h1.81ZM120.56,134.76h1.18v-6.63h1.35v6.63h1.25v-8.97h-3.27v-1.31h7.35v1.31h-2.7v3.45h2.34v1.3h-2.34v4.21h3.03v1.33h-8.19v-1.33Z"/>
        <path d="M130.98,135.41c2.43-.46,3.74-1.51,4.04-3.24h-2.17v-.52c-.57.51-1.33,1.02-2.19,1.47l-.88-1.17c1.39-.62,2.55-1.42,3.24-2.28h-2.96v-1.15h3.64c.24-.36.45-.75.71-1.28h-3.48v-1.16h2.08c-.3-.75-.62-1.33-1.04-1.86l1.33-.56c.48.65.81,1.23,1.11,1.91l-1.32.51h1.75c.31-.81.57-1.78.73-2.82l1.44.24c-.21.96-.42,1.74-.72,2.58h1.57c.57-.93.96-1.67,1.25-2.44l1.52.46c-.42.76-.72,1.27-1.23,1.98h2.7v1.16h-3.66c.24.42.54.87.86,1.28h3.67v1.15h-2.75c.72.63,1.77,1.23,3.12,1.8l-.86,1.26c-.78-.36-1.56-.84-2.23-1.35-.14,2.36-.26,3.39-.44,3.96-.27.78-.75,1.07-1.81,1.07-.45,0-1.21-.06-1.67-.11l-.24-1.44c.55.12,1.12.18,1.6.18.77,0,.86-.23,1.05-2.87h-2.29c-.47,2.46-1.92,3.87-4.61,4.46l-.88-1.21ZM139.77,130.97c-.42-.33-.95-.85-1.32-1.3h-3.81c-.33.48-.67.88-1.07,1.3h6.2ZM137.72,128.51c-.17-.29-.54-.95-.7-1.28h-1.14c-.21.5-.4.87-.63,1.28h2.47Z"/>
        <path d="M144.24,128.56c2.55-1,4.44-2.64,5.75-4.94h1.7c1.38,1.94,3.4,3.46,6.01,4.53l-.92,1.25c-.9-.41-1.77-.88-2.57-1.42v1.05h-6.42v-.84c-.84.6-1.74,1.12-2.67,1.54l-.89-1.17ZM154.61,135.17c-2.82.42-6.09.78-9.03,1l-.45-1.44c.69-.03,1.57-.08,2.07-.12.51-.9.97-1.84,1.38-2.9h-3.55v-1.29h11.91v1.29h-6.69c-.45,1.01-.93,1.94-1.42,2.81,1.92-.14,3.43-.25,4.88-.42-.38-.42-.83-.9-1.49-1.49l1.25-.69c1.26,1.1,2.47,2.37,3.48,3.66l-1.32.92c-.45-.63-.53-.72-1-1.33ZM153.9,127.76c-1.2-.84-2.28-1.83-3.06-2.87-.69,1.12-1.5,2.04-2.5,2.87h5.57Z"/>
        <path d="M161.16,131.28c-.58.63-1.05,1.09-1.81,1.72l-.71-1.32c1.44-.99,3.13-2.83,3.97-4.37h-3.52v-1.33h2.01v-2.58h1.41v2.58h1.38l.6.62c-.53,1.04-1.12,2.02-1.84,2.94.9.54,1.59,1.02,2.58,1.83l-.92,1.23c-.66-.69-1.11-1.11-1.74-1.62v5.56h-1.41v-5.26ZM163.88,134.64h3.27v-5.83h-2.64v-1.38h2.64v-3.84h1.48v3.84h2.92v1.38h-2.92v5.83h3.44v1.39h-8.19v-1.39Z"/>
        <path d="M179.79,134.58c2.75-.69,4.38-2.37,4.38-4.5s-1.47-3.52-3.6-3.66c-.11,1.69-.38,3.16-.84,4.6-.72,2.25-2,3.48-3.36,3.48s-2.52-1.39-2.52-3.31c0-3.48,2.88-6.21,6.42-6.21,3.25,0,5.49,1.98,5.49,5.08,0,2.68-1.65,4.68-4.74,5.75l-1.23-1.23ZM176.42,132.9c.77,0,1.41-.9,1.88-2.38.41-1.32.65-2.49.74-3.96-2.07.52-3.64,2.42-3.64,4.65,0,.92.49,1.7,1.03,1.7Z"/>
        <path d="M190.05,135.14c1.47-.99,2.37-1.89,2.95-3.06.41-.81.65-1.86.65-2.92,0-.32-.02-.64-.08-1.29h1.56c.04.71.04,1.02.04,1.38,0,.21-.01.44-.03.66,1.65-.81,2.65-1.89,3.27-3.1-3.17.06-7.2.15-9.61.15l-.03-1.48c3.66,0,7.44-.04,10.67-.11l.88.93c-.9,1.96-2.12,3.69-4.35,4.8l-.87-.73c-.11.81-.3,1.6-.57,2.19-.71,1.56-1.72,2.64-3.06,3.54l-1.42-.95Z"/>
        <path d="M202.65,134.75c2.62-1.75,3.96-3.87,4.5-6.6-1.4.01-2.71.03-3.81.03l-.03-1.47c1.11,0,2.52,0,4.05-.01.09-.92.12-1.88.09-2.91l1.56.02c0,1.04-.04,1.98-.13,2.86,1.58-.03,3.21-.06,4.74-.1-.04,3.09-.41,5.73-.95,7.35-.5,1.47-1.17,1.72-2.26,1.72-.69,0-1.47-.09-2.22-.22l-.2-1.61c.99.24,1.62.32,2.12.32.57,0,.96-.29,1.17-.92.36-1.09.73-3.17.79-5.14-1.11.03-2.27.06-3.39.08-.6,3.36-2.04,5.61-4.71,7.59l-1.32-.97Z"/>
        <path d="M220.89,135.09c3.82-1.27,5.79-3.88,6.16-7.44-2.25.04-5.23.09-7.2.09.04,1.14.08,2.28.12,3.42l-1.54.08-.18-4.95c1.32.02,2.83,0,4.46-.01-.01-.85-.01-1.71-.03-2.56h1.53c-.01.84-.01,1.69-.03,2.55,1.17-.02,2.38-.04,3.63-.08l.95.66c-.48,5.02-2.55,7.84-6.55,9.46l-1.3-1.21Z"/>
        <path d="M232.71,126.57l.9-1.29c1.3.67,2.17,1.21,3.51,2.28l-.96,1.32c-1.18-1.02-2.29-1.76-3.45-2.31ZM233.31,134.01c3.96-.99,7.03-3.28,9.07-7.54l1.16,1.47c-2.28,4.12-5.04,6.43-9.41,7.62l-.82-1.54Z"/>
        <path d="M18.69,150.03h1.56v3.87c1.86.79,3.97,2.01,5.56,3.27l-1,1.29c-1.44-1.2-3.13-2.28-4.56-2.97v6.92h-1.56v-12.38Z"/>
        <path d="M32.04,159.77c0-1.41,1.5-2.48,3.67-3.51-.2-.55-.63-.79-1.14-.79-.73,0-1.47.38-2.08.9-.55.46-.79.71-1.47,1.59l-1.17-.87c1.12-1.04,2.08-2.28,2.9-3.88-.96.06-1.88.11-2.69.13l-.15-1.45c1.08,0,2.26-.03,3.48-.11.27-.66.51-1.35.75-2.12l1.46.44c-.2.54-.41,1.05-.63,1.54,1.2-.12,2.4-.3,3.58-.55l.19,1.45c-1.35.21-2.94.39-4.5.54-.27.5-.56.98-.86,1.44.45-.23.93-.36,1.39-.36,1.11,0,1.91.55,2.24,1.51,1.02-.43,2.13-.87,3.27-1.33l.57,1.4c-1.42.48-2.64.9-3.63,1.29.03.45.06.85.06,1.29,0,.6,0,.97-.03,1.39h-1.5c.04-.5.09-1.16.09-1.65v-.42c-1.54.73-2.28,1.38-2.28,2.01s.62,1.06,2.22,1.06c1.15,0,2.65-.18,3.9-.43l.27,1.53c-1.12.17-2.4.32-4.2.32-2.34,0-3.72-.74-3.72-2.35Z"/>
        <path d="M45.15,155.82c-.39.71-.78,1.28-1.27,1.91l-.75-1.42c1.38-1.8,2.42-4.07,3.01-6.57l1.47.34c-.25.98-.54,1.82-1.02,2.97v9.75h-1.44v-6.97ZM50.63,153.31h-.71c-.63,1.6-1.29,2.77-2.15,3.84l-.94-1.16c1.3-1.74,2.17-3.81,2.68-6.39l1.47.3c-.2.78-.36,1.41-.6,2.1h5.76v1.31h-4.07v1.77h3.38v1.32h-3.38v1.8h3.66v1.32h-3.66v3.29h-1.45v-9.49Z"/>
        <path d="M60.87,158.21c-.54.62-1.17,1.37-1.94,2.38l-1.23-.93c1.25-1.26,2.28-2.73,2.7-3.57.15-.3.33-.74.48-1.2v-.96c-.86.19-1.89.34-2.68.42l-.24-1.4c.83-.06,1.95-.19,2.91-.42,0-1.06-.02-1.86-.03-2.65l1.59.06c-.03.88-.06,1.68-.08,2.61l.63.42c-.15.51-.36,1.06-.64,1.77v.18c1.69-1.79,3.18-3.11,4.51-3.11.96,0,1.6.58,1.6,1.68,0,.65-.1,1.31-.22,2.04-.25,1.59-.36,2.78-.36,3.38,0,.81.27,1.04.72,1.04.63,0,1.33-.42,2.07-1.63l.66,1.54c-.75,1.08-1.75,1.62-2.97,1.62s-2.01-.89-2.01-2.28c0-.95.1-2.19.38-3.93.07-.5.15-1.05.15-1.44,0-.36-.12-.51-.39-.51-.72,0-2.56,1.74-4.14,3.33,0,1.96,0,3.43.03,5.7l-1.57.06c.03-1.62.06-2.92.08-4.2Z"/>
        <path d="M73.13,157.35c0-1.33.3-3.96.84-6.81l1.53.27c-.65,2.92-.95,5.56-.95,6.67,0,.46.03.97.09,1.44.24-.76.54-1.47.87-2.19l.9.9c-.45.93-.64,1.47-.79,2.02-.22.84-.3,1.28-.28,1.95l-1.19.5c-.63-1.37-1.02-2.73-1.02-4.75ZM76.89,159.8c0-1.05.85-2.04,2.55-2.04.42,0,.87.05,1.32.12l-.04-1.17c-.05-.64-.08-1.38-.09-2.07-1.18.07-2.37.1-3.37.1l-.11-1.5c1.07.02,2.26-.01,3.46-.09,0-.84-.01-1.58.03-2.79l1.57.04c-.07,1.02-.1,1.83-.13,2.61.79-.08,1.54-.18,2.24-.32l.15,1.52c-.72.12-1.53.22-2.38.3.02.78.03,1.48.06,2.16.01.6.04,1.14.06,1.59.86.31,1.71.78,2.54,1.39l-.87,1.38c-.55-.52-1.11-.92-1.65-1.2-.12,1.46-1.09,2.19-2.71,2.19-1.5,0-2.61-.86-2.61-2.24ZM79.47,160.69c.81,0,1.35-.39,1.33-1.22v-.19c-.45-.14-.88-.21-1.25-.21-.88,0-1.26.36-1.26.81,0,.5.43.81,1.17.81ZM82.77,150.15l.97-.29c.25.72.36,1.17.53,2.04l-1.02.29c-.15-.87-.25-1.33-.48-2.04ZM84.32,149.7l.96-.28c.31.73.42,1.15.6,2.04l-.99.3c-.16-.87-.28-1.32-.57-2.06Z"/>
        <path d="M86.16,159.73l1.3-1.12c.92.78,1.98,1.99,2.77,3.13l-1.41,1.24c-.69-1.15-1.64-2.29-2.67-3.25Z"/>
        <path d="M102.71,151.73h3.33c.25-.76.44-1.47.57-2.16l1.74.27c-.23.72-.41,1.23-.71,1.89h4.84v11.07h-1.49v-.84h-6.81v.84h-1.48v-11.07ZM111,154.69v-1.71h-6.81v1.71h6.81ZM111,157.61v-1.71h-6.81v1.71h6.81ZM111,160.69v-1.86h-6.81v1.86h6.81Z"/>
        <path d="M116.36,161.57c2.55-.93,3.87-2.62,4.14-5.31h-2.29v-.85c-.5.54-1.09,1.05-1.72,1.47l-.97-1.15c1.95-1.32,3.34-3.21,4.2-5.7l1.44.51c-.65,1.74-1.41,3.12-2.5,4.41h7.11c-1.32-1.32-2.44-2.87-3.29-4.53l1.44-.54c.97,2.08,2.65,3.99,4.71,5.37l-.99,1.3c-.58-.43-.99-.76-1.41-1.17-.08,2.92-.25,5.08-.51,5.91-.25.88-.81,1.23-1.96,1.23-.58,0-1.37-.06-1.96-.15l-.29-1.53c.67.13,1.38.22,1.82.22.63,0,.87-.16.99-.69.17-.66.32-2.19.39-4.11h-2.67c-.44,3.44-1.8,5.34-4.65,6.51l-1-1.2Z"/>
        <path d="M136.41,160.83c2.75-.69,4.38-2.37,4.38-4.5s-1.47-3.52-3.6-3.66c-.11,1.69-.38,3.16-.84,4.6-.72,2.25-2,3.48-3.36,3.48s-2.52-1.39-2.52-3.31c0-3.48,2.88-6.21,6.42-6.21,3.25,0,5.49,1.98,5.49,5.08,0,2.68-1.65,4.68-4.74,5.75l-1.23-1.23ZM133.04,159.15c.77,0,1.41-.9,1.88-2.38.41-1.32.65-2.49.74-3.96-2.07.52-3.64,2.42-3.64,4.65,0,.92.49,1.7,1.03,1.7Z"/>
        <path d="M145.08,160.82c4.08-1.83,6.3-4.96,7.59-7.75-2.19.04-4.2.09-6,.09l-.03-1.47c1.9.01,4.09,0,7.08-.08l1.02.86c-.65,1.47-1.38,2.83-2.24,4.09,1.67,1.39,3,2.65,4.26,4.32l-1.21,1.08c-1.29-1.74-2.52-3.09-3.88-4.29-1.38,1.71-3.09,3.15-5.31,4.29l-1.28-1.14Z"/>
        <path d="M161.64,156.59l1.15-.97c.72.72,1.4,1.39,2.04,2.1,1.62-1.15,3.09-2.7,3.88-4-3.21.04-6.28.09-9.19.09v-1.47c2.92,0,6.1-.04,10.8-.12l.93.74c-1.47,2.49-3.29,4.32-5.44,5.87.61.73,1.23,1.5,1.84,2.34l-1.33.88c-1.47-2.07-2.76-3.57-4.68-5.45Z"/>
        <path d="M173.6,159.75c1.2-1.38,2.05-2.96,2.55-4.44l1.37.62c-.48,1.5-1.33,3.31-2.49,4.56l-1.42-.74ZM177.12,162.03l-.19-1.65c.78.18,1.48.27,1.87.27.32,0,.47-.15.47-.48,0-2-.03-3.99-.08-5.97-1.67.02-3.32.03-5.1.03l-.03-1.47c1.75.03,3.42.04,5.1.01-.03-.88-.04-1.77-.06-2.67h1.51l.04,2.66c1.59-.03,3.24-.08,5.02-.15l.04,1.47c-1.8.04-3.43.08-5.05.09.03,2.16.08,4.3.11,6.46.01.99-.51,1.54-1.67,1.54-.64,0-1.26-.04-2-.15ZM182,156.03l1.2-.85c1.09,1.32,1.98,2.68,2.8,4.39l-1.35.85c-.78-1.68-1.64-3.1-2.66-4.39Z"/>
        <path d="M192.47,157.69c0-1.67,1.05-3.23,3.02-4.56-2.88.27-4.68.42-6.81.58l-.19-1.57c3.12-.12,7.92-.41,11.43-.98l.3,1.53c-2.08.29-2.79.51-4,1.47-1.38,1.08-2.21,2.19-2.21,3.55,0,1.71,1.46,2.6,4.04,2.96l-.67,1.44c-2.99-.42-4.89-1.86-4.89-4.42ZM196.83,155.44l.87-.58c.62.63,1.02,1.27,1.51,2.14l-.9.63c-.48-.92-.93-1.58-1.49-2.19ZM198.26,154.5l.88-.58c.6.58,1.07,1.28,1.52,2.08l-.9.6c-.51-.93-.9-1.52-1.5-2.1Z"/>
        <path d="M203.27,156.15c0-.53.38-1.26,1.02-1.92l1.05.51c-.4.36-.64.67-.64.88,0,.33.43.48,1.5.48h.22c.06-.36.11-.74.17-1.14.06-.45.13-.93.2-1.43-1-.01-2.01-.07-2.9-.19l-.07-1.42c1.05.15,2.11.24,3.15.24.12-.93.24-1.8.3-2.43l1.56.21c-.11.53-.24,1.32-.38,2.17.92-.04,1.83-.15,2.74-.31l.09,1.42c-.89.15-2.04.25-3.06.29-.07.52-.13,1.02-.19,1.47-.04.38-.09.72-.12,1.04,1.06-.11,2.17-.3,3.03-.57l.33,1.41c-1.11.24-2.37.39-3.51.46-.04.55-.08.96-.08,1.21,0,1.38.62,2.16,2.07,2.15,1.54-.02,2.92-1.1,2.92-2.9,0-.93-.33-1.68-.93-2.68l1.56-.06c.66,1.1.88,2.17.88,2.94,0,2.65-1.84,4.2-4.47,4.2-2.43,0-3.54-1.21-3.54-3.33,0-.35.03-.84.09-1.46h-.36c-1.96,0-2.64-.55-2.64-1.25Z"/>
        <path d="M218.67,156.32c-.45,1.49-.94,2.62-1.6,3.75l-.69-1.61c.93-1.2,1.67-2.8,2.13-4.63h-1.8v-1.3h1.96v-2.96h1.35v2.96h1.65v1.3h-1.65v1.42c.75.66,1.36,1.31,1.93,2.03l-.78,1.35c-.42-.75-.64-1.12-1.15-1.84v6.01h-1.35v-6.48ZM224.94,158.13c-.68,1.43-1.62,2.7-2.82,3.77l-.96-1.2c1.51-1.05,2.62-2.36,3.51-4.14h-3.12v-1.28h3.39v-1.91h-1.59c-.25.71-.43,1.14-.76,1.73l-1.08-.81c.54-.92.92-2.22,1.16-3.85l1.27.21c-.06.46-.15.96-.27,1.44h1.28v-2.52h1.38v2.52h2.88v1.29h-2.88v1.91h3.54v1.28h-3.27c.86,1.5,2.16,2.79,3.62,3.67l-.87,1.35c-1.25-1.04-2.25-2.19-3.01-3.54v4.75h-1.38v-4.67Z"/>
        <path d="M231.74,161.3c1.25-2.34,2.1-4.38,2.71-6.57-.92.13-1.77.25-2.43.36l-.25-1.45c.69-.06,1.96-.2,2.98-.35.24-1.03.45-2.11.65-3.25l1.53.24c-.19.93-.42,1.86-.66,2.82.44-.03.83-.06,1.14-.06,1.44,0,2.4.88,2.4,2.69,0,1.29-.12,2.91-.45,4.27-.37,1.56-1.27,1.96-2.17,1.96-.7,0-1.39-.13-2.01-.36l-.12-1.65c.71.34,1.38.48,1.83.48.58,0,.88-.31,1.11-1.35.19-.88.3-2,.3-3.06s-.43-1.59-1.18-1.59c-.26,0-.62.03-1.14.09-.73,2.59-1.53,4.88-2.82,7.51l-1.41-.74ZM239.73,153.27l1.23-.92c1.17,1.39,1.95,3.06,2.64,5.19l-1.38.9c-.72-2.26-1.35-3.97-2.49-5.17ZM240.9,151.16l.79-.66c.63.6,1.05,1.11,1.56,2.01l-.86.67c-.51-.92-.94-1.49-1.5-2.03ZM242.36,150.32l.79-.66c.68.58,1.08,1.16,1.56,1.98l-.87.66c-.45-.84-.9-1.46-1.49-1.98Z"/>
        <path d="M14.31,187.97c1.62-.31,3.08-.79,4.26-1.38h-2.49v-6.04h9.51v6.04h-2.57c1.5.38,2.75.75,4.18,1.32l-1.11,1.2c-1.62-.77-2.99-1.29-4.46-1.7l1.07-.83h-3.98l1.07.83c-1.59.84-3.17,1.49-4.53,1.83l-.96-1.28ZM15.14,176.44h11.38v3.42h-11.38v-3.42ZM18.51,178.88v-1.43h-1.98v1.43h1.98ZM24.14,182.25v-.75h-6.62v.75h6.62ZM24.14,183.9v-.75h-6.62v.75h6.62ZM24.14,185.6v-.81h-6.62v.81h6.62ZM21.8,178.88v-1.43h-2v1.43h2ZM25.14,178.88v-1.43h-2.05v1.43h2.05Z"/>
        <path d="M29.39,187.31c3.03-3,4.93-4.81,6.94-6.7-1.93.33-4.2.51-5.52.57l-.19-1.46c1.74-.04,5.4-.32,7.51-.78l1,1.04c-1.05.88-2.55,2.19-3.6,3.12.29-.06.56-.09.79-.09.74,0,1.11.54,1.11,1.1,0,.4-.04,1.32-.04,1.59,0,.71.17,1.08,1.05,1.08.65,0,1.91-.11,2.85-.35l.18,1.59c-1.02.21-2.28.27-2.99.27-1.88,0-2.67-.76-2.67-2.22,0-.33.03-.83.03-1.05,0-.38-.2-.75-.57-.75-.45,0-.87.24-1.39.7-.6.54-1.17,1.12-3.24,3.39l-1.26-1.05ZM32.52,177.29l.58-1.3c1.5.25,2.79.51,4.41,1.2l-.72,1.3c-1.4-.62-2.9-.94-4.28-1.2Z"/>
        <path d="M46.8,186.26c0-1.05.95-1.81,2.23-1.81s2.39.72,3.12,2.01c.72-.48,1.19-1.18,1.19-2.03,0-1.05-1.07-1.9-2.79-1.9-1.1,0-2.42.36-3.42.99-.69.43-1.2.85-1.96,1.63l-1.04-1.12c1.65-1.28,4.05-3.39,6.21-5.82-1.21.21-2.73.35-3.99.41l-.27-1.44c1.72-.03,3.61-.15,5.77-.56l.85,1.05c-1.44,1.54-2.56,2.61-3.91,3.83.69-.21,1.33-.3,1.93-.3,2.52,0,4.16,1.33,4.16,3.19,0,2.4-2.4,4.05-5.24,4.05-1.54,0-2.85-.82-2.85-2.17ZM49.8,187.11c.39,0,.75-.04,1.11-.13-.46-.81-1.11-1.26-1.8-1.26-.51,0-.81.26-.81.58,0,.53.66.81,1.5.81Z"/>
        <path d="M59.25,186.12c0-1.27,1.11-2.22,3.15-2.22.36,0,.72.03,1.11.08-.02-.32-.04-.65-.06-.96-.09-1.37-.17-3.42-.17-4.41,0-.71-.01-1.5.02-2.47l1.6.08c-.09,1-.1,1.69-.12,2.65,1.23-.06,2.49-.21,3.72-.46l.17,1.5c-1.41.22-2.7.36-3.87.42.01.88.06,1.91.12,2.68.03.44.06.89.07,1.31,1.44.4,2.94,1.11,4.21,2.04l-.85,1.31c-1.19-.9-2.31-1.5-3.29-1.88v.29c0,1.57-.94,2.37-2.8,2.37s-3.01-.85-3.01-2.31ZM62.13,187.01c.84,0,1.44-.29,1.44-1.18,0-.11,0-.25-.01-.46-.41-.08-.79-.11-1.12-.11-1.09,0-1.65.38-1.65.88,0,.58.57.87,1.35.87Z"/>
        <path d="M76.59,187.86c1.84-.72,2.59-1.23,3.33-2.01.67-.72,1.26-1.88,1.26-2.96,0-1.47-.98-2-1.91-2-.5,0-.97.08-2.21.41-1.12.3-1.69.46-2.61.72l-.44-1.47c.92-.23,1.49-.38,2.54-.63,1.39-.35,2.13-.48,2.94-.48,1.77,0,3.36.99,3.36,3.21,0,1.89-.79,3.13-1.56,4.04-.81.94-1.95,1.68-3.45,2.26l-1.26-1.09ZM76.2,177.39l.57-1.33c1.5.27,2.91.57,4.54,1.35l-.63,1.38c-1.46-.72-3-1.09-4.49-1.39Z"/>
        <path d="M88.02,183.5c0-1.42.32-3.93.86-6.79l1.53.24c-.6,2.9-.92,5.42-.92,6.58,0,.46.03,1,.11,1.46.24-.77.62-1.65.9-2.19l.9.9c-.46.93-.67,1.53-.84,2.1-.2.69-.3,1.37-.24,2l-1.18.5c-.62-1.21-1.11-2.82-1.11-4.79ZM92.37,185.13c0-.64.27-1.36.99-2.17l1.42.48c-.69.6-.92,1.08-.92,1.46,0,.75.63,1.18,2.29,1.18.66,0,1.63-.09,2.59-.32l.3,1.56c-1.04.17-2.07.21-2.7.21-2.71,0-3.99-.72-3.99-2.4ZM92.54,178.23c1.68.03,4.29-.12,6-.39l.18,1.5c-1.72.27-4.32.43-6.04.39l-.14-1.5Z"/>
        <path d="M101.69,185.09c1.35-2.04,2.19-3.66,2.8-5.29-.99.09-1.93.15-2.67.17l-.19-1.42c1-.01,2.19-.08,3.38-.19.22-.77.45-1.56.66-2.43l1.53.38c-.2.66-.38,1.28-.57,1.86.89-.12,1.73-.27,2.42-.45l.27,1.42c-.78.18-1.95.36-3.18.51-.73,2.04-1.6,3.92-3.03,6.27l-1.41-.81ZM104.76,186.39c0-1.14,1.06-2.06,2.67-2.06.36,0,.75.03,1.14.09-.03-.49-.06-1.08-.06-1.36,0-.42.06-1.16.51-1.92l1.33.76c-.29.58-.33.99-.33,1.41,0,.46.03.9.04,1.42,1.06.34,2.16.88,3.15,1.47l-.72,1.31c-.78-.56-1.58-1.02-2.35-1.35v.24c0,1.39-1,2.25-2.58,2.25-1.39,0-2.8-.71-2.8-2.26ZM107.55,187.23c.69,0,1.11-.32,1.11-.95,0-.12,0-.29-.01-.48-.34-.09-.69-.14-1-.14-.79,0-1.33.29-1.33.77,0,.52.55.79,1.25.79ZM109.82,180.02l.67-1.2c1.37.53,2.46,1.14,3.48,2.13l-.82,1.19c-1.16-1.07-2.04-1.59-3.33-2.12Z"/>
        <path d="M119.1,186.26c0-1.05.95-1.81,2.23-1.81s2.39.72,3.12,2.01c.72-.48,1.19-1.18,1.19-2.03,0-1.05-1.07-1.9-2.79-1.9-1.09,0-2.42.36-3.42.99-.69.43-1.2.85-1.96,1.63l-1.04-1.12c1.65-1.28,4.05-3.39,6.21-5.82-1.21.21-2.73.35-3.99.41l-.27-1.44c1.72-.03,3.61-.15,5.77-.56l.85,1.05c-1.44,1.54-2.56,2.61-3.91,3.83.69-.21,1.33-.3,1.93-.3,2.52,0,4.16,1.33,4.16,3.19,0,2.4-2.4,4.05-5.24,4.05-1.54,0-2.85-.82-2.85-2.17ZM122.1,187.11c.39,0,.75-.04,1.11-.13-.46-.81-1.11-1.26-1.8-1.26-.51,0-.81.26-.81.58,0,.53.66.81,1.5.81Z"/>
        <path d="M136.41,187.08c2.75-.69,4.38-2.37,4.38-4.5s-1.47-3.52-3.6-3.66c-.11,1.69-.38,3.16-.84,4.6-.72,2.25-2,3.48-3.36,3.48s-2.52-1.39-2.52-3.31c0-3.48,2.88-6.21,6.42-6.21,3.25,0,5.49,1.98,5.49,5.08,0,2.68-1.65,4.68-4.74,5.75l-1.23-1.23ZM133.04,185.4c.77,0,1.41-.9,1.88-2.38.41-1.32.65-2.49.74-3.96-2.07.52-3.64,2.42-3.64,4.65,0,.92.49,1.7,1.03,1.7Z"/>
        <path d="M149.76,186.98c0-.66.49-1.23,1.21-1.23s1.21.57,1.21,1.23-.5,1.21-1.21,1.21-1.21-.56-1.21-1.21ZM150.09,177.29h1.76l-.09,7.33h-1.56l-.11-7.33Z"/>
      </g>
      <circle class="cls-10" cx="308.3" cy="188.25" r="30"/>
      <path class="cls-9" d="M329.84,1.42H90.46c-4.68,0-8.47,3.79-8.47,8.47v43.9s-9.69,9.69-9.69,9.69h9.69s0,.5,0,.5c0,4.68,3.79,8.47,8.47,8.47h239.38c4.68,0,8.47-3.79,8.47-8.47V9.89c0-4.68-3.79-8.47-8.47-8.47Z"/>
      <g>
        <path d="M95.63,27.15c3.48-1.09,6.25-2.94,7.83-4.88-1.98.04-4.44.08-6.34.08l-.03-1.47c1.37,0,2.61,0,3.87-.01v-2.43h1.53v2.42c.84-.01,1.7-.03,2.62-.06l.95.69c-.97,1.38-2.1,2.59-3.42,3.65v5.76h-1.53v-4.65c-1.27.83-2.71,1.56-4.36,2.21l-1.11-1.29ZM103.19,25.7l1.02-1.02c1.36.78,2.25,1.35,3.7,2.65l-1.11,1.22c-1.4-1.4-2.19-1.98-3.62-2.85Z"/>
        <path d="M111.66,23.61l1.18-.6c.54.88.99,1.83,1.35,2.76l-1.22.63c-.36-.96-.75-1.8-1.32-2.79ZM113.66,29.94c3.34-1.54,4.83-4,5.35-7.53l1.42.46c-1,4.39-2.43,6.33-5.56,8.08l-1.21-1.02ZM114.65,22.81l1.22-.55c.52.96.81,1.69,1.2,2.88l-1.26.57c-.38-1.21-.66-1.9-1.16-2.89Z"/>
        <path d="M128.48,18.44h1.56v3.87c1.86.79,3.97,2.01,5.56,3.27l-1,1.29c-1.44-1.2-3.13-2.28-4.56-2.97v6.92h-1.56v-12.38Z"/>
        <path d="M143.19,26.09c0-1.67,1.05-3.23,3.02-4.56-2.88.27-4.68.42-6.81.58l-.19-1.57c3.12-.12,7.92-.41,11.43-.98l.3,1.53c-2.08.29-2.79.51-4,1.47-1.38,1.08-2.21,2.19-2.21,3.55,0,1.71,1.46,2.6,4.04,2.96l-.67,1.44c-2.99-.42-4.89-1.86-4.89-4.42ZM147.56,23.84l.87-.58c.62.63,1.02,1.27,1.51,2.14l-.9.63c-.48-.92-.93-1.58-1.49-2.19ZM148.98,22.91l.88-.58c.6.58,1.07,1.28,1.52,2.08l-.9.6c-.51-.93-.9-1.52-1.5-2.1Z"/>
        <path d="M153.02,30.12c1.62-.31,3.08-.79,4.26-1.38h-2.49v-6.04h9.51v6.04h-2.57c1.5.38,2.75.75,4.18,1.32l-1.11,1.2c-1.62-.77-2.99-1.29-4.46-1.7l1.07-.83h-3.98l1.07.83c-1.59.84-3.17,1.49-4.53,1.83l-.96-1.28ZM153.84,18.59h11.38v3.42h-11.38v-3.42ZM157.22,21.04v-1.43h-1.98v1.43h1.98ZM162.84,24.41v-.75h-6.62v.75h6.62ZM162.84,26.06v-.75h-6.62v.75h6.62ZM162.84,27.76v-.81h-6.62v.81h6.62ZM160.5,21.04v-1.43h-2v1.43h2ZM163.85,21.04v-1.43h-2.05v1.43h2.05Z"/>
        <path d="M171.92,30.02c1.84-.72,2.59-1.23,3.33-2.01.67-.72,1.26-1.88,1.26-2.96,0-1.47-.98-2-1.91-2-.5,0-.97.08-2.21.41-1.12.3-1.69.46-2.61.72l-.44-1.47c.92-.23,1.49-.38,2.54-.63,1.39-.35,2.13-.48,2.94-.48,1.77,0,3.36.99,3.36,3.21,0,1.89-.79,3.13-1.56,4.04-.81.94-1.95,1.68-3.45,2.26l-1.26-1.09ZM171.53,19.55l.57-1.33c1.5.27,2.91.57,4.54,1.35l-.63,1.38c-1.46-.72-3-1.09-4.49-1.39Z"/>
        <path d="M182.4,29.79c2.04-4.32,3.56-7.62,5.27-11.5l1.54.58c-1.04,2.04-1.91,3.81-2.81,5.71.8-.69,1.65-1.02,2.33-1.02,1.04,0,1.38.83,1.38,2.64,0,1.94.24,2.58,1.02,2.58,1.05,0,2.05-1.27,2.95-3.99l1.23,1.18c-1.04,2.8-2.35,4.3-4.17,4.3s-2.52-1.23-2.52-3.57c0-1.28-.12-1.61-.58-1.61-.53,0-1.37.67-2.01,1.47-.76.93-1.15,1.65-2.2,4l-1.43-.79Z"/>
        <path d="M196.92,29.99c1.23-2.76,2.1-5.34,2.71-7.93-1.02.08-1.98.12-2.77.15l-.17-1.52c1.03-.03,2.14-.08,3.28-.15.15-.81.3-1.64.42-2.48l1.54.24c-.13.72-.29,1.42-.43,2.12,1.11-.12,2.21-.25,3.27-.46l.24,1.5c-1.18.19-2.54.36-3.85.48-.69,2.92-1.54,5.7-2.71,8.65l-1.53-.6ZM202.16,28.06c0-.56.21-1.23.68-1.89l1.36.44c-.39.45-.57.9-.57,1.21,0,.58.66.92,2.13.92.96,0,1.98-.11,2.79-.29l.3,1.56c-.93.18-2.13.21-2.85.21-2.74,0-3.84-.9-3.84-2.16ZM202.92,23.26c1.71-.29,3.7-.42,5.4-.35l-.2,1.49c-1.63-.09-3.45.03-4.8.27l-.4-1.41ZM205.44,19.27l.9-.54c.55.71.85,1.25,1.24,2.12l-.94.57c-.39-.87-.71-1.45-1.2-2.14ZM207.15,18.76l.88-.55c.54.67.88,1.24,1.26,2.08l-.93.57c-.39-.87-.71-1.42-1.21-2.1Z"/>
        <path d="M213.6,26.85c-.48.6-1,1.3-1.62,2.21l-1.27-.95c.96-1.09,1.92-2.31,2.49-3.48.12-.24.27-.65.42-1.11v-1.21c-.72.18-1.66.33-2.34.39l-.24-1.38c.76-.06,1.71-.17,2.56-.38,0-1.08-.01-1.88-.03-2.65l1.59.06c-.03.84-.04,1.62-.06,2.5l.72.34c-.13.42-.43,1.17-.75,1.91v.15c1.54-1.65,3-2.91,4.8-2.91s2.73,1.5,2.73,4.46c0,.75-.08,1.5-.2,2.16.66.36,1.29.81,1.88,1.37l-.96,1.28c-.39-.46-.84-.87-1.3-1.19-.09.25-.2.46-.3.63-.5.79-1.43,1.2-2.5,1.2-1.59,0-2.58-.94-2.58-2.14s1.04-2.04,2.56-2.04c.57,0,1.17.1,1.79.29.06-.53.09-1.07.09-1.58,0-1.77-.41-2.96-1.35-2.96-1.26,0-2.94,1.47-4.65,3.33,0,1.92,0,3.38.03,5.61l-1.58.06c.03-1.51.04-2.76.08-3.96ZM219.21,28.82c.6,0,1.08-.29,1.33-.83.04-.09.09-.19.12-.3-.49-.2-1.02-.3-1.42-.3-.64,0-1.09.27-1.09.67,0,.45.36.75,1.07.75Z"/>
        <path d="M230.63,29.14c0-.66.49-1.23,1.21-1.23s1.21.57,1.21,1.23-.5,1.21-1.21,1.21-1.21-.56-1.21-1.21ZM230.96,19.44h1.76l-.09,7.33h-1.56l-.11-7.33Z"/>
        <path d="M241.5,27.48c0-1.32,1-2.5,2.88-3.69-.62-1.41-1.31-3.21-1.71-4.98l1.57-.38c.27,1.41.89,3.25,1.44,4.62,1.11-.58,2.43-1.18,3.88-1.79-.39-.9-.78-1.51-1.25-2.16l.88-.53c.54.66.92,1.3,1.33,2.17l-.82.48.67,1.44c-3.95,1.35-7.35,3.1-7.35,4.63,0,.95.79,1.51,2.98,1.51,1.32,0,2.92-.1,4.67-.43l.27,1.6c-1.78.3-3.61.36-4.78.36-3.46,0-4.68-1.16-4.68-2.88ZM249.96,18.47l.9-.53c.58.71.96,1.32,1.37,2.16l-.96.53c-.42-.92-.78-1.53-1.31-2.16Z"/>
        <path d="M258.68,30.02c1.84-.72,2.59-1.23,3.33-2.01.67-.72,1.26-1.88,1.26-2.96,0-1.47-.98-2-1.91-2-.5,0-.97.08-2.21.41-1.12.3-1.69.46-2.61.72l-.44-1.47c.92-.23,1.49-.38,2.54-.63,1.39-.35,2.13-.48,2.94-.48,1.77,0,3.36.99,3.36,3.21,0,1.89-.79,3.13-1.56,4.04-.81.94-1.95,1.68-3.45,2.26l-1.26-1.09ZM258.29,19.55l.57-1.33c1.5.27,2.91.57,4.54,1.35l-.63,1.38c-1.46-.72-3-1.09-4.49-1.39Z"/>
        <path d="M271.31,22.58c0-1.29.17-2.5.5-4.14l1.5.36c-.36,1.44-.6,2.98-.6,4.08,0,.3,0,.58.02.84.3-.75.67-1.53.97-2.12l.76,1.04c-.46.76-.78,1.5-.96,2.02-.27.81-.3,1.33-.27,2.07l-1.2.41c-.55-1.58-.72-3.08-.72-4.56ZM273.56,30.06c2.73-1.65,3.96-3.45,3.96-6.75,0-1.18-.12-2.92-.33-4.63l1.59-.2c.18,1.82.27,3.36.27,4.67,0,3.95-1.15,5.94-4,7.83l-1.48-.92Z"/>
        <path d="M287.79,26.09c0-1.67,1.05-3.23,3.02-4.56-2.88.27-4.68.42-6.81.58l-.19-1.57c3.12-.12,7.92-.41,11.43-.98l.3,1.53c-2.08.29-2.79.51-4,1.47-1.38,1.08-2.21,2.19-2.21,3.55,0,1.71,1.46,2.6,4.04,2.96l-.67,1.44c-2.99-.42-4.89-1.86-4.89-4.42ZM292.16,23.84l.87-.58c.62.63,1.02,1.27,1.51,2.14l-.9.63c-.48-.92-.93-1.58-1.49-2.19ZM293.58,22.91l.88-.58c.6.58,1.07,1.28,1.52,2.08l-.9.6c-.51-.93-.9-1.52-1.5-2.1Z"/>
        <path d="M299.54,24.73c-.45,1.48-.94,2.62-1.6,3.75l-.69-1.61c.93-1.2,1.67-2.8,2.13-4.63h-1.8v-1.3h1.96v-2.96h1.35v2.96h1.65v1.3h-1.65v1.42c.75.66,1.36,1.31,1.93,2.03l-.78,1.35c-.42-.75-.64-1.12-1.15-1.84v6.01h-1.35v-6.48ZM305.81,26.54c-.68,1.43-1.62,2.7-2.82,3.77l-.96-1.2c1.51-1.05,2.62-2.36,3.51-4.14h-3.12v-1.28h3.39v-1.91h-1.59c-.25.71-.43,1.14-.76,1.73l-1.08-.81c.54-.92.92-2.22,1.16-3.85l1.27.21c-.06.46-.15.96-.27,1.44h1.28v-2.52h1.38v2.52h2.88v1.29h-2.88v1.91h3.54v1.28h-3.27c.86,1.5,2.16,2.79,3.62,3.67l-.87,1.35c-1.25-1.04-2.25-2.19-3.01-3.54v4.75h-1.38v-4.67Z"/>
        <path d="M311.99,30.1c.98-1.59,1.26-3.12,1.26-6.81v-4.68h10.79v3.23h-9.41v.97h10.11v1.08h-2.91c1.02.72,1.89,1.44,2.66,2.23l-1.22.81-.76-.83c-.62.09-1.48.17-2.26.21v1.17h3.82v1.11h-3.82v1.14h4.83v1.17h-10.7v-1.17h4.41v-1.14h-3.63v-1.11h3.63v-1.08c-.93.06-1.79.09-3.46.13l-.36-1.2c1.14,0,1.26,0,1.61-.02.3-.43.6-.93.84-1.44h-2.78c-.03,3.82-.34,5.4-1.48,7.29l-1.16-1.08ZM322.65,20.77v-1.08h-8.03v1.08h8.03ZM321.54,25.2c-.29-.25-.67-.58-1.02-.82l.97-.5h-2.55c-.38.64-.57.94-.92,1.44,1.7-.04,2.55-.06,3.51-.12Z"/>
        <path d="M96.45,47.89c1.74-.06,3.36-.17,4.9-.33-.36-.83-.66-1.71-.91-2.67l1.54-.34c.16.92.48,1.89.88,2.82,1.33-.18,2.62-.43,3.85-.75l.33,1.47c-1.05.25-2.24.48-3.51.67.81,1.5,1.83,2.8,2.77,3.52l-.93,1.21c-.5-.4-.96-.66-1.68-.88-.79-.25-1.47-.34-2.25-.34-1.7,0-2.55.76-2.55,1.56,0,1.11,1.5,1.56,3.71,1.56.84,0,1.74-.06,2.41-.15l.15,1.46c-.67.09-1.83.15-2.64.15-3.21,0-5.16-.96-5.16-2.95,0-1.62,1.65-2.91,4.08-2.91.71,0,1.46.13,2.13.34-.58-.73-1.11-1.51-1.56-2.37-1.73.21-3.57.36-5.42.44l-.17-1.5Z"/>
        <path d="M110.1,56.04c2.04-4.32,3.55-7.62,5.26-11.5l1.54.58c-1.04,2.04-1.91,3.81-2.81,5.71.79-.69,1.65-1.02,2.33-1.02,1.04,0,1.38.83,1.38,2.64,0,1.94.24,2.58,1.02,2.58,1.05,0,2.05-1.27,2.95-3.99l1.23,1.18c-1.04,2.8-2.36,4.3-4.17,4.3s-2.52-1.23-2.52-3.57c0-1.28-.12-1.61-.58-1.61-.53,0-1.37.67-2.01,1.47-.76.93-1.15,1.65-2.2,4l-1.42-.79Z"/>
        <path d="M127.37,54.43c0-1.41,1.5-2.48,3.67-3.51-.2-.55-.63-.79-1.14-.79-.73,0-1.47.38-2.08.9-.55.46-.79.71-1.47,1.59l-1.17-.87c1.12-1.04,2.08-2.28,2.9-3.88-.96.06-1.88.11-2.69.13l-.15-1.45c1.08,0,2.26-.03,3.48-.11.27-.66.51-1.35.75-2.12l1.46.44c-.2.54-.41,1.05-.63,1.54,1.2-.12,2.4-.3,3.58-.56l.19,1.46c-1.35.21-2.94.39-4.5.54-.27.5-.56.98-.86,1.44.45-.23.93-.36,1.39-.36,1.11,0,1.91.55,2.24,1.51,1.02-.43,2.13-.87,3.27-1.33l.57,1.4c-1.42.48-2.64.9-3.63,1.29.03.45.06.85.06,1.29,0,.6,0,.97-.03,1.39h-1.5c.04-.5.09-1.16.09-1.65v-.42c-1.54.73-2.28,1.38-2.28,2.01s.62,1.06,2.22,1.06c1.15,0,2.65-.18,3.9-.43l.27,1.53c-1.12.17-2.4.32-4.2.32-2.34,0-3.72-.74-3.72-2.35Z"/>
        <path d="M138.69,56.19c2.97-.39,3.97-1.25,4.05-3.46h-2.21v-7.93h9.09v7.93h-2.39v2.52c0,.3.05.42.2.5.13.08.53.12.93.12.32,0,.56-.01.83-.06.65-.11.69-.24.76-2.15l1.43.42c-.11,2.46-.33,2.92-1.49,3.06-.57.07-.85.09-1.49.09-2.14,0-2.64-.24-2.64-1.25v-3.25h-1.56c-.15,3-1.32,4.17-4.72,4.79l-.79-1.32ZM148.16,47.07v-1.12h-6.15v1.12h6.15ZM148.16,49.28v-1.12h-6.15v1.12h6.15ZM148.16,51.57v-1.21h-6.15v1.21h6.15Z"/>
        <path d="M153.77,56.24c1.23-2.76,2.1-5.34,2.71-7.93-1.02.08-1.98.12-2.77.15l-.17-1.52c1.04-.03,2.14-.08,3.29-.15.15-.81.3-1.64.42-2.48l1.54.24c-.14.72-.29,1.42-.44,2.12,1.11-.12,2.21-.25,3.27-.46l.24,1.5c-1.18.19-2.53.36-3.85.48-.69,2.92-1.54,5.7-2.71,8.65l-1.53-.6ZM159,54.31c0-.56.21-1.23.67-1.89l1.37.44c-.39.45-.57.9-.57,1.21,0,.58.66.92,2.13.92.96,0,1.98-.11,2.79-.29l.3,1.56c-.93.18-2.13.21-2.85.21-2.75,0-3.84-.9-3.84-2.16ZM159.77,49.51c1.71-.29,3.71-.42,5.4-.35l-.19,1.49c-1.63-.09-3.45.03-4.8.27l-.41-1.41Z"/>
        <path d="M169.44,53.49c0-.96.5-1.78,1.31-2.58l1.27.74c-.76.58-1.05,1.25-1.05,1.77,0,.98,1.02,1.44,3.39,1.44,1.61,0,3.41-.21,4.75-.55l.38,1.59c-1.65.36-3.12.5-4.9.5-3.39,0-5.15-.98-5.15-2.9ZM172.91,48.86c.53-.43.99-.79,1.54-1.17-1.57.08-3.21.11-4.23.08l-.09-1.51c2.64.09,5.54.03,7.71-.23l.3,1.49c-.6.04-1.04.09-1.53.29-.9.36-1.48.84-2.38,1.65l-1.32-.58Z"/>
        <path d="M183.81,53.66c0-1.32,1-2.5,2.88-3.69-.61-1.41-1.3-3.21-1.71-4.98l1.58-.38c.27,1.41.88,3.25,1.44,4.62,1.14-.6,2.5-1.21,4.02-1.84l.69,1.47c-3.94,1.35-7.35,3.11-7.35,4.63,0,.95.79,1.52,2.99,1.52,1.32,0,2.92-.11,4.67-.44l.27,1.61c-1.79.3-3.62.36-4.79.36-3.46,0-4.68-1.15-4.68-2.88Z"/>
        <path d="M197.01,53.49c1.35-2.04,2.19-3.66,2.8-5.29-.99.09-1.93.15-2.67.17l-.19-1.42c1-.01,2.19-.08,3.38-.19.22-.77.45-1.56.66-2.43l1.53.38c-.2.66-.38,1.28-.57,1.86.89-.12,1.73-.27,2.42-.45l.27,1.42c-.78.18-1.95.36-3.18.51-.73,2.04-1.6,3.92-3.03,6.27l-1.41-.81ZM200.09,54.8c0-1.14,1.06-2.06,2.67-2.06.36,0,.75.03,1.14.09-.03-.49-.06-1.08-.06-1.36,0-.42.06-1.16.51-1.92l1.33.76c-.29.58-.33.99-.33,1.41,0,.46.03.9.04,1.42,1.07.34,2.16.88,3.15,1.47l-.72,1.31c-.78-.56-1.58-1.02-2.35-1.35v.24c0,1.39-1,2.25-2.58,2.25-1.39,0-2.8-.71-2.8-2.26ZM202.88,55.64c.69,0,1.11-.32,1.11-.95,0-.12,0-.29-.01-.48-.34-.09-.69-.14-1-.14-.79,0-1.33.29-1.33.77,0,.52.55.79,1.25.79ZM205.14,48.43l.67-1.2c1.37.53,2.46,1.14,3.48,2.13l-.82,1.18c-1.16-1.06-2.04-1.59-3.33-2.11Z"/>
        <path d="M212.76,53.47c-.33-1.07-.55-2.97-.55-4.71,0-.75.03-1.82.09-2.75l1.59.33c-.09,1.02-.13,1.92-.13,2.88,0,1.63.17,2.8.43,3.67.32,1.02.76,1.63,1.2,1.63.48,0,1.11-1.04,1.51-2.94l1.32,1.11c-.63,2.37-1.7,3.51-2.8,3.51-1.21,0-2.13-1.06-2.66-2.74ZM219.62,47.81l1.14-1.02c1.8,1.65,2.32,3.67,2.71,6.52l-1.54.48c-.35-2.65-.9-4.77-2.31-5.98Z"/>
        <path d="M228.51,52.72c-.69.73-1.33,1.53-2.01,2.43l-1.26-.93c1.42-1.41,2.32-2.66,2.85-3.58.15-.27.3-.63.43-1v-1.28c-.92.24-2.07.42-2.74.46l-.3-1.39c.96-.08,2.12-.23,3.03-.42,0-.98-.01-1.73-.03-2.46l1.59.06c-.03.77-.04,1.49-.06,2.28l.88.42c-.21.57-.53,1.32-.88,2.16,1.54-1.44,2.98-2.13,4.44-2.13,2.1,0,3.69,1.53,3.69,3.82,0,2.75-1.73,4.38-4.77,5.24l-1.11-1.21c2.98-.77,4.3-2.13,4.3-3.99,0-1.35-.9-2.4-2.17-2.4s-2.85,1.04-4.41,2.46c0,2,0,3.46.03,5.76l-1.58.06c.03-1.68.06-3.03.08-4.35Z"/>
        <path d="M241.35,51.76c0-1.33.3-4.17.57-6.39l1.53.25c-.52,3.18-.66,5.08-.66,6.48,0,.48.01,1.05.1,1.53.21-.57.54-1.22.83-1.74l.85.87c-.45.81-.6,1.15-.78,1.67-.18.51-.32,1.15-.25,1.71l-1.19.46c-.67-1.35-1-2.82-1-4.84ZM245,48.29c1.28.03,2.58.01,3.81-.08-.06-1-.15-2.19-.25-3.48l1.6-.12c.08,1.21.15,2.38.2,3.45.79-.09,1.51-.21,2.17-.36l.18,1.5c-.69.12-1.47.22-2.29.31.02.48.03.95.03,1.37,0,3.72-.53,5.07-2.31,6.55l-1.58-.69c2.22-1.68,2.33-3.43,2.33-6.27,0-.25,0-.54-.02-.84-1.27.08-2.58.1-3.76.09l-.11-1.44Z"/>
        <path d="M254.76,56.24c1.23-2.76,2.1-5.34,2.71-7.93-1.02.08-1.98.12-2.77.15l-.17-1.52c1.03-.03,2.14-.08,3.28-.15.15-.81.3-1.64.42-2.48l1.54.24c-.13.72-.29,1.42-.43,2.12,1.11-.12,2.21-.25,3.27-.46l.24,1.5c-1.18.19-2.54.36-3.85.48-.69,2.92-1.54,5.7-2.71,8.65l-1.53-.6ZM260,54.31c0-.56.21-1.23.68-1.89l1.36.44c-.39.45-.57.9-.57,1.21,0,.58.66.92,2.13.92.96,0,1.98-.11,2.79-.29l.3,1.56c-.93.18-2.13.21-2.85.21-2.74,0-3.84-.9-3.84-2.16ZM260.76,49.51c1.71-.29,3.7-.42,5.4-.35l-.2,1.49c-1.63-.09-3.45.03-4.8.27l-.4-1.41ZM263.28,45.52l.9-.54c.55.71.85,1.25,1.24,2.12l-.94.57c-.39-.87-.71-1.45-1.2-2.14ZM264.99,45.01l.88-.55c.54.67.88,1.24,1.26,2.08l-.93.57c-.39-.87-.71-1.42-1.21-2.1Z"/>
        <path d="M273.93,55.52c-.79.6-1.61.96-2.42.96-1.32,0-2.1-.96-2.1-2.36,0-1.29.66-2.55,1.74-3.51.53-.48,1.14-.87,1.79-1.14.01-.5.04-1.11.11-1.77-1.14.06-2.18.09-2.92.09l-.08-1.37c.81.03,1.9,0,3.12-.06.06-.69.15-1.38.24-1.98l1.53.21c-.12.53-.23,1.09-.32,1.68,1.4-.12,2.87-.28,4.14-.52l.11,1.38c-1.35.21-2.92.36-4.42.48-.06.53-.11,1.04-.13,1.47.71-.15,1.48-.23,2.31-.21.08-.35.11-.63.15-.98l1.41.21c-.04.32-.1.62-.18.92,1.83.42,3.11,1.73,3.11,3.42,0,1.91-.96,3.67-4.19,4.7l-1.11-1.11c2.85-.84,3.76-2.13,3.76-3.55,0-1.08-.76-1.89-1.92-2.24-.57,1.58-1.53,3.21-2.55,4.32.13.27.27.54.43.79l-1.18,1.02c-.15-.27-.29-.55-.42-.85ZM271.65,55.06c.54,0,1.19-.3,1.82-.87-.27-.9-.47-2.08-.53-3.3-.33.19-.69.48-1.04.83-.54.54-1.04,1.35-1.04,2.23,0,.75.33,1.11.78,1.11ZM274.61,53.1c.66-.83,1.29-1.93,1.7-3.03-.74,0-1.41.08-2.01.25.02.95.09,1.91.32,2.78Z"/>
        <path d="M282.71,54.38l1.3-1.12c.92.78,1.98,1.99,2.77,3.13l-1.41,1.24c-.69-1.15-1.64-2.29-2.67-3.25Z"/>
        <path d="M289.67,54.38l1.3-1.12c.92.78,1.98,1.99,2.77,3.13l-1.41,1.24c-.69-1.15-1.64-2.29-2.67-3.25Z"/>
      </g>
      <g>
        <path class="cls-8" d="M38.64,49.84c5.99-4.82,10.66-4.4,11.63-2.77.89,1.5-.2,9.39-9.12,4.98"/>
        <path class="cls-5" d="M42.88,52.42c2.15-3.7,6.52-2.97,7.65-2.44-1.95,3.62-3.96,4.96-7.65,2.44Z"/>
        <path class="cls-1" d="M45.87,53.99c-1.31,0-2.95-.38-4.99-1.39-.3-.15-.43-.52-.28-.82.15-.3.52-.42.82-.28,3.32,1.64,5.84,1.68,7.3.12,1.3-1.4,1.35-3.69,1.02-4.24-.21-.35-.72-.62-1.4-.75-.91-.17-4.28-.39-9.33,3.68-.26.21-.65.17-.86-.09-.21-.26-.17-.65.09-.86,3.68-2.96,7.54-4.43,10.31-3.93,1.04.19,1.83.66,2.23,1.32.64,1.09.43,3.95-1.18,5.69-.75.81-1.93,1.54-3.74,1.54Z"/>
        <path class="cls-8" d="M44.12,64.07c1.64-16.83-17.12-22.81-25.65-13.47-2.98,3.26-5.19,9.03-4.06,15.78-3.29,3.25-2.73,7.92,2.42,10.47,3.1,1.53,6.2,2.2,13.34,2.2,6.63,0,14.3-2.8,16.45-6.94,1.2-2.31.78-5.73-2.5-8.03Z"/>
        <path class="cls-2" d="M33.9,46.43c-.6-4.19-4.15-6.53-4.34-.47"/>
        <path class="cls-2" d="M22.21,47.5c-.51-4.21,2.31-7.38,4.07-1.58"/>
        <path class="cls-8" d="M17.75,50.56c-6.66-3.83-11.22-2.69-11.92-.92-.65,1.62,2.36,9.82,10.47,4.08"/>
        <path class="cls-5" d="M14.47,54.37c-2.15-3.7-7.04-2.78-8.16-2.25,1.95,3.62,4.48,4.77,8.16,2.25Z"/>
        <path class="cls-5" d="M27.31,45.95c1.23,7.47-2.33,14.46-12.54,14.46,0-11.43,12.54-14.46,12.54-14.46Z"/>
        <path class="cls-5" d="M29.55,45.96c0,8.41,6.81,12.73,13.85,13.26,0-11.43-13.85-13.26-13.85-13.26Z"/>
        <path class="cls-5" d="M13.32,72.84c13.82-6.39,25.47-3.61,33.3-.74-3.13,7.58-29.27,10.16-33.3.74Z"/>
        <path class="cls-1" d="M30.17,79.65c-7.6,0-10.65-.79-13.61-2.26-2.69-1.33-4.37-3.31-4.74-5.59-.32-1.98.37-3.97,1.94-5.63-1.1-7.14,1.47-12.92,4.26-15.98,4.25-4.65,11.26-5.93,17.43-3.18,3.01,1.34,5.47,3.51,7.11,6.28,1.79,3.02,2.53,6.55,2.2,10.5,3.38,2.57,3.64,6.23,2.4,8.6-2.36,4.55-10.5,7.26-17,7.26ZM28.79,46.79c-3.76,0-7.35,1.46-9.87,4.22-2.64,2.89-5.06,8.42-3.91,15.27.03.2-.03.39-.17.53-1.44,1.42-2.08,3.13-1.81,4.8.3,1.88,1.75,3.55,4.07,4.69,2.8,1.38,5.72,2.13,13.07,2.13,6.88,0,14.02-2.96,15.91-6.61,1.03-1.99.75-5.1-2.31-7.25-.18-.13-.28-.34-.26-.56.71-7.25-2.5-13.19-8.57-15.9-2.01-.89-4.11-1.33-6.16-1.33Z"/>
        <path class="cls-1" d="M11.09,56.35c-1.46,0-2.58-.54-3.4-1.18-2.09-1.64-2.9-4.58-2.44-5.76.29-.72.99-1.31,1.99-1.65,2.66-.93,6.7-.08,10.8,2.27.29.17.39.54.23.83-.17.29-.54.39-.83.23-5.62-3.23-8.91-2.49-9.79-2.18-.65.23-1.11.57-1.26.95-.21.53.31,2.97,2.06,4.35,1.89,1.49,4.48,1.14,7.5-.99.27-.19.65-.13.85.15.19.27.13.66-.15.85-2.23,1.58-4.07,2.14-5.56,2.14Z"/>
        <path class="cls-1" d="M33.89,47.04c-.3,0-.56-.22-.6-.52-.32-2.23-1.49-3.66-2.13-3.63-.31.02-.93.69-1,3.09-.01.34-.3.6-.63.59-.34-.01-.6-.29-.59-.63.11-3.62,1.4-4.23,2.15-4.27.03,0,.06,0,.09,0,1.46,0,2.94,2.06,3.31,4.67.05.33-.18.64-.52.69-.03,0-.06,0-.09,0Z"/>
        <path class="cls-1" d="M22.21,48.11c-.3,0-.57-.23-.6-.54-.32-2.67.61-5.08,2.07-5.39.74-.15,2.14.1,3.19,3.56.1.32-.08.66-.41.76-.32.1-.66-.08-.76-.41-.7-2.3-1.46-2.79-1.77-2.72-.62.13-1.38,1.81-1.11,4.05.04.33-.2.64-.53.68-.02,0-.05,0-.07,0Z"/>
        <path class="cls-1" d="M35.14,57.95c-.65-1.09-1.64-1.26-2.42-.7-.18.13-.11.42.12.44.71.07,1.33.3,1.99.61.22.1.44-.14.31-.35Z"/>
        <path class="cls-1" d="M24.17,58.15c.65-1.09,1.64-1.26,2.42-.7.18.13.11.42-.12.44-.71.07-1.33.3-1.99.61-.22.1-.44-.14-.31-.35Z"/>
        <circle class="cls-1" cx="31.02" cy="71.96" r=".57"/>
        <circle class="cls-1" cx="29.24" cy="71.96" r=".57"/>
        <path class="cls-1" d="M27.54,67.7c-.08,0-.16-.02-.24-.06l-2.97-1.77c-.22-.13-.29-.41-.16-.63.13-.22.41-.29.63-.16l2.97,1.77c.22.13.29.41.16.63-.09.15-.24.23-.4.23Z"/>
        <path class="cls-1" d="M24.7,67.89c-.14,0-.27-.06-.36-.17-.16-.2-.13-.49.07-.65l2.7-2.16c.2-.16.49-.13.65.07.16.2.13.49-.07.65l-2.7,2.16c-.09.07-.19.1-.29.1Z"/>
        <path class="cls-1" d="M35.25,67.92c-.1,0-.21-.03-.29-.11l-2.66-2.21c-.2-.16-.22-.45-.06-.65.16-.2.45-.22.65-.06l2.66,2.21c.2.16.22.45.06.65-.09.11-.22.17-.36.17Z"/>
        <path class="cls-1" d="M32.42,67.67c-.16,0-.32-.08-.4-.23-.13-.22-.05-.5.17-.63l3-1.72c.22-.13.5-.05.63.17.13.22.05.5-.17.63l-3,1.72c-.07.04-.15.06-.23.06Z"/>
        <ellipse class="cls-3" cx="29.24" cy="75.05" rx="1.19" ry="1.28" transform="translate(-48.98 94.28) rotate(-82.53)"/>
        <path class="cls-1" d="M29.26,76.67c-.08,0-.16,0-.24-.02-.94-.12-1.61-.94-1.49-1.83.12-.88.97-1.5,1.91-1.38h0c.94.12,1.61.94,1.49,1.83-.11.81-.83,1.4-1.67,1.4ZM29.21,74.3c-.41,0-.77.27-.82.64-.05.41.28.8.75.86.47.06.89-.22.94-.64.05-.41-.28-.8-.75-.86-.04,0-.08,0-.13,0Z"/>
      </g>
      <g>
        <path class="cls-1" d="M325.1,179.04c1.79.14,1.22,2.12.34,3.27-.18.24-.54.27-.77.08-1.56-1.33-1.01-3.46.43-3.34Z"/>
        <path class="cls-1" d="M325,179.82c-.31,0-.56-.25-.56-.56v-3.55l-.89-1.24c-.18-.25-.12-.61.13-.79.25-.18.61-.12.79.13l1,1.39c.07.1.11.21.11.33v3.73c0,.31-.25.56-.56.56Z"/>
        <path class="cls-7" d="M310.24,205.42c1.34-.08,2.63-.26,3.88-.53,9.79-2.16,10.15-7.15,10.02-11.31s-1.03-19.07-13.04-19.88c-12.01-.81-15.11,8.74-17.43,11.84-2.32,3.1-10.78,12.79,5.09,18.2,1.55.53,3.09.93,4.6,1.21"/>
        <polygon class="cls-6" points="322.17 170.16 316.09 169.59 318.8 175.06 325 175.72 322.17 170.16"/>
        <rect class="cls-6" x="315.51" y="173.24" width="6.62" height="2.88" transform="translate(177.79 -160.39) rotate(38.45)"/>
        <path class="cls-13" d="M290.03,191.35c5.03.33,7.93,5.64,6.07,11.34-4.9-2.67-7.64-5.38-6.07-11.34Z"/>
        <path class="cls-13" d="M323.63,193.48c-5.8-.8-10.25,4.19-9.34,10.68,6.16-1.72,9.86-3.98,9.34-10.68Z"/>
        <ellipse class="cls-1" cx="302.01" cy="193.66" rx="1.82" ry="1.68" transform="translate(63.73 461.86) rotate(-81.05)"/>
        <ellipse class="cls-1" cx="312.08" cy="194.7" rx="1.68" ry="1.82" transform="translate(-9.44 16.02) rotate(-2.9)"/>
        <path class="cls-1" d="M301.85,184.04c1.65-.67,3.13-.04,3.82,1.25.16.3-.14.56-.46.4-1.03-.52-2.05-.78-3.16-.99-.37-.07-.51-.53-.2-.66Z"/>
        <path class="cls-1" d="M314.93,186.55c-1.22-1.29-2.83-1.33-4-.45-.27.21-.11.57.26.56,1.16-.05,2.19.14,3.29.41.37.09.68-.27.45-.52Z"/>
        <path class="cls-1" d="M310.24,205.98c-.3,0-.55-.23-.56-.53-.02-.31.22-.58.53-.6,1.29-.08,2.57-.25,3.79-.52,9.84-2.17,9.68-7.33,9.58-10.74-.13-4.28-.81-7.98-2.03-11-2.08-5.2-5.61-8-10.49-8.33-9.65-.65-13.25,5.48-15.63,9.54-.48.82-.9,1.53-1.31,2.07-.11.15-.24.32-.38.51-1.66,2.17-4.75,6.2-3.58,10.07.84,2.78,3.8,5.06,8.79,6.76,1.5.51,3.02.91,4.52,1.19.31.06.51.35.45.66s-.35.51-.66.45c-1.55-.29-3.12-.71-4.67-1.23-5.35-1.82-8.55-4.35-9.5-7.5-1.34-4.42,2.11-8.92,3.77-11.08.14-.18.26-.35.38-.5.37-.49.77-1.18,1.24-1.97,2.37-4.04,6.34-10.8,16.68-10.1,5.35.36,9.2,3.4,11.46,9.03,1.26,3.14,1.97,6.98,2.11,11.39.14,4.6-.54,9.69-10.46,11.88-1.28.28-2.61.47-3.97.54-.01,0-.02,0-.03,0Z"/>
        <path class="cls-1" d="M301.08,193.02c-.06,0-.12-.02-.17-.06-.75-.59-1.13-1.2-1.42-2.25-.04-.15.05-.31.2-.35.15-.04.31.05.35.2.29,1.06.65,1.51,1.23,1.96.12.1.14.27.05.4-.06.07-.14.11-.22.11Z"/>
        <path class="cls-1" d="M300.89,193.61c-.79,0-1.64-.46-2.32-1.25-.1-.12-.09-.3.03-.4.12-.1.3-.09.4.03.62.73,1.39,1.12,2.05,1.05.15-.02.29.09.31.25.02.15-.09.29-.25.31-.07,0-.15.01-.22.01Z"/>
        <path class="cls-1" d="M313.26,194.19c-.14,0-.26-.1-.28-.24-.02-.15.09-.3.24-.32.66-.09,1.42-.66,1.85-1.39.08-.13.25-.18.39-.1.13.08.18.25.1.39-.52.88-1.43,1.54-2.26,1.66-.01,0-.03,0-.04,0Z"/>
        <path class="cls-1" d="M314.34,195.43c-.37,0-.75-.07-1.11-.24-.14-.06-.2-.23-.14-.37.06-.14.23-.2.37-.14.85.39,1.82.09,2.47-.24.14-.07.31-.01.38.13.07.14.01.31-.13.38-.5.25-1.16.48-1.85.48Z"/>
        <g>
          <path class="cls-4" d="M311.87,199.31c-.67-1.82-3.62-3.78-5.13-3.57-1.51.21-4.67,2.04-5.66,1.99s-1.67-.72-1.79,1.58,1.69,3.49,4.1,2.64c3.35,1.91,9.62.49,8.48-2.64Z"/>
          <path class="cls-4" d="M311.87,201.67c-.74,3.66-4.9,5.8-6.16,5.26-1.26-.54-2.84-1.41-1.46-4.59,2.49.53,6.87-.11,6.98-1.62s.63.95.63.95Z"/>
          <path class="cls-11" d="M305.49,202.66c-.72,1.34-.37,3.05,1.82,1.98s2.19-2.27,2.19-2.27c0,0,1.44-.72-.48,0-1.92.72-3.53.29-3.53.29Z"/>
          <path class="cls-1" d="M306.98,203.37c-1.05,0-2.18-.32-3.35-.98-2.28.65-3.54.04-4.21-.59-.84-.8-1.15-2.08-.82-3.34.33-1.27.9-1.38,1.78-1.4.64-.01,1.62-.04,3.2-.87,3.5-1.84,5.55-.78,7.54,1.37.19.2.17.51-.03.7s-.51.17-.7-.03c-1.78-1.92-3.39-2.73-6.36-1.17-1.79.94-2.9.97-3.64.98-.68.02-.69.03-.85.66-.24.9-.02,1.84.55,2.38.71.68,1.9.78,3.44.3.13-.04.28-.02.4.05,1.91,1.13,4.66,1.8,6.84-1.37.13-.19.38-.27.59-.18,0,0,.71.29,1.35.43.27.06.43.32.37.59s-.32.44-.59.37c-.42-.09-.85-.23-1.14-.34-1.22,1.62-2.71,2.44-4.39,2.44Z"/>
          <path class="cls-1" d="M306.29,207.48c-.6,0-1.17-.14-1.69-.42-.84-.45-1.38-1.1-1.59-1.91-.43-1.61.6-3.27.64-3.34.14-.23.45-.3.68-.16.23.14.3.45.16.68,0,.01-.84,1.38-.52,2.57.15.55.51.97,1.11,1.29.85.46,1.91.39,2.98-.19,1.5-.82,3.12-2.78,3.33-5.32.02-.27.26-.47.53-.45.27.02.47.26.45.53-.21,2.56-1.72,4.96-3.84,6.11-.75.41-1.51.61-2.23.61Z"/>
        </g>
        <path class="cls-1" d="M320.54,178.89c-.12,0-.25-.04-.35-.12-.24-.19-.29-.55-.09-.79l2.24-2.84c.12-.15.31-.23.5-.21l1.19.13-2.21-4.36-4.77-.45.69,1.4c.09.19.07.42-.05.59l-1.8,2.39c-.19.25-.54.3-.79.11-.25-.19-.3-.54-.11-.79l1.59-2.11-.99-1.99c-.09-.18-.08-.4.04-.57.12-.17.31-.26.52-.24l6.09.57c.19.02.36.13.45.31l2.82,5.57c.09.18.08.41-.04.58-.12.17-.32.26-.52.24l-1.91-.2-2.04,2.59c-.11.14-.28.21-.44.21Z"/>
      </g>
    </g>
  </g>
</svg>