<?xml version="1.0" encoding="UTF-8"?>
<svg id="_レイヤー_2" data-name="レイヤー 2" xmlns="http://www.w3.org/2000/svg" width="339.66" height="242.56" viewBox="0 0 339.66 242.56">
  <defs>
    <style>
      .cls-1 {
        fill: #211815;
      }

      .cls-2 {
        fill: #f5f19b;
      }

      .cls-3 {
        fill: #e0a99c;
      }

      .cls-4 {
        fill: #ecbb6e;
      }

      .cls-5 {
        fill: #93c9ce;
      }

      .cls-6 {
        fill: #5c948d;
      }

      .cls-7, .cls-8 {
        fill: #fff;
      }

      .cls-9 {
        fill: #d3f2c9;
      }

      .cls-10 {
        fill: #fffb9f;
      }

      .cls-11 {
        fill: #ceeaeb;
      }

      .cls-12 {
        fill: #f2d496;
      }

      .cls-8 {
        stroke: #ceeaeb;
        stroke-miterlimit: 10;
        stroke-width: 2.83px;
      }
    </style>
  </defs>
  <g id="_レイヤー_1-2" data-name="レイヤー 1">
    <g>
      <g>
        <circle class="cls-11" cx="30.74" cy="59.77" r="30"/>
        <path class="cls-7" d="M39.7,49.33c5.99-4.81,10.66-4.4,11.63-2.77.89,1.5-.2,9.39-9.11,4.98"/>
        <path class="cls-5" d="M43.93,51.91c2.15-3.69,6.52-2.97,7.64-2.44-1.95,3.62-3.96,4.96-7.64,2.44Z"/>
        <path class="cls-1" d="M46.93,53.48c-1.31,0-2.94-.38-4.99-1.39-.3-.15-.42-.51-.28-.82.15-.3.52-.42.82-.28,3.32,1.64,5.84,1.68,7.29.12,1.3-1.4,1.35-3.69,1.02-4.24-.21-.35-.72-.62-1.4-.75-.91-.16-4.27-.39-9.33,3.68-.26.21-.65.17-.86-.09-.21-.26-.17-.65.09-.86,3.68-2.96,7.53-4.43,10.31-3.92,1.04.19,1.83.66,2.23,1.32.64,1.09.43,3.95-1.18,5.69-.75.81-1.93,1.54-3.74,1.54Z"/>
        <path class="cls-7" d="M45.18,63.56c1.64-16.82-17.11-22.8-25.64-13.47-2.97,3.25-5.19,9.02-4.06,15.77-3.29,3.25-2.73,7.92,2.42,10.46,3.1,1.53,6.19,2.19,13.34,2.19,6.63,0,14.3-2.8,16.45-6.93,1.2-2.31.78-5.72-2.5-8.03Z"/>
        <path class="cls-2" d="M34.96,45.93c-.6-4.19-4.15-6.52-4.34-.47"/>
        <path class="cls-2" d="M23.28,46.99c-.51-4.2,2.31-7.38,4.07-1.58"/>
        <path class="cls-7" d="M18.82,50.05c-6.66-3.82-11.21-2.69-11.91-.92-.65,1.62,2.36,9.82,10.47,4.08"/>
        <ellipse class="cls-1" cx="34.44" cy="65.5" rx="1.44" ry="1.56" transform="translate(-9.77 6.16) rotate(-8.95)"/>
        <path class="cls-5" d="M15.55,53.87c-2.15-3.69-7.03-2.78-8.16-2.25,1.95,3.62,4.47,4.77,8.16,2.25Z"/>
        <path class="cls-5" d="M28.38,45.45c1.23,7.46-2.33,14.45-12.53,14.45,0-11.42,12.53-14.45,12.53-14.45Z"/>
        <path class="cls-5" d="M30.62,45.46c0,8.41,6.81,12.72,13.84,13.25,0-11.42-13.84-13.25-13.84-13.25Z"/>
        <path class="cls-5" d="M14.4,72.32c13.81-6.39,25.45-3.61,33.28-.74-3.13,7.57-29.25,10.15-33.28.74Z"/>
        <path class="cls-1" d="M31.23,79.13c-7.59,0-10.64-.79-13.61-2.26-2.68-1.33-4.37-3.31-4.74-5.59-.32-1.98.37-3.96,1.94-5.63-1.1-7.13,1.47-12.92,4.26-15.97,4.25-4.65,11.25-5.93,17.42-3.18,3.01,1.34,5.47,3.51,7.11,6.28,1.79,3.02,2.53,6.54,2.2,10.49,3.38,2.56,3.63,6.22,2.4,8.6-2.36,4.54-10.49,7.26-16.99,7.26ZM29.86,46.28c-3.76,0-7.35,1.46-9.87,4.22-2.64,2.89-5.06,8.42-3.91,15.26.03.2-.03.39-.17.53-1.44,1.42-2.08,3.13-1.81,4.79.3,1.88,1.75,3.54,4.07,4.69,2.8,1.38,5.71,2.13,13.07,2.13,6.88,0,14.01-2.96,15.91-6.6,1.03-1.98.75-5.1-2.31-7.25-.18-.13-.28-.34-.26-.56.71-7.25-2.49-13.19-8.56-15.89-2.01-.89-4.11-1.33-6.15-1.33Z"/>
        <ellipse class="cls-1" cx="34.44" cy="65.5" rx="1.44" ry="1.56" transform="translate(-9.77 6.16) rotate(-8.95)"/>
        <ellipse class="cls-1" cx="26.77" cy="65.86" rx="1.56" ry="1.44" transform="translate(-40.36 89.27) rotate(-87.1)"/>
        <path class="cls-1" d="M12.17,55.84c-1.46,0-2.58-.54-3.4-1.18-2.09-1.64-2.9-4.58-2.43-5.75.29-.72.99-1.3,1.99-1.65,2.66-.93,6.69-.08,10.79,2.27.29.17.39.54.22.83-.17.29-.54.39-.83.22-5.62-3.23-8.91-2.48-9.78-2.18-.65.23-1.11.57-1.26.95-.21.53.31,2.97,2.06,4.35,1.89,1.49,4.48,1.14,7.49-.99.27-.19.65-.13.85.15.19.27.13.65-.15.85-2.23,1.58-4.07,2.14-5.55,2.14Z"/>
        <path class="cls-1" d="M34.96,46.54c-.3,0-.56-.22-.6-.52-.32-2.23-1.48-3.66-2.12-3.62-.31.02-.93.69-1,3.09-.01.34-.3.59-.63.59-.34-.01-.6-.29-.59-.63.11-3.61,1.4-4.22,2.15-4.27.03,0,.06,0,.09,0,1.46,0,2.94,2.06,3.31,4.67.05.33-.18.64-.52.69-.03,0-.06,0-.09,0Z"/>
        <path class="cls-1" d="M23.28,47.6c-.3,0-.57-.23-.6-.54-.32-2.66.61-5.08,2.07-5.39.74-.15,2.14.1,3.19,3.56.1.32-.08.66-.41.76-.32.1-.66-.08-.76-.41-.7-2.3-1.46-2.78-1.77-2.72-.62.13-1.38,1.81-1.11,4.05.04.33-.2.64-.53.68-.02,0-.05,0-.07,0Z"/>
        <path class="cls-1" d="M35.71,57.03c-.65-1.09-1.64-1.26-2.41-.7-.18.13-.11.42.12.44.71.07,1.33.3,1.98.61.22.1.44-.14.31-.35Z"/>
        <path class="cls-1" d="M24.81,57.44c.65-1.09,1.64-1.26,2.41-.7.18.13.11.42-.12.44-.71.07-1.33.3-1.98.61-.22.1-.44-.14-.31-.35Z"/>
        <circle class="cls-1" cx="32.09" cy="71.44" r=".57"/>
        <circle class="cls-1" cx="30.3" cy="71.44" r=".57"/>
        <path class="cls-3" d="M26.69,74.56c.25-1.57,1.68-1.55,4.29-1.21s2.12,2.61.35,2.57c-1.78-.05-4.93.49-4.64-1.36Z"/>
        <path class="cls-1" d="M29.15,76.58c-1.13,0-2.16-.12-2.72-.76-.22-.25-.45-.68-.34-1.35h0c.37-2.33,2.82-2.01,4.98-1.72,1.72.23,2.42,1.24,2.35,2.14-.08.97-.98,1.69-2.1,1.65-.33,0-.71,0-1.11.02-.35.01-.7.02-1.05.02ZM28.78,73.78c-1.11,0-1.39.29-1.48.88h0c-.04.24.03.31.05.34.35.4,1.83.35,2.81.32.42-.01.83-.03,1.19-.02.53.02.82-.26.84-.52.02-.31-.37-.7-1.28-.82-.92-.12-1.61-.18-2.12-.18ZM26.69,74.56h0,0Z"/>
      </g>
      <path class="cls-8" d="M9.89,107.66h239.38c4.68,0,8.47,3.79,8.47,8.47v93.97s9.69,9.69,9.69,9.69h-9.69s0,.5,0,.5c0,4.68-3.79,8.47-8.47,8.47H9.89c-4.68,0-8.47-3.79-8.47-8.47v-104.16c0-4.68,3.79-8.47,8.47-8.47Z"/>
      <g>
        <path d="M15.21,135.51c1.42-.51,2.64-1.61,2.9-2.64-1.02.3-2.33.61-3.57.84l-.48-1.35c1.42-.22,3.12-.52,4.21-.78.06-.41.07-.81.07-1.59h-3.36v-1.26h3.36v-1.62h-3.64v-1.26h3.64v-2.19h1.47v6.04c0,.63-.02,1.02-.06,1.5.42-.11.98-.27,1.28-.36l.04,1.19c-.34.12-.9.3-1.44.43-.27,1.86-1.44,3.27-3.45,4.17l-.98-1.12ZM21.69,123.59h1.47v2.26h3.82v1.26h-3.82v1.69h3.38v1.26h-3.38v1.71h4.17v1.29h-4.17v3.34h-1.47v-12.82Z"/>
        <path d="M28.9,134h5.12v-10.14h1.6v3.75h4.83v1.43h-4.83v4.96h5.91v1.45h-12.63v-1.45Z"/>
        <path d="M42.99,132.69c.38-.13,1.12-.45,1.75-.73v-4.14h-1.6v-1.37h1.6v-2.99h1.37v2.99h1.47v1.37h-1.47v3.48c.48-.24,1.04-.55,1.42-.81l.2,1.23c-1.08.79-2.7,1.71-4.19,2.35l-.55-1.38ZM49.48,135.81c1.35-.87,2.34-2.08,3.03-3.72h-.76c-.72,1.46-1.95,2.8-3.39,3.67l-.98-.92c1.32-.74,2.46-1.77,3.04-2.76h-.78c-.63.74-1.49,1.49-2.29,2l-.86-.96c1.33-.77,2.36-1.74,3.01-2.9h-2.16v-1.12h8.95v1.12h-5.4l-.5.79h5.46c-.06,1.94-.23,3.74-.44,4.46-.19.76-.61,1.05-1.47,1.05-.45,0-.99-.04-1.5-.09l-.24-1.32c-.6.67-1.14,1.18-1.68,1.56l-1.06-.87ZM48.42,123.75h6.42v4.7h-6.42v-4.7ZM53.53,125.61v-.84h-3.81v.84h3.81ZM53.53,127.46v-.87h-3.81v.87h3.81ZM54.52,132.09h-.7c-.33,1.05-.89,2.12-1.54,2.97.4.09.85.15,1.23.15.75,0,.83-.24,1.02-3.12Z"/>
        <path d="M64.05,134.58c2.75-.69,4.38-2.37,4.38-4.5s-1.47-3.53-3.6-3.66c-.11,1.7-.38,3.17-.84,4.6-.72,2.25-2,3.48-3.36,3.48s-2.52-1.4-2.52-3.32c0-3.48,2.88-6.21,6.42-6.21,3.25,0,5.49,1.98,5.49,5.08,0,2.69-1.65,4.68-4.74,5.75l-1.23-1.23ZM60.67,132.9c.77,0,1.41-.9,1.88-2.38.41-1.32.65-2.49.74-3.96-2.07.53-3.64,2.42-3.64,4.65,0,.92.49,1.69,1.03,1.69Z"/>
        <path d="M71.88,128.55c2.55-1,4.44-2.64,5.75-4.93h1.7c1.38,1.93,3.4,3.46,6.01,4.53l-.92,1.25c-.9-.4-1.77-.88-2.57-1.42v1.05h-6.42v-.84c-.84.6-1.74,1.12-2.67,1.54l-.89-1.17ZM82.24,135.17c-2.82.42-6.09.78-9.03,1l-.45-1.44c.69-.03,1.57-.08,2.07-.12.51-.9.97-1.84,1.38-2.89h-3.55v-1.29h11.91v1.29h-6.69c-.45,1-.93,1.93-1.42,2.8,1.92-.13,3.43-.25,4.88-.42-.38-.42-.83-.9-1.49-1.48l1.25-.69c1.26,1.09,2.47,2.37,3.48,3.66l-1.32.92c-.45-.63-.53-.72-1-1.33ZM81.54,127.76c-1.2-.84-2.28-1.83-3.06-2.87-.69,1.12-1.5,2.04-2.5,2.87h5.57Z"/>
        <path d="M88.8,131.28c-.58.63-1.05,1.09-1.81,1.72l-.71-1.32c1.44-.99,3.13-2.83,3.97-4.36h-3.52v-1.33h2.01v-2.58h1.41v2.58h1.38l.6.61c-.53,1.04-1.12,2.03-1.85,2.94.9.54,1.59,1.02,2.58,1.83l-.92,1.23c-.66-.69-1.11-1.11-1.74-1.62v5.57h-1.41v-5.26ZM91.51,134.64h3.27v-5.83h-2.64v-1.38h2.64v-3.84h1.48v3.84h2.92v1.38h-2.92v5.83h3.44v1.39h-8.19v-1.39Z"/>
        <path d="M107.43,134.58c2.75-.69,4.38-2.37,4.38-4.5s-1.47-3.53-3.6-3.66c-.11,1.7-.38,3.17-.84,4.6-.72,2.25-2,3.48-3.36,3.48s-2.52-1.4-2.52-3.32c0-3.48,2.88-6.21,6.42-6.21,3.25,0,5.49,1.98,5.49,5.08,0,2.69-1.65,4.68-4.74,5.75l-1.23-1.23ZM104.05,132.9c.77,0,1.41-.9,1.88-2.38.41-1.32.65-2.49.74-3.96-2.07.53-3.64,2.42-3.64,4.65,0,.92.49,1.69,1.03,1.69Z"/>
        <path d="M117.39,130.07c-.45,1.49-.94,2.62-1.6,3.75l-.69-1.6c.93-1.2,1.67-2.8,2.13-4.63h-1.8v-1.3h1.96v-2.96h1.35v2.96h1.65v1.3h-1.65v1.42c.75.66,1.36,1.3,1.93,2.02l-.78,1.35c-.42-.75-.64-1.12-1.15-1.84v6.01h-1.35v-6.48ZM123.66,131.88c-.68,1.42-1.62,2.7-2.82,3.76l-.96-1.2c1.51-1.05,2.62-2.35,3.51-4.14h-3.12v-1.27h3.39v-1.91h-1.59c-.25.71-.43,1.14-.76,1.72l-1.08-.81c.54-.92.92-2.22,1.16-3.85l1.27.21c-.06.46-.15.96-.27,1.44h1.28v-2.52h1.38v2.52h2.88v1.29h-2.88v1.91h3.54v1.27h-3.27c.86,1.5,2.16,2.79,3.62,3.67l-.87,1.35c-1.25-1.04-2.25-2.19-3.01-3.54v4.75h-1.38v-4.67Z"/>
        <path d="M131.2,131.03c0-1.33.3-3.96.84-6.81l1.53.27c-.65,2.92-.95,5.56-.95,6.67,0,.46.03.97.09,1.44.24-.76.54-1.47.87-2.19l.9.9c-.45.93-.65,1.47-.79,2.03-.23.84-.3,1.27-.29,1.95l-1.19.5c-.63-1.36-1.02-2.73-1.02-4.75ZM134.97,133.47c0-1.05.86-2.04,2.55-2.04.42,0,.87.04,1.32.12l-.04-1.17c-.04-.64-.08-1.38-.09-2.07-1.19.08-2.37.11-3.38.11l-.11-1.5c1.07.01,2.26-.01,3.46-.09,0-.84-.01-1.58.03-2.79l1.58.04c-.08,1.02-.11,1.83-.14,2.61.8-.08,1.54-.18,2.24-.32l.15,1.51c-.72.12-1.53.23-2.39.3.02.78.03,1.48.06,2.16.01.6.04,1.14.06,1.59.86.32,1.71.78,2.54,1.4l-.87,1.38c-.55-.53-1.11-.92-1.65-1.2-.12,1.46-1.1,2.19-2.71,2.19-1.5,0-2.61-.86-2.61-2.24ZM137.55,134.36c.81,0,1.35-.39,1.33-1.21v-.2c-.45-.13-.88-.21-1.25-.21-.88,0-1.26.36-1.26.81,0,.5.43.81,1.17.81Z"/>
        <path d="M143.94,133.47l1.3-1.12c.92.78,1.98,2,2.77,3.13l-1.41,1.25c-.69-1.16-1.64-2.29-2.67-3.25Z"/>
        <path d="M160.77,130.07c-.45,1.49-.94,2.62-1.6,3.75l-.69-1.6c.93-1.2,1.67-2.8,2.13-4.63h-1.8v-1.3h1.96v-2.96h1.35v2.96h1.65v1.3h-1.65v1.42c.75.66,1.36,1.3,1.93,2.02l-.78,1.35c-.42-.75-.64-1.12-1.15-1.84v6.01h-1.35v-6.48ZM167.04,131.88c-.68,1.42-1.62,2.7-2.82,3.76l-.96-1.2c1.51-1.05,2.62-2.35,3.51-4.14h-3.12v-1.27h3.39v-1.91h-1.59c-.25.71-.43,1.14-.76,1.72l-1.08-.81c.54-.92.92-2.22,1.16-3.85l1.28.21c-.06.46-.15.96-.27,1.44h1.28v-2.52h1.38v2.52h2.88v1.29h-2.88v1.91h3.54v1.27h-3.27c.86,1.5,2.16,2.79,3.62,3.67l-.87,1.35c-1.25-1.04-2.25-2.19-3.01-3.54v4.75h-1.38v-4.67Z"/>
        <path d="M174.58,131.03c0-1.33.3-3.96.84-6.81l1.53.27c-.65,2.92-.95,5.56-.95,6.67,0,.46.03.97.09,1.44.24-.76.54-1.47.87-2.19l.9.9c-.45.93-.65,1.47-.79,2.03-.23.84-.3,1.27-.29,1.95l-1.19.5c-.63-1.36-1.02-2.73-1.02-4.75ZM178.35,133.47c0-1.05.86-2.04,2.55-2.04.42,0,.87.04,1.32.12l-.04-1.17c-.04-.64-.08-1.38-.09-2.07-1.19.08-2.37.11-3.38.11l-.11-1.5c1.07.01,2.26-.01,3.46-.09,0-.84-.01-1.58.03-2.79l1.58.04c-.08,1.02-.11,1.83-.14,2.61.79-.08,1.54-.18,2.24-.32l.15,1.51c-.72.12-1.53.23-2.39.3.02.78.03,1.48.06,2.16.01.6.04,1.14.06,1.59.86.32,1.71.78,2.54,1.4l-.87,1.38c-.55-.53-1.11-.92-1.65-1.2-.12,1.46-1.1,2.19-2.71,2.19-1.5,0-2.61-.86-2.61-2.24ZM180.93,134.36c.81,0,1.35-.39,1.33-1.21v-.2c-.45-.13-.88-.21-1.25-.21-.88,0-1.26.36-1.26.81,0,.5.43.81,1.17.81Z"/>
        <path d="M190.02,131.28c-.58.63-1.05,1.09-1.81,1.72l-.71-1.32c1.44-.99,3.13-2.83,3.97-4.36h-3.52v-1.33h2.01v-2.58h1.41v2.58h1.38l.6.61c-.53,1.04-1.12,2.03-1.84,2.94.9.54,1.59,1.02,2.58,1.83l-.92,1.23c-.66-.69-1.11-1.11-1.74-1.62v5.57h-1.41v-5.26ZM192.73,134.64h3.27v-5.83h-2.64v-1.38h2.64v-3.84h1.48v3.84h2.92v1.38h-2.92v5.83h3.44v1.39h-8.19v-1.39Z"/>
        <path d="M202.72,135.12c.65-.08,1.41-.21,2.01-.35v-3.85h-2.52v-1.17h2.52v-5.83h9.06v1.16h-7.57v.84h6.97v1.04h-6.97v.84h6.97v1.05h-6.97v.92h9.07v1.17h-5.86c.22.6.73,1.32,1.37,1.92.93-.57,1.68-1.12,2.52-1.86l1.23.89c-.99.75-1.72,1.23-2.7,1.8.92.63,2.13,1.14,3.51,1.47l-.9,1.32c-3.21-.87-5.58-2.9-6.45-5.54h-1.79v3.55c1.17-.24,2.01-.45,3.01-.76l.12,1.26c-1.84.62-4,1.17-6.07,1.56l-.56-1.41Z"/>
        <path d="M220.35,129.8c-1.11.45-2.14.87-2.89,1.18l-.69-1.47c.92-.34,1.95-.72,3.03-1.11-.48-1.17-.95-2.18-1.49-3.21l1.46-.6c.5.98.99,2.13,1.47,3.3.23-.09.44-.17.66-.24,1.83-.65,3.33-1.16,4.51-1.16,1.82,0,3.11,1.14,3.11,2.89s-1.5,2.94-3.67,2.94c-.44,0-.79-.04-1.11-.11l-.42-1.58c.39.14.9.2,1.37.2,1.39,0,2.28-.64,2.28-1.53,0-.93-.64-1.42-1.67-1.42-.75,0-2.04.38-3.84,1.08l-.69.27c.9,2.34,1.63,4.39,2.31,6.81l-1.53.48c-.59-2.31-1.38-4.59-2.19-6.73ZM221.85,125.09l.62-1.23c1.18.34,2.16.73,3.27,1.39l-.74,1.3c-1.15-.73-2.04-1.09-3.15-1.47Z"/>
        <path d="M235.85,136.44l-.29-1.35c.57.12,1.09.19,1.46.19.42,0,.6-.13.72-.54.08-.26.11-.6.11-1.01,0-.34-.03-.73-.08-1.12-1.47,1.5-3.24,2.64-5.42,3.46l-.84-1.17c2.33-.71,4.25-1.86,5.86-3.56-.09-.21-.19-.39-.28-.54-1.35,1.22-3.02,2.22-4.7,2.81l-.83-1.1c1.85-.51,3.45-1.36,4.88-2.62-.13-.16-.19-.24-.31-.34-1.19.75-2.61,1.38-3.92,1.71l-.78-1.11c1.74-.39,3.27-1.02,4.61-1.91h-2.4v-1.14h8.07v1.14h-2.2c.16.79.49,1.67.84,2.23.87-.64,1.63-1.33,2.19-1.98l1.17.96c-.72.71-1.6,1.39-2.71,2.12.75,1.08,1.89,2.14,3.09,2.82l-1.02,1.19c-2.21-1.32-4.07-4.14-4.84-7.33h-.27c-.25.22-.48.39-.81.63,1.44,1.42,2.1,2.97,2.1,4.96s-.5,2.71-1.83,2.71c-.42,0-1.02-.04-1.56-.12ZM231.64,124.94h5.22v-1.62h1.53v1.62h5.31v3.01h-1.44v-1.84h-9.18v1.84h-1.44v-3.01Z"/>
        <path d="M13.9,161.81c1.29-1.71,1.91-3.9,1.91-6.9v-1.8h-1.58v-1.31h2.14v-2.23h1.4v2.23h2.07v1.16c.63-.97,1.16-2.21,1.44-3.45l1.35.3c-.12.5-.3.98-.55,1.62h5.13v1.26h-5.7c-.46.9-1.04,1.74-1.6,2.39l-.9-1.07c.3-.31.53-.57.74-.9h-2.61v1.71h2.46c-.04,3.83-.15,5.94-.36,6.92-.15.72-.5.95-1.35.95-.45,0-.88-.03-1.23-.09l-.23-1.41c.32.08.74.12,1.05.12.38,0,.49-.13.55-.6.13-1.26.2-2.37.24-4.62h-1.17c-.15,2.92-.84,5.05-2.24,6.85l-.96-1.12ZM19.65,161.75c1.72-.68,2.8-1.86,3.13-3.41h-2.85v-1.18h2.94v-1.64h-.78c-.29.57-.66,1.14-1.02,1.53l-.97-.92c.75-.85,1.38-2.04,1.71-3.25l1.22.34c-.17.53-.23.69-.39,1.11h4.07v1.18h-2.48v1.64h3.11v1.18h-2.91c.58,1.35,1.7,2.43,3.12,3.06l-.9,1.32c-1.23-.71-2.29-1.86-2.94-3.22-.5,1.53-1.5,2.61-3.12,3.4l-.93-1.15Z"/>
        <path d="M28.26,159.72l1.3-1.12c.92.78,1.98,2,2.77,3.13l-1.41,1.25c-.69-1.16-1.64-2.29-2.67-3.25Z"/>
        <path d="M43.15,154.32h3.67v-1.61h-2.66v-1.17h2.66v-1.98h1.41v1.98h2.8v-1.98h1.41v1.98h2.76v1.17h-2.76v1.61h3.78v1.2h-13.08v-1.2ZM45.31,156.44h8.76v6.36h-1.46v-.69h-5.85v.69h-1.46v-6.36ZM52.62,158.66v-1.11h-5.85v1.11h5.85ZM52.62,160.97v-1.2h-5.85v1.2h5.85ZM51.04,154.32v-1.61h-2.8v1.61h2.8Z"/>
        <path d="M58.45,161.15c1.28-2.38,2.07-4.33,2.71-6.57-.92.13-1.77.25-2.43.36l-.25-1.45c.69-.06,1.96-.2,2.98-.35.24-1.04.45-2.11.65-3.25l1.53.24c-.19.93-.4,1.86-.64,2.82.42-.03.81-.06,1.12-.06,1.44,0,2.4.88,2.4,2.68,0,1.29-.12,2.91-.45,4.28-.38,1.56-1.28,1.96-2.17,1.96-.71,0-1.4-.13-2.01-.36l-.12-1.65c.7.34,1.38.48,1.83.48.58,0,.89-.31,1.11-1.35.2-.88.3-2,.3-3.06s-.43-1.59-1.18-1.59c-.27,0-.62.03-1.16.09-.71,2.62-1.48,4.83-2.8,7.51l-1.41-.74ZM67.06,152.73l1.28-.84c1.04,1.47,1.75,3.2,2.34,5.46l-1.44.81c-.56-2.29-1.1-3.92-2.18-5.43Z"/>
        <path d="M76.74,161.07c3.18-.27,5.28-1.23,5.25-2.83-.02-.97-.84-1.6-2.13-1.57-1.58.03-3.15.96-4.4,2.34l-1.18-.57c.34-1.81.52-4.08.54-6.07l1.59.15c-.04,1.26-.2,2.85-.42,4.32,1.15-.99,2.73-1.49,3.9-1.52,2.05-.04,3.63.99,3.66,2.82v.08c0,2.38-2.04,3.72-5.87,4.2l-.94-1.33ZM76.14,151.19l.56-1.26c1.46.24,2.95.75,4.36,1.5l-.61,1.35c-1.44-.77-2.85-1.26-4.31-1.59Z"/>
        <path d="M92.97,160.83c2.75-.69,4.38-2.37,4.38-4.5s-1.47-3.53-3.6-3.66c-.11,1.7-.38,3.17-.84,4.6-.72,2.25-2,3.48-3.36,3.48s-2.52-1.4-2.52-3.32c0-3.48,2.88-6.21,6.42-6.21,3.25,0,5.49,1.98,5.49,5.08,0,2.69-1.65,4.68-4.74,5.75l-1.23-1.23ZM89.59,159.15c.77,0,1.41-.9,1.88-2.38.41-1.32.65-2.49.74-3.96-2.07.53-3.65,2.42-3.65,4.65,0,.92.49,1.69,1.03,1.69Z"/>
        <path d="M101.07,161.66c1.8-1.12,2.76-2.82,2.91-5.14h-2.88v-1.33h2.92v-2.37h-.74c-.27.72-.66,1.4-1.09,2.01l-1.11-.88c.83-1.14,1.38-2.61,1.67-4.33l1.41.21c-.13.71-.23,1.16-.41,1.7h3.62v1.3h-1.95v2.37h2.33v1.33h-2.37c-.01.34-.06.71-.12,1,1.02.86,1.95,1.77,2.75,2.73l-.96,1.36c-.67-.99-1.35-1.81-2.13-2.64-.44,1.49-1.52,2.97-2.82,3.87l-1.02-1.19ZM108.15,151.29h5.43v10.78h-1.43v-.87h-2.61v1.02h-1.4v-10.93ZM112.15,159.86v-7.21h-2.61v7.21h2.61Z"/>
        <path d="M118.08,154.17c0-1.29.17-2.5.5-4.14l1.5.36c-.36,1.44-.6,2.99-.6,4.08,0,.3,0,.58.02.84.3-.75.67-1.53.97-2.11l.76,1.03c-.46.77-.78,1.5-.96,2.03-.27.81-.3,1.33-.27,2.07l-1.2.4c-.55-1.57-.72-3.07-.72-4.56ZM120.33,161.66c2.73-1.65,3.96-3.45,3.96-6.75,0-1.19-.12-2.92-.33-4.63l1.59-.2c.18,1.81.27,3.36.27,4.67,0,3.94-1.15,5.94-4,7.83l-1.48-.92Z"/>
        <path d="M129.64,155.01c2.68-1.16,4.65-2.88,5.8-5.14h1.71c1.29,1.91,3.33,3.51,6.09,4.77l-.91,1.25c-1.07-.54-1.91-1.02-2.73-1.59v1.2h-6.22v-.99c-.79.62-1.8,1.23-2.77,1.68l-.96-1.17ZM131.95,156.81h9v5.99h-1.5v-.78h-6v.78h-1.5v-5.99ZM139.45,160.74v-2.67h-6v2.67h6ZM139.5,154.22c-1.29-.92-2.4-1.95-3.18-3-.66,1.16-1.51,2.15-2.58,3h5.76Z"/>
        <path d="M146.29,158.81c-.33-1.06-.55-2.97-.55-4.71,0-.75.03-1.81.09-2.75l1.59.33c-.09,1.02-.13,1.92-.13,2.88,0,1.64.17,2.81.43,3.67.32,1.02.76,1.64,1.2,1.64.48,0,1.11-1.04,1.51-2.94l1.32,1.11c-.63,2.37-1.7,3.51-2.8,3.51-1.22,0-2.13-1.07-2.66-2.75ZM153.15,153.15l1.14-1.02c1.8,1.65,2.32,3.67,2.71,6.52l-1.54.48c-.35-2.66-.9-4.77-2.31-5.98Z"/>
        <path d="M159.46,158.84c1.35-2.04,2.19-3.66,2.8-5.29-.99.09-1.93.15-2.67.17l-.19-1.42c1-.02,2.19-.08,3.38-.2.22-.76.45-1.56.66-2.43l1.53.38c-.2.66-.38,1.27-.57,1.86.89-.12,1.73-.27,2.42-.45l.27,1.42c-.78.18-1.95.36-3.18.51-.73,2.04-1.6,3.92-3.03,6.27l-1.41-.81ZM162.54,160.14c0-1.14,1.06-2.05,2.67-2.05.36,0,.75.03,1.14.09-.03-.5-.06-1.08-.06-1.37,0-.42.06-1.15.51-1.92l1.33.77c-.29.58-.33.99-.33,1.41,0,.47.03.9.04,1.43,1.06.34,2.16.88,3.15,1.47l-.72,1.3c-.78-.55-1.58-1.02-2.35-1.35v.24c0,1.4-1,2.25-2.58,2.25-1.39,0-2.8-.71-2.8-2.26ZM165.33,160.98c.69,0,1.11-.31,1.11-.94,0-.12,0-.29-.01-.48-.34-.09-.69-.13-1-.13-.79,0-1.33.29-1.33.76,0,.53.55.79,1.25.79ZM167.59,153.77l.67-1.2c1.37.52,2.46,1.14,3.48,2.13l-.82,1.18c-1.16-1.07-2.04-1.59-3.33-2.12Z"/>
        <path d="M175.03,159.08c0-1.32,1-2.5,2.88-3.69-.62-1.41-1.31-3.21-1.71-4.98l1.57-.38c.27,1.41.89,3.25,1.44,4.62,1.11-.58,2.43-1.19,3.88-1.79-.39-.9-.78-1.52-1.25-2.16l.88-.53c.54.66.92,1.31,1.33,2.18l-.82.48.67,1.44c-3.95,1.35-7.35,3.1-7.35,4.63,0,.94.79,1.51,2.98,1.51,1.32,0,2.92-.11,4.67-.44l.27,1.61c-1.78.3-3.61.36-4.78.36-3.46,0-4.68-1.16-4.68-2.88ZM183.49,150.06l.9-.53c.58.71.96,1.32,1.37,2.16l-.96.52c-.42-.92-.78-1.53-1.31-2.16Z"/>
        <path d="M195.09,153.42c0-1.14.83-2.42,1.79-3.15h1.39c-.96.79-1.86,1.98-1.75,2.86.78.04,1.37.42,1.37,1.05s-.51,1.11-1.18,1.11c-.95,0-1.61-.76-1.61-1.88ZM198.4,153.42c0-1.14.83-2.42,1.79-3.15h1.4c-.96.79-1.86,1.98-1.75,2.86.78.04,1.36.42,1.36,1.05s-.51,1.11-1.18,1.11c-.95,0-1.61-.76-1.61-1.88Z"/>
        <path d="M202.39,154.8c2.55-1,4.44-2.64,5.75-4.93h1.7c1.38,1.93,3.4,3.46,6.01,4.53l-.92,1.25c-.9-.4-1.77-.88-2.57-1.42v1.05h-6.42v-.84c-.84.6-1.74,1.12-2.67,1.54l-.89-1.17ZM212.76,161.42c-2.82.42-6.09.78-9.03,1l-.45-1.44c.69-.03,1.57-.08,2.07-.12.51-.9.97-1.84,1.38-2.89h-3.55v-1.29h11.91v1.29h-6.69c-.45,1-.93,1.93-1.42,2.8,1.92-.13,3.43-.25,4.88-.42-.38-.42-.83-.9-1.49-1.48l1.25-.69c1.26,1.09,2.47,2.37,3.48,3.66l-1.32.92c-.45-.63-.53-.72-1-1.33ZM212.06,154.01c-1.2-.84-2.28-1.83-3.06-2.87-.69,1.12-1.5,2.04-2.5,2.87h5.57Z"/>
        <path d="M219.31,157.53c-.58.63-1.05,1.09-1.81,1.72l-.71-1.32c1.44-.99,3.13-2.83,3.97-4.36h-3.52v-1.33h2.01v-2.58h1.41v2.58h1.38l.6.61c-.53,1.04-1.12,2.03-1.84,2.94.9.54,1.59,1.02,2.58,1.83l-.92,1.23c-.66-.69-1.11-1.11-1.74-1.62v5.57h-1.41v-5.26ZM222.03,160.89h3.27v-5.83h-2.64v-1.38h2.64v-3.84h1.48v3.84h2.92v1.38h-2.92v5.83h3.44v1.39h-8.19v-1.39Z"/>
        <path d="M232.93,157.25c0-1.42.32-3.93.86-6.79l1.53.24c-.6,2.89-.92,5.41-.92,6.58,0,.47.03,1.01.11,1.46.24-.76.62-1.65.9-2.19l.9.9c-.46.93-.67,1.53-.84,2.1-.2.69-.3,1.36-.24,1.99l-1.18.5c-.62-1.21-1.11-2.82-1.11-4.78ZM237.28,158.88c0-.65.27-1.37.99-2.17l1.42.48c-.69.6-.92,1.08-.92,1.46,0,.75.63,1.19,2.29,1.19.66,0,1.63-.09,2.59-.32l.3,1.56c-1.04.17-2.07.21-2.7.21-2.71,0-3.99-.72-3.99-2.4ZM237.45,151.98c1.68.03,4.29-.12,6-.39l.18,1.5c-1.72.27-4.32.44-6.04.39l-.14-1.5Z"/>
        <path d="M16.12,185.25c0-1.32,1-2.5,2.88-3.69-.61-1.41-1.3-3.21-1.71-4.98l1.58-.38c.27,1.41.88,3.25,1.44,4.62,1.14-.6,2.5-1.21,4.02-1.84l.69,1.47c-3.94,1.35-7.35,3.1-7.35,4.63,0,.94.79,1.51,2.99,1.51,1.32,0,2.92-.1,4.67-.43l.27,1.6c-1.79.3-3.62.36-4.79.36-3.46,0-4.68-1.16-4.68-2.88Z"/>
        <path d="M33.75,186.77c2.99-.31,4.59-1.38,4.59-2.88,0-.95-.64-1.84-1.92-1.84-.67,0-1.5.18-2.46.38-.94.2-2.23.5-3.21.73l-.4-1.41c.96-.21,2.08-.44,3.28-.68,1.05-.21,2.05-.39,2.85-.39,2.17,0,3.42,1.37,3.42,3.13,0,2.31-1.8,3.76-5.28,4.29l-.87-1.33Z"/>
        <path d="M47.8,183.93c0-1.67,1.05-3.22,3.02-4.56-2.88.27-4.68.42-6.81.58l-.19-1.58c3.12-.12,7.92-.41,11.43-.97l.3,1.53c-2.08.29-2.79.51-4,1.47-1.38,1.08-2.21,2.19-2.21,3.55,0,1.71,1.37,2.59,4.04,2.94l-.67,1.46c-2.99-.42-4.89-1.86-4.89-4.42Z"/>
        <path d="M64.39,188.91l-.31-1.45c.72.09,1.6.15,2.21.15.42,0,.52-.1.52-.46v-2.37c-2.22,1.79-4.99,3.23-7.95,4.12l-.81-1.23c2.85-.75,5.58-1.98,7.56-3.45-2.28.38-4.82.67-7.35.85l-.39-1.35c.69-.01,1.68-.06,2.17-.1v-6.5h2.54c.17-.48.29-.93.36-1.46l1.68.21c-.15.42-.32.81-.54,1.25h4.06v4.75c.53-.58.99-1.21,1.47-2l1,.88c-.74,1.04-1.54,1.96-2.4,2.76v4.16c0,.55-.13.92-.45,1.11-.24.17-.51.21-1.25.21-.64,0-1.56-.04-2.13-.09ZM66.73,179.21v-.99h-5.31v.99h5.31ZM66.73,181.25v-1h-5.31v1h5.31ZM66.73,183.09v-.81h-5.31v1.24c1.92-.12,3.93-.28,5.31-.43Z"/>
        <path d="M71.94,187.49c.67-.39,1.44-.92,2.26-1.6v-3.08h-2.1v-1.35h3.54v4.51c.88,1.07,1.83,1.32,4.92,1.32,1.44,0,3.04-.06,4.83-.2-.25.51-.39.95-.51,1.58-1.62.06-2.33.07-3.5.07-1.38,0-2.58-.04-3.25-.12-.67-.04-1.39-.25-2-.57-.46-.24-.84-.58-1.23-1.16-.76.92-1.42,1.59-2.1,2.16l-.87-1.58ZM72.58,177.32l1.08-.92c.88.72,1.63,1.51,2.38,2.47l-1.18,1.05c-.62-.9-1.35-1.72-2.28-2.61ZM76.29,185.72c.81-1.05,1.09-2.37,1.09-5.13v-3.54c2.13-.06,4.02-.34,5.79-.85l1.04,1.33c-1.47.36-3.39.64-5.38.78v1.64h6.07v1.3h-2.21v5.44h-1.47v-5.44h-2.4c-.08,2.8-.51,4.41-1.42,5.47l-1.11-1Z"/>
        <path d="M87.16,185.09c1.35-2.04,2.19-3.66,2.8-5.29-.99.09-1.93.15-2.67.17l-.19-1.42c1-.02,2.19-.08,3.38-.2.22-.76.45-1.56.66-2.43l1.53.38c-.2.66-.38,1.27-.57,1.86.89-.12,1.73-.27,2.42-.45l.27,1.42c-.78.18-1.95.36-3.18.51-.73,2.04-1.6,3.92-3.03,6.27l-1.41-.81ZM90.24,186.39c0-1.14,1.06-2.05,2.67-2.05.36,0,.75.03,1.14.09-.03-.5-.06-1.08-.06-1.37,0-.42.06-1.15.51-1.92l1.33.77c-.29.58-.33.99-.33,1.41,0,.47.03.9.04,1.43,1.07.34,2.16.88,3.15,1.47l-.72,1.3c-.78-.55-1.58-1.02-2.35-1.35v.24c0,1.4-1,2.25-2.58,2.25-1.39,0-2.81-.71-2.81-2.26ZM93.03,187.23c.69,0,1.11-.31,1.11-.94,0-.12,0-.29-.01-.48-.34-.09-.69-.13-1-.13-.79,0-1.33.29-1.33.76,0,.53.55.79,1.25.79ZM95.29,180.02l.67-1.2c1.37.52,2.46,1.14,3.48,2.13l-.82,1.18c-1.16-1.07-2.04-1.59-3.33-2.12Z"/>
        <path d="M101.04,187.49c3.87-1.78,5.62-4.93,5.62-10.02v-1.2h1.65v1.14c0,4.29,1.88,7.48,5.76,9.76l-1.05,1.41c-2.54-1.53-4.71-4.29-5.42-6.88-.58,3.03-2.65,5.7-5.49,7.12l-1.08-1.33Z"/>
        <path d="M116.22,187.83c1.23-2.76,2.1-5.34,2.71-7.94-1.02.08-1.98.12-2.77.15l-.17-1.51c1.04-.03,2.14-.08,3.29-.15.15-.81.3-1.63.42-2.47l1.54.24c-.14.72-.29,1.42-.44,2.11,1.11-.12,2.21-.25,3.27-.46l.24,1.5c-1.18.2-2.53.36-3.85.48-.69,2.92-1.54,5.7-2.71,8.65l-1.53-.6ZM121.45,185.9c0-.55.21-1.23.67-1.89l1.37.43c-.39.45-.57.9-.57,1.21,0,.58.66.92,2.13.92.96,0,1.98-.1,2.79-.28l.3,1.56c-.93.18-2.13.21-2.85.21-2.75,0-3.84-.9-3.84-2.16ZM122.22,181.1c1.71-.29,3.71-.42,5.4-.34l-.19,1.49c-1.63-.09-3.45.03-4.8.27l-.41-1.41Z"/>
        <path d="M134.58,187.19c3.67.01,5.41-.84,5.41-2.29,0-.87-.81-1.62-2.04-1.62-1.65,0-3.41.86-4.35,2.21l-1.21-.69c.53-1.52.98-3.15,1.32-4.71-.93.04-1.8.06-2.67.06l-.13-1.53c1.06.03,2.07.03,3.12-.03.17-.87.3-1.7.39-2.45l1.58.24c-.09.62-.24,1.33-.41,2.1,1.26-.12,2.62-.31,4.25-.6l.19,1.54c-1.81.27-3.38.45-4.78.55-.27,1.08-.56,2.15-.79,2.99,1.09-.71,2.46-1.08,3.64-1.08,2.04,0,3.46,1.21,3.46,3.03,0,2.28-1.8,3.58-6.17,3.75l-.81-1.47Z"/>
        <path d="M145.75,178.67c-.78-.03-1.37-.41-1.37-1.04s.51-1.11,1.19-1.11c.94,0,1.6.76,1.6,1.86s-.83,2.42-1.79,3.17h-1.39c.96-.81,1.86-1.98,1.75-2.88ZM149.07,178.67c-.78-.03-1.36-.41-1.36-1.04s.51-1.11,1.18-1.11c.95,0,1.61.76,1.61,1.86s-.83,2.42-1.79,3.17h-1.4c.96-.81,1.86-1.98,1.75-2.88Z"/>
        <path d="M159.75,187.55c1.25-2.34,2.1-4.38,2.71-6.57-.92.14-1.77.25-2.43.36l-.25-1.46c.69-.06,1.96-.2,2.98-.34.24-1.04.45-2.12.65-3.25l1.53.24c-.19.93-.42,1.86-.66,2.82.44-.03.83-.06,1.14-.06,1.44,0,2.4.88,2.4,2.68,0,1.29-.12,2.91-.45,4.27-.37,1.56-1.27,1.97-2.17,1.97-.7,0-1.39-.14-2.01-.36l-.12-1.65c.71.35,1.38.48,1.83.48.58,0,.88-.32,1.11-1.35.19-.89.3-2,.3-3.06s-.43-1.59-1.18-1.59c-.26,0-.62.03-1.14.09-.73,2.59-1.53,4.88-2.82,7.51l-1.41-.73ZM167.74,179.52l1.23-.91c1.17,1.39,1.95,3.06,2.64,5.19l-1.38.9c-.72-2.26-1.35-3.97-2.49-5.17ZM168.91,177.41l.79-.66c.63.6,1.05,1.11,1.56,2.01l-.86.67c-.51-.92-.94-1.48-1.5-2.02ZM170.37,176.57l.79-.66c.68.58,1.08,1.16,1.56,1.98l-.87.66c-.45-.84-.9-1.46-1.49-1.98Z"/>
        <path d="M174.25,188.93l-.25-1.47c.41.09.78.13,1.23.13.3,0,.39-.09.39-.41v-3.36c-.54.19-1.11.38-1.75.51l-.38-1.4c.66-.13,1.46-.33,2.13-.54v-2.49h-1.88v-1.32h1.88v-2.77h1.36v2.77h1.47v1.32h-1.47v2.08c.53-.17.92-.33,1.2-.45v-1.11h3.29v-1.5h-2.67v-1.23h2.67v-1.89h1.38v1.89h3.12v1.23h-3.12v1.5h3.94v1.22h-2.07v1.45h1.77v1.21h-1.72v3.35c0,.99-.32,1.29-1.3,1.29-.68,0-1.44-.05-2.04-.11l-.21-1.42c.63.1,1.17.15,1.75.15.34,0,.42-.07.42-.42v-2.83h-4.98v-1.21h4.93v-1.45h-4.96l.1,1.08c-.43.21-.84.38-1.5.62v4.58c0,.82-.33,1.09-1.32,1.09-.42,0-.98-.03-1.41-.09ZM179.04,185.12l1.18-.75c.63.61,1.23,1.35,1.71,2.11l-1.21.84c-.46-.82-1.05-1.57-1.68-2.2Z"/>
        <path d="M193.18,186.77c2.99-.31,4.59-1.38,4.59-2.88,0-.95-.64-1.84-1.92-1.84-.67,0-1.5.18-2.46.38-.95.2-2.23.5-3.21.73l-.4-1.41c.96-.21,2.08-.44,3.28-.68,1.05-.21,2.05-.39,2.85-.39,2.17,0,3.42,1.37,3.42,3.13,0,2.31-1.8,3.76-5.28,4.29l-.87-1.33Z"/>
        <path d="M207.24,183.93c0-1.67,1.05-3.22,3.02-4.56-2.88.27-4.68.42-6.81.58l-.19-1.58c3.12-.12,7.92-.41,11.43-.97l.3,1.53c-2.08.29-2.79.51-4,1.47-1.38,1.08-2.21,2.19-2.21,3.55,0,1.71,1.37,2.59,4.04,2.94l-.67,1.46c-2.99-.42-4.89-1.86-4.89-4.42Z"/>
        <path d="M218.97,185.06c-.33-1.06-.55-2.97-.55-4.71,0-.75.03-1.81.09-2.75l1.59.33c-.09,1.02-.13,1.92-.13,2.88,0,1.64.17,2.81.43,3.67.32,1.02.76,1.64,1.2,1.64.48,0,1.11-1.04,1.51-2.94l1.32,1.11c-.63,2.37-1.7,3.51-2.8,3.51-1.22,0-2.13-1.07-2.66-2.75ZM225.82,179.4l1.14-1.02c1.8,1.65,2.32,3.67,2.71,6.52l-1.54.48c-.35-2.66-.9-4.77-2.31-5.98Z"/>
        <path d="M235.1,186.26c0-1.05.95-1.82,2.23-1.82s2.39.72,3.12,2.01c.72-.48,1.19-1.19,1.19-2.03,0-1.05-1.07-1.91-2.79-1.91-1.1,0-2.42.36-3.42.99-.69.43-1.2.86-1.96,1.63l-1.04-1.12c1.65-1.27,4.05-3.39,6.21-5.82-1.21.21-2.73.34-3.99.41l-.27-1.44c1.72-.03,3.61-.15,5.77-.55l.85,1.05c-1.44,1.54-2.56,2.61-3.91,3.83.69-.21,1.33-.3,1.93-.3,2.52,0,4.16,1.33,4.16,3.2,0,2.4-2.4,4.05-5.24,4.05-1.54,0-2.85-.83-2.85-2.17ZM238.1,187.11c.39,0,.75-.04,1.11-.13-.46-.81-1.11-1.26-1.8-1.26-.51,0-.81.25-.81.58,0,.52.66.81,1.5.81Z"/>
        <path d="M16.21,211.34c0-.96.5-1.79,1.31-2.58l1.27.74c-.76.58-1.05,1.24-1.05,1.77,0,.97,1.02,1.44,3.39,1.44,1.61,0,3.41-.21,4.75-.56l.38,1.59c-1.65.36-3.12.5-4.9.5-3.39,0-5.15-.97-5.15-2.89ZM19.68,206.7c.53-.44.99-.79,1.54-1.17-1.57.08-3.21.1-4.23.08l-.09-1.52c2.64.09,5.54.03,7.71-.22l.3,1.48c-.6.04-1.04.09-1.53.29-.9.36-1.48.84-2.38,1.65l-1.32-.58Z"/>
        <path d="M30.58,211.5c0-1.32,1-2.5,2.88-3.69-.61-1.41-1.3-3.21-1.71-4.98l1.58-.38c.27,1.41.88,3.25,1.44,4.62,1.14-.6,2.5-1.21,4.02-1.84l.69,1.47c-3.94,1.35-7.35,3.1-7.35,4.63,0,.94.79,1.51,2.99,1.51,1.32,0,2.92-.1,4.67-.43l.27,1.6c-1.79.3-3.62.36-4.79.36-3.46,0-4.68-1.16-4.68-2.88Z"/>
        <path d="M43.69,213.8c1.25-2.34,2.1-4.38,2.71-6.57-.92.14-1.77.25-2.43.36l-.25-1.46c.69-.06,1.96-.2,2.98-.34.24-1.04.45-2.12.65-3.25l1.53.24c-.19.93-.42,1.86-.66,2.82.44-.03.83-.06,1.14-.06,1.44,0,2.4.88,2.4,2.68,0,1.29-.12,2.91-.45,4.27-.37,1.56-1.27,1.97-2.17,1.97-.7,0-1.39-.14-2.01-.36l-.12-1.65c.71.35,1.38.48,1.83.48.58,0,.88-.32,1.11-1.35.19-.89.3-2,.3-3.06s-.43-1.59-1.18-1.59c-.26,0-.62.03-1.14.09-.73,2.59-1.53,4.88-2.82,7.51l-1.41-.73ZM51.69,205.77l1.23-.91c1.17,1.39,1.95,3.06,2.64,5.19l-1.38.9c-.72-2.26-1.35-3.97-2.49-5.17ZM52.86,203.66l.79-.66c.63.6,1.05,1.11,1.56,2.01l-.86.67c-.51-.92-.94-1.48-1.5-2.02ZM54.31,202.82l.79-.66c.68.58,1.08,1.16,1.56,1.98l-.87.66c-.45-.84-.9-1.46-1.49-1.98Z"/>
        <path d="M57.73,208.73c1.86-.34,3.76-1,4.9-1.69-.63-.62-.99-.93-1.56-1.37-.58.41-1.28.79-1.92,1.11l-.85-1.1c2.04-.78,3.69-2.07,4.77-3.73l1.38.41c-.13.22-.27.39-.6.72h3.46l.73.67c-2.31,3.21-5.32,5.19-9.45,6.18l-.87-1.2ZM59.02,214.04c2.64-.25,4.54-.78,6-1.66-.6-.6-1.1-1.08-1.74-1.56-.83.53-1.82.99-2.76,1.28l-.83-1.11c2.49-.75,4.56-2.1,6.01-3.97l1.33.34c-.21.27-.32.39-.63.74h3.1l.79.69c-2.59,4.07-5.44,5.88-10.41,6.58l-.88-1.32ZM65.91,204.29h-3.04c-.24.21-.51.42-.78.63.6.38,1.05.72,1.75,1.3.81-.58,1.58-1.3,2.07-1.93ZM68.25,209.28h-2.87c-.42.38-.66.55-1,.79.71.49,1.17.88,1.83,1.45.87-.69,1.63-1.51,2.04-2.25Z"/>
        <path d="M73.99,211.31c-.33-1.06-.55-2.97-.55-4.71,0-.75.03-1.81.09-2.75l1.59.33c-.09,1.02-.13,1.92-.13,2.88,0,1.64.17,2.81.43,3.67.32,1.02.76,1.64,1.2,1.64.48,0,1.11-1.04,1.51-2.94l1.32,1.11c-.63,2.37-1.7,3.51-2.8,3.51-1.21,0-2.13-1.07-2.66-2.75ZM80.85,205.65l1.14-1.02c1.8,1.65,2.32,3.67,2.71,6.52l-1.54.48c-.35-2.66-.9-4.77-2.31-5.98Z"/>
        <path d="M89.74,210.56c-.69.74-1.33,1.53-2.01,2.43l-1.26-.93c1.42-1.41,2.32-2.66,2.85-3.58.15-.27.3-.63.43-1v-1.27c-.92.24-2.07.42-2.74.46l-.3-1.4c.96-.08,2.12-.22,3.03-.42,0-.97-.01-1.72-.03-2.46l1.59.06c-.03.76-.04,1.48-.06,2.28l.88.42c-.21.57-.53,1.32-.88,2.16,1.54-1.44,2.98-2.13,4.44-2.13,2.1,0,3.69,1.53,3.69,3.83,0,2.75-1.73,4.38-4.77,5.23l-1.11-1.21c2.98-.76,4.3-2.13,4.3-3.99,0-1.35-.9-2.4-2.17-2.4s-2.85,1.04-4.41,2.46c0,2,0,3.46.03,5.76l-1.58.06c.03-1.68.06-3.03.08-4.35Z"/>
        <path d="M102.57,212.37c0-1.28,1.11-2.22,3.15-2.22.36,0,.72.03,1.11.08-.02-.31-.04-.64-.06-.96-.09-1.36-.17-3.42-.17-4.41,0-.71-.01-1.5.02-2.48l1.6.08c-.09,1-.1,1.7-.12,2.66,1.23-.06,2.49-.21,3.72-.46l.17,1.5c-1.41.23-2.7.36-3.87.42.01.88.06,1.9.12,2.68.03.43.06.88.07,1.3,1.44.41,2.94,1.11,4.21,2.04l-.85,1.3c-1.19-.9-2.31-1.5-3.29-1.88v.29c0,1.58-.94,2.37-2.8,2.37s-3.01-.86-3.01-2.31ZM105.45,213.26c.84,0,1.44-.29,1.44-1.19,0-.1,0-.25-.01-.46-.41-.08-.79-.1-1.12-.1-1.09,0-1.65.38-1.65.88,0,.58.57.87,1.35.87Z"/>
        <path d="M115.17,213.3c0-1.17.98-2.15,2.17-2.15s2.15.99,2.15,2.16-.98,2.16-2.17,2.16-2.15-.99-2.15-2.17ZM118.48,213.32c0-.64-.51-1.15-1.16-1.15s-1.16.52-1.16,1.15.51,1.16,1.16,1.16,1.16-.53,1.16-1.16Z"/>
      </g>
      <circle class="cls-9" cx="305.91" cy="212.56" r="30"/>
      <path class="cls-8" d="M329.77,1.42H90.4c-4.68,0-8.47,3.79-8.47,8.47v43.9s-9.69,9.69-9.69,9.69h9.69v.5c0,4.68,3.79,8.47,8.47,8.47h239.38c4.68,0,8.47-3.79,8.47-8.47V9.89c0-4.68-3.79-8.47-8.47-8.47Z"/>
      <g>
        <path d="M98.17,26.64c0-.84.03-2.66.06-3.78.03-.97.01-2.97-.01-4.27l1.72.03c-.03,1.29-.08,3.18-.12,4.12-.04,1.01-.08,2.75-.08,3.68,0,1.78.5,2.65,1.89,2.65,1.72,0,3.57-1.23,4.56-3.04l.83,1.63c-1.16,1.65-3.21,2.92-5.4,2.92-2.62,0-3.45-1.63-3.45-3.94ZM102.7,19.98l.96-.46c.51.79.86,1.54,1.23,2.49l-1,.49c-.35-.96-.75-1.77-1.19-2.52ZM104.4,19.49l.97-.46c.53.75.86,1.47,1.26,2.49l-1.02.46c-.39-1.05-.75-1.82-1.21-2.49Z"/>
        <path d="M113.71,25.98c-.86.34-1.65.66-2.18.88l-.61-1.25,2.31-.85c-.32-.77-.64-1.54-1.06-2.37l1.32-.51c.38.79.69,1.59,1.02,2.43.18-.08.36-.14.52-.19.71-.26,1.58-.54,2.33-.71-.86-.54-1.5-.83-2.33-1.11l.53-1.09c.93.29,1.62.58,2.55,1.11l-.66,1.06c.42-.09.79-.15,1.08-.15,1.37,0,2.58.84,2.58,2.35,0,1.59-1.44,2.36-2.91,2.36-.42,0-.74-.03-.97-.08l-.41-1.3c.31.08.76.13,1.21.13.95,0,1.62-.39,1.62-1.14,0-.71-.48-1.1-1.21-1.1-.65,0-1.58.29-2.97.83-.17.06-.33.13-.5.19.6,1.58,1.32,3.55,1.8,5.26l-1.38.44c-.45-1.8-1.09-3.68-1.68-5.21Z"/>
        <path d="M129.27,29.27c-.79.6-1.61.96-2.42.96-1.32,0-2.1-.96-2.1-2.35,0-1.29.66-2.55,1.74-3.51.53-.48,1.14-.87,1.79-1.14.01-.5.04-1.11.11-1.77-1.14.06-2.18.09-2.92.09l-.08-1.37c.81.03,1.9,0,3.12-.06.06-.69.15-1.38.24-1.98l1.53.21c-.12.53-.23,1.09-.32,1.68,1.4-.12,2.87-.29,4.14-.53l.11,1.38c-1.35.21-2.92.36-4.42.48-.06.53-.11,1.04-.13,1.47.71-.15,1.48-.22,2.31-.21.08-.35.11-.63.15-.98l1.41.21c-.04.31-.1.62-.18.92,1.83.42,3.11,1.73,3.11,3.42,0,1.91-.96,3.67-4.19,4.69l-1.11-1.11c2.85-.84,3.76-2.13,3.76-3.55,0-1.08-.76-1.89-1.92-2.24-.57,1.58-1.53,3.21-2.55,4.32.13.27.27.54.43.79l-1.18,1.02c-.15-.27-.29-.55-.42-.85ZM126.99,28.81c.54,0,1.19-.3,1.82-.87-.27-.9-.47-2.08-.53-3.3-.33.19-.69.48-1.04.82-.54.54-1.04,1.35-1.04,2.24,0,.75.33,1.11.78,1.11ZM129.94,26.85c.66-.82,1.29-1.93,1.7-3.03-.74,0-1.41.08-2.01.25.02.95.09,1.91.32,2.77Z"/>
        <path d="M138.04,28.13l1.3-1.12c.92.78,1.98,2,2.77,3.13l-1.41,1.25c-.69-1.16-1.64-2.29-2.67-3.25Z"/>
        <path d="M153.15,28.65h5.12v-10.14h1.6v3.75h4.83v1.43h-4.83v4.96h5.91v1.46h-12.63v-1.46Z"/>
        <path d="M167.23,27.35c.38-.13,1.12-.45,1.75-.74v-4.14h-1.6v-1.37h1.6v-2.98h1.37v2.98h1.47v1.37h-1.47v3.48c.48-.24,1.04-.55,1.42-.81l.2,1.23c-1.08.79-2.7,1.71-4.19,2.35l-.55-1.38ZM173.73,30.47c1.35-.87,2.34-2.08,3.03-3.72h-.76c-.72,1.46-1.95,2.81-3.39,3.67l-.98-.91c1.32-.74,2.46-1.77,3.04-2.76h-.78c-.63.74-1.49,1.49-2.29,2l-.86-.96c1.33-.76,2.36-1.74,3.01-2.9h-2.16v-1.12h8.95v1.12h-5.4l-.5.79h5.46c-.06,1.94-.23,3.74-.44,4.46-.19.77-.61,1.05-1.47,1.05-.45,0-.99-.04-1.5-.09l-.24-1.32c-.6.67-1.14,1.18-1.68,1.56l-1.06-.87ZM172.66,18.41h6.42v4.69h-6.42v-4.69ZM177.78,20.27v-.84h-3.81v.84h3.81ZM177.78,22.11v-.87h-3.81v.87h3.81ZM178.77,26.75h-.7c-.33,1.05-.89,2.12-1.55,2.97.41.09.86.15,1.23.15.75,0,.83-.24,1.02-3.12Z"/>
        <path d="M185.16,26.64c0-.84.03-2.66.06-3.78.03-.97.01-2.97-.02-4.27l1.72.03c-.03,1.29-.07,3.18-.12,4.12-.04,1.01-.08,2.75-.08,3.68,0,1.78.5,2.65,1.89,2.65,1.72,0,3.57-1.23,4.56-3.04l.83,1.63c-1.16,1.65-3.21,2.92-5.4,2.92-2.62,0-3.45-1.63-3.45-3.94Z"/>
        <path d="M200.97,26.09c0-1.67,1.05-3.23,3.02-4.56-2.88.27-4.68.42-6.81.58l-.19-1.58c3.12-.12,7.92-.4,11.43-.97l.3,1.53c-2.08.29-2.79.51-4,1.47-1.38,1.08-2.21,2.19-2.21,3.55,0,1.71,1.37,2.6,4.04,2.94l-.67,1.46c-2.99-.42-4.89-1.86-4.89-4.42Z"/>
        <path d="M211.41,27.24c1.35-2.04,2.19-3.66,2.8-5.29-.99.09-1.93.15-2.67.17l-.19-1.42c1-.02,2.19-.08,3.38-.2.22-.76.45-1.56.66-2.43l1.53.38c-.2.66-.38,1.28-.57,1.86.89-.12,1.73-.27,2.42-.45l.27,1.42c-.78.18-1.95.36-3.18.51-.73,2.04-1.6,3.92-3.03,6.27l-1.41-.81ZM214.48,28.55c0-1.14,1.06-2.05,2.67-2.05.36,0,.75.03,1.14.09-.03-.49-.06-1.08-.06-1.37,0-.42.06-1.15.51-1.92l1.33.77c-.29.58-.33.99-.33,1.41,0,.46.03.9.04,1.42,1.06.34,2.16.88,3.15,1.47l-.72,1.3c-.78-.55-1.58-1.02-2.35-1.35v.24c0,1.39-1,2.25-2.58,2.25-1.39,0-2.8-.71-2.8-2.27ZM217.27,29.39c.69,0,1.11-.31,1.11-.94,0-.12,0-.29-.01-.48-.34-.09-.69-.14-1-.14-.79,0-1.33.29-1.33.76,0,.53.55.79,1.25.79ZM219.54,22.17l.67-1.2c1.37.53,2.46,1.14,3.48,2.13l-.82,1.18c-1.16-1.06-2.04-1.59-3.33-2.12Z"/>
        <path d="M227.16,27.22c-.33-1.07-.55-2.97-.55-4.71,0-.75.03-1.81.09-2.74l1.59.33c-.09,1.02-.13,1.92-.13,2.88,0,1.64.17,2.81.43,3.68.32,1.02.76,1.63,1.2,1.63.48,0,1.11-1.04,1.51-2.94l1.32,1.11c-.63,2.37-1.7,3.51-2.8,3.51-1.22,0-2.13-1.06-2.66-2.74ZM234.01,21.56l1.14-1.02c1.8,1.65,2.32,3.68,2.71,6.53l-1.54.48c-.35-2.66-.9-4.77-2.31-5.98Z"/>
        <path d="M239.5,23.21c2.55-1,4.44-2.64,5.75-4.93h1.7c1.38,1.93,3.4,3.46,6.01,4.53l-.92,1.24c-.9-.4-1.77-.88-2.57-1.42v1.05h-6.42v-.84c-.84.6-1.74,1.12-2.67,1.54l-.89-1.17ZM249.87,29.82c-2.82.42-6.09.78-9.03,1l-.45-1.44c.69-.03,1.57-.07,2.07-.12.51-.9.97-1.85,1.38-2.9h-3.55v-1.29h11.91v1.29h-6.69c-.45,1-.93,1.93-1.42,2.81,1.92-.14,3.43-.26,4.88-.42-.38-.42-.83-.9-1.49-1.49l1.25-.69c1.26,1.1,2.47,2.37,3.48,3.66l-1.32.92c-.45-.63-.53-.72-1-1.33ZM249.16,22.41c-1.2-.84-2.28-1.83-3.06-2.87-.69,1.12-1.5,2.04-2.5,2.87h5.57Z"/>
        <path d="M256.42,25.94c-.58.63-1.05,1.09-1.81,1.72l-.71-1.32c1.44-.99,3.13-2.83,3.97-4.36h-3.52v-1.33h2.01v-2.58h1.41v2.58h1.38l.6.62c-.53,1.04-1.12,2.02-1.84,2.94.9.54,1.59,1.02,2.58,1.83l-.92,1.23c-.66-.69-1.11-1.11-1.74-1.62v5.57h-1.41v-5.26ZM259.14,29.3h3.27v-5.83h-2.64v-1.38h2.64v-3.84h1.48v3.84h2.92v1.38h-2.92v5.83h3.44v1.39h-8.19v-1.39Z"/>
        <path d="M275.05,29.24c2.75-.69,4.38-2.37,4.38-4.5s-1.47-3.52-3.6-3.66c-.11,1.69-.38,3.16-.84,4.6-.72,2.25-2,3.48-3.36,3.48s-2.52-1.39-2.52-3.31c0-3.48,2.88-6.21,6.42-6.21,3.25,0,5.49,1.98,5.49,5.08,0,2.68-1.65,4.68-4.74,5.74l-1.23-1.23ZM271.68,27.56c.77,0,1.41-.9,1.88-2.38.41-1.32.65-2.49.74-3.96-2.07.52-3.64,2.41-3.64,4.65,0,.92.49,1.69,1.03,1.69Z"/>
        <path d="M285.01,24.73c-.45,1.48-.94,2.62-1.6,3.75l-.69-1.61c.93-1.2,1.67-2.8,2.13-4.63h-1.8v-1.3h1.96v-2.96h1.35v2.96h1.65v1.3h-1.65v1.42c.75.66,1.36,1.31,1.93,2.02l-.78,1.35c-.42-.75-.64-1.12-1.15-1.84v6.01h-1.35v-6.48ZM291.28,26.54c-.68,1.43-1.62,2.7-2.82,3.77l-.96-1.2c1.51-1.05,2.62-2.35,3.51-4.14h-3.12v-1.28h3.39v-1.91h-1.59c-.25.71-.43,1.14-.76,1.73l-1.08-.81c.54-.92.92-2.22,1.16-3.85l1.28.21c-.06.46-.15.96-.27,1.44h1.28v-2.52h1.38v2.52h2.88v1.29h-2.88v1.91h3.54v1.28h-3.27c.86,1.5,2.16,2.79,3.62,3.67l-.87,1.35c-1.25-1.04-2.25-2.19-3.01-3.54v4.75h-1.38v-4.67Z"/>
        <path d="M298.83,25.68c0-1.33.3-3.96.84-6.81l1.53.27c-.65,2.92-.95,5.56-.95,6.67,0,.46.03.98.09,1.44.24-.77.54-1.47.87-2.19l.9.9c-.45.93-.65,1.47-.79,2.03-.23.84-.3,1.28-.29,1.95l-1.19.5c-.63-1.37-1.02-2.73-1.02-4.76ZM302.59,28.13c0-1.05.86-2.04,2.55-2.04.42,0,.87.04,1.32.12l-.04-1.17c-.04-.64-.08-1.38-.09-2.07-1.19.08-2.37.11-3.38.11l-.11-1.5c1.07.02,2.26-.01,3.46-.09,0-.84-.01-1.57.03-2.79l1.58.05c-.08,1.02-.11,1.83-.14,2.61.79-.08,1.54-.18,2.24-.31l.15,1.51c-.72.12-1.53.23-2.39.3.02.78.03,1.48.06,2.16.01.6.04,1.14.06,1.59.86.31,1.71.78,2.54,1.39l-.87,1.38c-.55-.52-1.11-.92-1.65-1.2-.12,1.46-1.1,2.19-2.71,2.19-1.5,0-2.61-.85-2.61-2.24ZM305.17,29.01c.81,0,1.35-.39,1.33-1.21v-.2c-.45-.13-.88-.21-1.25-.21-.88,0-1.26.36-1.26.81,0,.5.43.81,1.17.81Z"/>
        <path d="M312.01,30.12c1.62-.32,3.08-.79,4.26-1.38h-2.49v-6.04h9.51v6.04h-2.57c1.5.38,2.75.75,4.18,1.32l-1.11,1.2c-1.62-.76-2.99-1.29-4.46-1.69l1.07-.83h-3.98l1.07.83c-1.59.84-3.17,1.49-4.53,1.83l-.96-1.27ZM312.84,18.59h11.38v3.42h-11.38v-3.42ZM316.21,21.04v-1.43h-1.98v1.43h1.98ZM321.84,24.41v-.75h-6.62v.75h6.62ZM321.84,26.06v-.75h-6.62v.75h6.62ZM321.84,27.75v-.81h-6.62v.81h6.62ZM319.5,21.04v-1.43h-2v1.43h2ZM322.84,21.04v-1.43h-2.05v1.43h2.05Z"/>
        <path d="M95.73,55.71c3.03-3,4.93-4.81,6.94-6.7-1.93.33-4.2.51-5.52.57l-.19-1.45c1.74-.04,5.4-.32,7.51-.78l1,1.04c-1.05.88-2.55,2.19-3.6,3.12.29-.06.56-.09.79-.09.74,0,1.11.54,1.11,1.09,0,.41-.04,1.32-.04,1.59,0,.71.17,1.08,1.05,1.08.65,0,1.91-.1,2.85-.34l.18,1.59c-1.02.21-2.28.27-2.99.27-1.88,0-2.67-.77-2.67-2.22,0-.33.03-.82.03-1.05,0-.37-.2-.75-.57-.75-.45,0-.87.24-1.39.7-.6.54-1.17,1.12-3.24,3.39l-1.26-1.05ZM98.86,45.69l.58-1.3c1.5.25,2.79.51,4.41,1.2l-.72,1.3c-1.4-.62-2.9-.95-4.28-1.2Z"/>
        <path d="M110.19,53.49c1.35-2.04,2.19-3.66,2.8-5.29-.99.09-1.93.15-2.67.17l-.19-1.42c1-.02,2.19-.08,3.38-.2.22-.76.45-1.56.66-2.43l1.53.38c-.2.66-.38,1.28-.57,1.86.89-.12,1.73-.27,2.42-.45l.27,1.42c-.78.18-1.95.36-3.18.51-.73,2.04-1.6,3.92-3.03,6.27l-1.41-.81ZM113.26,54.8c0-1.14,1.06-2.05,2.67-2.05.36,0,.75.03,1.14.09-.03-.49-.06-1.08-.06-1.37,0-.42.06-1.15.51-1.92l1.33.77c-.29.58-.33.99-.33,1.41,0,.46.03.9.04,1.42,1.07.34,2.16.88,3.15,1.47l-.72,1.3c-.78-.55-1.58-1.02-2.35-1.35v.24c0,1.39-1,2.25-2.58,2.25-1.39,0-2.8-.71-2.8-2.27ZM116.05,55.64c.69,0,1.11-.31,1.11-.94,0-.12,0-.29-.01-.48-.34-.09-.69-.14-1-.14-.79,0-1.33.29-1.33.76,0,.53.55.79,1.25.79ZM118.32,48.42l.67-1.2c1.37.53,2.46,1.14,3.48,2.13l-.82,1.18c-1.16-1.06-2.04-1.59-3.33-2.12Z"/>
        <path d="M125.94,53.47c-.33-1.07-.55-2.97-.55-4.71,0-.75.03-1.81.09-2.74l1.59.33c-.09,1.02-.13,1.92-.13,2.88,0,1.64.17,2.81.43,3.68.32,1.02.76,1.63,1.2,1.63.48,0,1.11-1.04,1.51-2.94l1.32,1.11c-.63,2.37-1.7,3.51-2.8,3.51-1.21,0-2.13-1.06-2.66-2.74ZM132.79,47.81l1.14-1.02c1.8,1.65,2.32,3.68,2.71,6.53l-1.54.48c-.35-2.66-.9-4.77-2.31-5.98Z"/>
        <path d="M144.91,55.49c2.75-.69,4.38-2.37,4.38-4.5s-1.47-3.52-3.6-3.66c-.11,1.69-.38,3.16-.84,4.6-.72,2.25-2,3.48-3.36,3.48s-2.52-1.39-2.52-3.31c0-3.48,2.88-6.21,6.42-6.21,3.25,0,5.49,1.98,5.49,5.08,0,2.68-1.65,4.68-4.74,5.74l-1.23-1.23ZM141.54,53.81c.77,0,1.41-.9,1.88-2.38.41-1.32.65-2.49.74-3.96-2.07.52-3.64,2.41-3.64,4.65,0,.92.49,1.69,1.03,1.69Z"/>
        <path d="M158.05,52.37c-.02-2.21,2.85-2.31,2.85-4.04,0-.84-.78-1.27-1.86-1.27-.79,0-1.77.25-2.71.75l-.09-1.59c1.14-.43,2.24-.67,3.21-.67,1.95,0,3.34.9,3.34,2.47,0,2.74-3.01,2.68-3.1,4.56l-.02.42h-1.6v-.63ZM157.72,55.39c0-.66.5-1.23,1.21-1.23s1.21.57,1.21,1.23-.5,1.21-1.21,1.21-1.21-.56-1.21-1.21Z"/>
      </g>
      <g>
        <g>
          <path class="cls-1" d="M323.37,205.11c1.96.16,1.33,2.32.37,3.57-.2.26-.59.3-.84.08-1.7-1.45-1.11-3.78.47-3.66Z"/>
          <path class="cls-1" d="M323.27,205.97c-.34,0-.62-.28-.62-.62v-3.88l-.98-1.36c-.2-.28-.13-.66.14-.86.28-.2.66-.13.86.14l1.09,1.52c.08.1.12.23.12.36v4.08c0,.34-.28.62-.62.62Z"/>
          <polygon class="cls-6" points="320.33 195.39 314.01 194.8 316.83 200.48 323.27 201.17 320.33 195.39"/>
          <rect class="cls-6" x="313.41" y="198.59" width="6.88" height="2.99" transform="translate(193.16 -153.65) rotate(38.45)"/>
          <path class="cls-1" d="M318.64,204.49c-.13,0-.27-.04-.38-.13-.27-.21-.31-.6-.1-.87l2.32-2.95c.13-.17.34-.25.55-.23l1.17.13-2.27-4.46-4.88-.46.69,1.4c.1.21.08.46-.06.65l-1.87,2.48c-.21.27-.59.33-.86.12-.27-.21-.33-.59-.12-.86l1.64-2.18-1.02-2.05c-.1-.2-.08-.44.04-.62s.34-.29.57-.26l6.32.59c.21.02.4.15.49.34l2.93,5.78c.1.2.09.44-.04.63-.13.19-.35.29-.57.26l-1.97-.21-2.11,2.68c-.12.15-.3.24-.49.24Z"/>
        </g>
        <path class="cls-10" d="M313.81,230.1l1.71-.86,4.59-2.84,2.64-4.39.28-4.79-2.34-9.89-4.79-6.82-5.62-3.02-6.16-.11-6.16,2.16-3.41,3.79-4.85,9.67-1.63,4.07-.28,5.61,3.62,4.23c4.39,3.17,12.82,4.62,22.39,3.2Z"/>
        <path class="cls-12" d="M322.66,218.76c-5.95-1.44-12.03,4.39-11.11,11.55,6.59-1.14,10.95-4.52,11.11-11.55Z"/>
        <ellipse class="cls-1" cx="298.41" cy="217.4" rx="1.91" ry="1.76" transform="translate(35.85 476.97) rotate(-80.75)"/>
        <ellipse class="cls-1" cx="308.95" cy="218.55" rx="1.76" ry="1.91" transform="translate(-9.57 14.19) rotate(-2.59)"/>
        <path class="cls-12" d="M288.64,216.07c5.2.87,7.66,6.71,5.13,12.44-4.82-3.29-7.39-6.4-5.13-12.44Z"/>
        <path class="cls-1" d="M309.16,230.93c-.33,0-.6-.25-.62-.58-.02-.34.24-.63.58-.65,4.82-.27,12.9-2.05,12.92-10.94,0-1.93-.17-6.91-1.92-11.46-2.11-5.46-5.73-8.5-10.79-9.04-12.14-1.29-14.96,5.89-16.82,10.64-.23.59-.45,1.14-.67,1.63-.21.47-.48,1.01-.76,1.58-1.47,2.98-3.7,7.49-2.19,11.05.9,2.11,3.06,3.71,6.43,4.77,1.39.44,3.2.96,4.76,1.11.34.03.59.33.55.67-.03.34-.34.59-.67.55-1.68-.16-3.56-.71-5.01-1.16-3.72-1.17-6.14-3.01-7.19-5.46-1.74-4.08.64-8.89,2.21-12.08.28-.56.54-1.09.74-1.54.21-.46.42-1,.64-1.58,1.88-4.79,5.03-12.8,18.1-11.41,5.55.59,9.52,3.89,11.81,9.82,1.83,4.74,2.01,9.91,2.01,11.91,0,2.06-.47,5.05-2.62,7.56-2.37,2.76-6.23,4.31-11.47,4.61-.01,0-.02,0-.04,0Z"/>
        <path class="cls-1" d="M297.16,216.76c-.07,0-.13-.02-.19-.07-.78-.62-1.18-1.25-1.48-2.35-.04-.16.05-.33.22-.38.16-.04.33.05.38.22.3,1.1.68,1.56,1.27,2.03.13.11.16.3.05.43-.06.08-.15.12-.24.12Z"/>
        <path class="cls-1" d="M296.96,217.37c-.83,0-1.72-.48-2.42-1.31-.11-.13-.09-.32.03-.44.13-.11.32-.1.44.03.63.74,1.44,1.15,2.12,1.08.17-.02.32.1.34.27.02.17-.1.32-.27.34-.08,0-.15.01-.23.01Z"/>
        <path class="cls-1" d="M309.8,217.98c-.15,0-.28-.11-.31-.27-.02-.17.1-.32.26-.35.68-.09,1.47-.68,1.91-1.43.09-.15.28-.19.42-.11.15.09.2.28.11.42-.54.92-1.49,1.61-2.36,1.73-.01,0-.03,0-.04,0Z"/>
        <path class="cls-1" d="M310.92,219.27c-.38,0-.78-.07-1.16-.25-.16-.07-.22-.25-.15-.41.07-.16.25-.22.41-.15.88.4,1.88.09,2.56-.25.15-.07.34-.01.41.14.08.15.01.34-.14.41-.52.26-1.21.5-1.92.5Z"/>
        <g>
          <path class="cls-4" d="M307.95,223.74c-.69-1.89-3.76-3.93-5.32-3.7-1.56.22-4.86,2.12-5.88,2.06s-1.74-.75-1.86,1.64,1.75,3.62,4.26,2.74c3.48,1.98,9.99.5,8.8-2.74Z"/>
          <path class="cls-4" d="M307.95,225.88c-.77,3.01-5.09,4.77-6.39,4.32-1.3-.44-4.02-1.68-2.59-4.29,2.58.43,8.21.42,8.33-.81s.65.78.65.78Z"/>
          <path class="cls-1" d="M302.87,227.99c-1.1,0-2.27-.34-3.48-1.02-2.37.67-3.69.04-4.39-.63-.88-.84-1.21-2.18-.86-3.5.35-1.34.95-1.45,1.88-1.47.67-.02,1.67-.04,3.32-.9,3.65-1.92,5.78-.82,7.87,1.43.2.22.19.56-.03.76-.22.2-.56.19-.76-.03-1.84-1.98-3.51-2.82-6.57-1.21-1.87.98-3.07,1.01-3.79,1.02q-.69.02-.86.67c-.24.93-.02,1.89.56,2.45.73.7,1.95.8,3.55.31.15-.05.3-.03.43.05,1.98,1.16,4.81,1.86,7.06-1.42.14-.21.41-.29.65-.19,0,0,.74.3,1.4.44.29.06.47.35.41.64-.06.29-.35.48-.64.41-.42-.09-.86-.24-1.17-.35-1.27,1.68-2.82,2.53-4.56,2.53Z"/>
          <path class="cls-1" d="M302.11,230.75c-.58,0-1.15-.1-1.66-.3-2.67-1.04-2.67-3.69-2.66-3.81,0-.3.25-.53.54-.53h0c.3,0,.54.25.53.55,0,.08.02,2.02,1.98,2.79,1.15.45,2.63.23,3.97-.59,1.48-.9,2.46-2.33,2.61-3.82.03-.3.29-.51.59-.48.3.03.51.3.48.59-.19,1.82-1.36,3.55-3.12,4.63-1.05.64-2.19.97-3.26.97Z"/>
        </g>
        <path class="cls-1" d="M298.48,209.07c1.71-.7,3.25-.04,3.97,1.3.17.31-.15.58-.48.41-1.07-.54-2.13-.81-3.29-1.03-.39-.07-.53-.55-.2-.68Z"/>
        <path class="cls-1" d="M312.06,211.67c-1.26-1.34-2.94-1.38-4.15-.47-.28.21-.11.59.27.58,1.2-.05,2.27.15,3.42.43.38.09.71-.28.47-.54Z"/>
      </g>
    </g>
  </g>
</svg>