<?xml version="1.0" encoding="UTF-8"?>
<svg id="_レイヤー_2" data-name="レイヤー 2" xmlns="http://www.w3.org/2000/svg" width="339.66" height="190.51" viewBox="0 0 339.66 190.51">
  <defs>
    <style>
      .cls-1 {
        fill: #211815;
      }

      .cls-2 {
        fill: #f5f19b;
      }

      .cls-3 {
        fill: #ecbb6e;
      }

      .cls-4 {
        fill: #93c9ce;
      }

      .cls-5 {
        fill: #5c948d;
      }

      .cls-6 {
        fill: #fffba1;
      }

      .cls-7, .cls-8 {
        fill: #fff;
      }

      .cls-9 {
        fill: #d3f2c9;
      }

      .cls-10 {
        fill: #de8a4c;
      }

      .cls-11 {
        fill: #ceeaeb;
      }

      .cls-12 {
        fill: #f2d496;
      }

      .cls-8 {
        stroke: #ceeaeb;
        stroke-miterlimit: 10;
        stroke-width: 2.83px;
      }
    </style>
  </defs>
  <g id="_レイヤー_1-2" data-name="レイヤー 1">
    <g>
      <path class="cls-8" d="M9.89,107.66h239.38c4.68,0,8.47,3.79,8.47,8.47v42.7s9.69,9.69,9.69,9.69h-9.69s0,.5,0,.5c0,4.68-3.79,8.47-8.47,8.47H9.89c-4.68,0-8.47-3.79-8.47-8.47v-52.89c0-4.68,3.79-8.47,8.47-8.47Z"/>
      <g>
        <path d="M21.06,126.63c-2.69,0-4.58.09-5.06.23-.01.01-.03.01-.04.01-.28,0-.38-.49-.42-2.04.74.12,1.7.15,3.92.15,2.01,0,4.37-.04,4.74-.09.27-.03.36-.04.63-.15.08-.03.1-.03.17-.03.25,0,.57.24,1.05.81.29.36.34.45.34.61,0,.1-.04.19-.15.33-.15.18-.16.23-.49,1.27-.84,2.64-2.5,5.01-4.75,6.75-.9.69-1.75,1.22-1.98,1.22-.17,0-.19-.02-.54-.36-.4-.4-.72-.63-1.12-.85,2.21-1.09,3.41-2.02,4.56-3.48,1.03-1.32,1.68-2.73,2.02-4.41q-1.17.02-2.86.03Z"/>
        <path d="M35.52,126.63c-2.69,0-4.58.09-5.06.23-.01.01-.03.01-.04.01-.29,0-.38-.49-.42-2.04.74.12,1.7.15,3.92.15,2.01,0,4.37-.04,4.74-.09.27-.03.36-.04.63-.15.08-.03.1-.03.17-.03.25,0,.57.24,1.05.81.29.36.34.45.34.61,0,.1-.04.19-.15.33-.15.18-.17.23-.5,1.27-.84,2.64-2.5,5.01-4.75,6.75-.9.69-1.75,1.22-1.98,1.22-.17,0-.19-.02-.54-.36-.4-.4-.72-.63-1.12-.85,2.21-1.09,3.41-2.02,4.56-3.48,1.03-1.32,1.68-2.73,2.02-4.41q-1.17.02-2.86.03Z"/>
        <path d="M43.48,132.77c.27-.24.34-.3.45-.3.19,0,1.09.66,1.75,1.29.75.69,1.59,1.69,1.59,1.9,0,.14-.03.17-.46.56-.57.52-.69.61-.79.61-.09,0-.18-.06-.25-.21-.53-.93-1.73-2.16-2.79-2.85-.12-.09-.18-.15-.18-.24,0-.1.03-.15.69-.76Z"/>
        <path d="M66.18,132.75c.96.87,1.54,1.5,1.54,1.67,0,.13-.2.38-.66.82-.34.33-.5.44-.6.44-.06,0-.13-.03-.22-.1q-.17-.19-.86-.98c-.83-.93-1.95-1.92-3.25-2.85-.99,1.03-2.33,2.16-3.41,2.9-.85.58-1.66,1.03-1.84,1.03-.15,0-.17-.02-.52-.42-.21-.24-.56-.54-.93-.81,1.73-.79,3-1.65,4.42-2.95,1.54-1.41,2.57-2.71,3.77-4.79q-5.07.03-5.9.12c-.18.02-.21.02-.24.02-.17,0-.25-.08-.29-.24-.08-.48-.11-.93-.11-1.72,1.02.13,2.61.19,4.79.19.88,0,1.81-.03,2.31-.09.2-.02.23-.03.54-.14.06-.03.09-.03.18-.03.25,0,.52.21.88.69.29.4.45.72.45.88,0,.18-.05.24-.44.6-.24.24-.34.36-.81,1.12-.45.75-1.14,1.69-1.71,2.38,1.17.78,1.96,1.38,2.89,2.25Z"/>
        <path d="M75.8,129.06c2.75,0,4.32-.03,5.83-.13h.2c.45,0,.45.01.45,1.21,0,.61-.04.72-.3.72h-.06c-.99-.04-1.54-.04-5.88-.04-1.59,0-2.38.02-3.76.06h-.44c-.48,0-.55.02-.84.06-.08,0-.13.02-.17.02-.17,0-.27-.08-.3-.21-.09-.38-.15-1.14-.15-1.83,1.21.12,2.28.15,5.42.15Z"/>
        <path d="M89.51,126.77c0,.06-.03.14-.1.27-.17.27-.23.5-.42,1.35-.48,2.11-1.26,3.94-2.28,5.34-.44.6-.75.92-.93.92-.06,0-.12-.03-.23-.09-.5-.27-.92-.45-1.5-.58,1.38-1.2,2.43-3.12,2.99-5.43.18-.79.29-1.54.29-2.22v-.26c1.3.14,2.19.42,2.19.71ZM95.14,134.27c-.78-2.75-1.91-5.29-3.13-7.12-.18-.25-.2-.3-.2-.38,0-.12.13-.23.57-.48.45-.28.69-.39.82-.39.17,0,.21.06.78.94.67,1.05,1.33,2.38,2.12,4.32.52,1.29.84,2.26.84,2.53,0,.18-.08.24-.45.42-.36.18-.96.39-1.09.39-.12,0-.21-.09-.25-.24ZM97.37,125.12c0,.9-.71,1.6-1.6,1.6s-1.61-.71-1.61-1.6.71-1.6,1.61-1.6,1.6.71,1.6,1.6ZM94.97,125.12c0,.44.36.79.79.79s.79-.36.79-.79-.36-.79-.79-.79-.79.36-.79.79Z"/>
        <path d="M104.72,129.06c2.75,0,4.32-.03,5.83-.13h.2c.45,0,.45.01.45,1.21,0,.61-.04.72-.3.72h-.06c-.99-.04-1.54-.04-5.88-.04-1.59,0-2.38.02-3.76.06h-.44c-.48,0-.55.02-.84.06-.08,0-.13.02-.17.02-.17,0-.27-.08-.3-.21-.09-.38-.15-1.14-.15-1.83,1.21.12,2.28.15,5.42.15Z"/>
        <path d="M117.28,132.23c.04.07.06.13.06.21,0,.1-.02.12-.15.45-.3.69-.66,1.77-.84,2.58-.04.17-.09.25-.15.29-.08.03-.59.1-.75.1h-.06c-.08,0-.18-.02-.3-.02-.2,0-.24-.04-.3-.23-.29-.97-.51-2.98-.51-4.5,0-1.65.1-2.67.52-4.92.15-.81.22-1.26.29-1.75.63.12,1.17.27,1.62.48.25.1.33.18.33.33,0,.1-.02.15-.18.39-.5.79-1.05,3.98-1.05,6.12,0,.34.02.81.06,1.56.42-.94.57-1.23.92-1.96.13.31.22.46.49.87ZM120.53,133.29c.48.25,1.05.34,2.06.34s1.53-.07,2.46-.34c.09-.03.16-.04.21-.04.1,0,.18.06.19.21.08.51.13,1.11.13,1.41,0,.15-.04.2-.25.26-.81.21-1.63.31-2.64.31-1.38,0-2.23-.17-2.94-.58-.66-.41-1.35-1.23-1.35-1.64,0-.21.32-.49,1.12-.99.27.54.53.81,1,1.06ZM119.48,125.64c.33.08,1.29.14,2.03.14.99,0,1.98-.08,2.91-.24q.08-.01.14-.01c.1,0,.15.04.18.16.03.15.08.81.08,1.22,0,.22-.04.3-.21.33-.62.12-1.63.2-2.71.2-1.29,0-2.45-.08-2.59-.17-.08-.04-.11-.15-.11-.42,0-.41.04-1,.08-1.12.01-.06.06-.09.15-.09.02,0,.04,0,.08.01Z"/>
        <path d="M131.65,132.51c.04.06.06.1.06.16q0,.09-.25.78c-.32.92-.51,1.67-.57,2.25-.01.19-.08.27-.27.31-.21.06-.61.09-1,.09-.15,0-.22-.03-.27-.12-.13-.28-.38-1.32-.5-2.16-.1-.71-.15-1.44-.15-2.21,0-1.73.2-3.36.74-6.3.09-.48.12-.71.17-1.17.69.09,1.17.23,1.6.44.23.12.32.23.32.36,0,.09-.03.17-.11.29-.61,1.05-1.18,4.29-1.18,6.69,0,.36.01.93.06,1.65.36-.93.52-1.35.85-2.07.11.41.21.6.51,1.01ZM134.17,128.57c-.72,0-.87-.03-.92-.19-.04-.13-.09-.61-.09-.96,0-.12,0-.24.01-.51.41.03.64.04,1.14.04.81,0,1.32-.02,2.1-.08-.02-1.9-.03-2.15-.18-2.85.74.01,1.29.07,1.77.19.22.06.31.13.31.29,0,.06-.01.1-.06.22-.15.35-.23.93-.25,1.98.55-.07,1.03-.18,1.93-.39.08-.03.1-.03.15-.03.09,0,.13.04.17.15.03.14.07.71.07,1.02,0,.38-.01.44-.17.5-.24.12-.9.23-2.17.39,0,1.03.09,2.74.2,3.72.95.4,1.59.75,2.25,1.21.42.3.51.41.51.51,0,.16-.27.67-.58,1.11-.18.25-.27.33-.38.33s-.1,0-.45-.33c-.33-.33-.67-.58-1.33-1.02v.12c0,1.32-1.09,2.19-2.76,2.19s-2.8-.9-2.8-2.25,1.14-2.35,2.66-2.35c.55,0,.84.02,1.24.08q-.06-1.17-.1-3.18c-.65.04-1.67.09-2.26.09ZM135.4,132.98c-.75,0-1.25.34-1.25.87,0,.48.46.78,1.19.78.79,0,1.21-.36,1.21-1.05,0-.21-.02-.38-.02-.38-.39-.15-.73-.23-1.14-.23Z"/>
        <path d="M147.83,130.98c-.05.18-.06.29-.09.62-.12,1.36-.61,2.5-1.39,3.3-.45.45-1.08.88-1.7,1.19-.39.18-.75.31-1.56.55-.33-.71-.54-1.05-1.04-1.6.88-.12,1.35-.25,1.96-.54,1-.45,1.58-1.02,1.84-1.78.14-.39.24-.94.24-1.33,0-.14-.01-.33-.03-.48l1.75.09ZM142.34,132.11c.04-.34.06-.65.06-1.04v-1c0-.43-.01-.72-.06-1.06.45.04.86.06,1.54.06h9.51c.71,0,1.05-.02,1.58-.06-.04.3-.06.57-.06,1.02v1.04c0,.44.02.73.06,1.05h-1.68v-1.65h-9.3v1.65h-1.65ZM147.77,124.38c0-.51-.01-.78-.08-1.11h1.75c-.06.3-.07.57-.07,1.11v.17h3.88c.79,0,1.35-.03,1.72-.09v1.53c-.45-.04-.96-.08-1.7-.08h-3.91v.95h3.19c.72,0,1.11-.02,1.47-.08v1.48c-.42-.04-.75-.06-1.47-.06h-7.86c-.67,0-1.02.02-1.46.06v-1.48c.36.06.75.08,1.46.08h3.06v-.95h-3.69c-.75,0-1.23.02-1.71.08v-1.53c.36.06.93.09,1.74.09h3.66v-.17ZM150.77,134.42c0,.38.13.44,1.07.44,1.06,0,1.36-.05,1.5-.26.14-.16.2-.57.27-1.77.48.24.92.38,1.53.48-.12,1.47-.35,2.25-.72,2.59-.34.31-1.02.42-2.68.42-2.16,0-2.56-.19-2.56-1.23v-2.95c0-.58-.02-.89-.06-1.2h1.74c-.06.35-.08.57-.08,1.12v2.35Z"/>
        <path d="M160.16,128.87c1.89-.52,3.25-.77,4.27-.77,2.12,0,3.42,1.16,3.42,3.03,0,1.12-.46,2.12-1.35,2.87-.58.49-1.46.91-2.61,1.26-.64.18-1.33.31-1.63.31-.18,0-.27-.04-.33-.19-.21-.52-.45-.9-.76-1.21,3.3-.35,4.98-1.4,4.98-3.1,0-.87-.72-1.54-1.65-1.54-1.62,0-3.39.54-5.25,1.57-.15.08-.24.12-.3.12-.25,0-.67-.75-1.02-1.83.74-.1.99-.17,2.24-.51Z"/>
        <path d="M173.63,127.44c-.39.09-.53.13-1.07.33-.19.08-.3.1-.39.1-.33,0-.63-.61-.9-1.9.96-.04,1.31-.09,2.97-.34,1.8-.27,4.08-.62,5.28-.77,1.35-.18,2.43-.36,3-.48.1-.03.15-.03.22-.03.2,0,.27.09.41.47.12.31.21.76.21.98,0,.18-.06.24-.27.24-.32,0-.6.03-.89.08-2.53.42-4.56,2.64-4.56,4.98,0,1.75,1.38,2.91,3.72,3.12.21.01.29.09.29.27,0,.38-.15,1.09-.29,1.42-.08.17-.19.24-.39.24s-.65-.09-1.11-.22c-2.55-.75-3.88-2.37-3.88-4.67,0-1.25.41-2.4,1.19-3.39.42-.54.78-.84,1.63-1.43-1.96.33-4.04.72-5.17,1.01Z"/>
        <path d="M187.24,127.77c-.27.02-.43.03-.61.05-.14.01-.15.01-.17.01-.12,0-.18-.04-.23-.19-.08-.24-.18-1.04-.19-1.48.17.01.6.03,1.14.03.17,0,1.35-.07,1.88-.12.25-1.21.34-1.84.34-2.65,1.54.21,2.1.39,2.1.68,0,.1-.01.13-.24.48-.12.18-.17.34-.42,1.27.7-.12,1.12-.23,1.68-.41.1-.03.15-.04.22-.04.11,0,.13.08.23.51.07.37.12.69.12.85,0,.18-.04.21-.43.3-.51.12-1.38.27-2.31.39-.56,1.68-.93,2.58-1.62,3.99-.53,1.05-.83,1.6-1.23,2.23-.12.18-.19.24-.3.24-.15,0-.57-.22-1.09-.61-.24-.17-.3-.24-.3-.35s.06-.19.25-.46c.43-.54,1-1.47,1.5-2.46.42-.82.57-1.17,1-2.35-.58.05-.63.06-1.32.1ZM192.17,136.41c-1.64,0-2.75-.9-2.75-2.23s1.15-2.41,2.7-2.41c.36,0,.53.01,1.14.1-.06-.72-.06-1.01-.12-2.4,0-.29-.03-.68-.06-1.16.77.08,1.35.17,1.64.29.12.04.18.12.18.24,0,.08-.01.14-.03.24-.08.31-.09.54-.09.94,0,.56.04,1.5.09,2.23,1.07.48,1.5.72,2.25,1.31.33.25.45.39.45.51,0,.15-.08.29-.5.96-.18.3-.31.44-.42.44q-.09,0-.51-.39c-.33-.33-.71-.58-1.23-.9,0,1.4-1.02,2.23-2.74,2.23ZM192.14,133.2c-.72,0-1.21.34-1.21.87,0,.5.45.81,1.12.81.79,0,1.21-.4,1.21-1.2,0-.12,0-.24-.02-.24-.3-.15-.7-.24-1.11-.24ZM197.75,128.94c-.18.26-.27.33-.38.33-.08,0-.13-.03-.24-.13-.38-.36-.9-.75-1.46-1.1q-.36-.22-1.02-.52c-.21-.09-.29-.15-.29-.27,0-.1.08-.24.3-.58.36-.52.45-.61.58-.61.28,0,1.39.57,2.19,1.11.65.44.84.61.84.78,0,.12-.24.57-.54,1Z"/>
        <path d="M200.92,126.5c0-.44-.02-1.02-.04-1.35.69.07,1.2.18,1.6.33.36.14.48.23.48.39q0,.09-.06.24c-.2.51-.25,1.08-.25,2.44,0,1.92.12,3.12.42,4.03.22.71.57,1.11.97,1.11.62,0,1.12-.72,1.68-2.38.28.77.39.99.81,1.53.08.1.12.21.12.31,0,.24-.22.75-.53,1.19-.58.85-1.33,1.32-2.13,1.32-1.15,0-2.02-.93-2.56-2.77-.34-1.2-.51-2.71-.51-4.81v-1.58ZM209.84,126.74c.09,0,.17.04.29.15.75.72,1.53,1.92,2.03,3.09.33.79.64,1.86.64,2.17,0,.15-.08.23-.39.39-.34.18-1.05.42-1.23.42-.13,0-.19-.08-.24-.34-.2-1.16-.46-2-.93-2.97-.42-.87-.45-.92-1.47-2.17.63-.46,1.12-.73,1.3-.73Z"/>
        <path d="M216.29,124.28v-.21c.94.17,1.42.3,1.81.5.11.04.13.1.13.21,0,.06-.03.13-.09.24-.13.24-.18.42-.41,1.41-.28,1.29-.43,2.73-.43,4.3,0,.84.03,1.3.12,2.1l.79-1.6c.09.31.21.57.39.78.12.15.14.19.14.31s0,.12-.29.75c-.32.67-.5,1.26-.66,2.02-.04.24-.09.31-.17.35-.12.06-.63.13-.93.13-.21,0-.29-.04-.33-.18-.36-1.02-.66-3.12-.66-4.62,0-1.29.17-3.07.43-4.95.09-.62.14-1.06.14-1.38v-.17ZM221.41,128.52c-.84,0-1.08-.03-1.16-.13-.1-.14-.19-.75-.19-1.31v-.22c.6.06,1.08.09,1.84.09.58,0,.92-.02,1.51-.06-.04-1.56-.13-2.49-.31-2.97h.4c.53,0,1.17.04,1.5.12.15.03.23.12.23.24,0,.06-.02.12-.04.23-.08.21-.12.54-.12.93,0,.23.01.93.01,1.11v.15c.75-.12,1.11-.2,1.74-.41.06-.02.12-.03.18-.03.09,0,.13.04.17.13.06.17.12.75.12,1.08,0,.24-.04.35-.17.39-.2.07-1.11.25-2,.38.02.42.02.65.02.88,0,2.21-.27,3.78-.87,4.96-.54,1.06-1.71,2.31-2.19,2.31-.13,0-.19-.03-.36-.18-.5-.44-.58-.51-1.17-.78,1.05-.58,1.72-1.22,2.19-2.07.5-.91.76-2.17.76-3.55,0-.1,0-.36-.01-.72-.01-.15-.01-.38-.03-.68-.54.04-1.75.1-2.05.1Z"/>
        <path d="M233.38,128.34c-.19-.66-.25-1.06-.43-2.91-.06-.72-.12-1.08-.27-1.59.91.02,1.5.06,1.9.17.23.06.33.17.33.33,0,.06-.01.13-.04.25-.1.36-.15.63-.15,1.02,0,.73.15,1.94.32,2.46.09.28.18.39.34.39.36,0,1.68-.69,2.4-1.24.19-.15.22-.17.3-.17.13,0,.27.1.5.39.38.51.67,1.06.67,1.27,0,.17-.11.27-.36.34-.93.25-2.46.85-3.49,1.35-1.83.9-2.66,1.73-2.66,2.65s.76,1.29,2.7,1.29c1.12,0,2.14-.1,3.52-.33.06-.02.17-.03.2-.03.12,0,.19.06.25.18.04.15.15,1.06.15,1.43,0,.21-.06.28-.26.34-.33.08-2.14.18-3.28.18-1.92,0-3.2-.26-3.99-.79-.67-.47-1.04-1.2-1.04-2.1,0-.69.2-1.31.6-1.9.52-.78,1.09-1.27,2.35-2.02-.31-.29-.43-.5-.57-.96ZM238.82,124.98c.12-.09.2-.12.29-.12.21,0,1.51,1.38,1.51,1.6,0,.09-.12.23-.41.46-.3.25-.33.27-.4.27-.09,0-.11,0-.39-.42-.3-.42-.72-.9-1.04-1.17-.04-.04-.07-.09-.07-.14,0-.07.13-.21.51-.49ZM242.08,125.39c0,.09-.04.15-.22.3-.21.18-.5.38-.56.38-.09,0-.12-.04-.3-.28-.34-.5-.55-.73-1.09-1.23-.06-.06-.08-.09-.08-.14,0-.13.57-.57.75-.57.25,0,1.5,1.27,1.5,1.54Z"/>
        <path d="M243.68,132.77c.27-.24.34-.3.45-.3.19,0,1.09.66,1.75,1.29.75.69,1.59,1.69,1.59,1.9,0,.14-.03.17-.46.56-.57.52-.69.61-.79.61-.09,0-.18-.06-.25-.21-.53-.93-1.73-2.16-2.79-2.85-.12-.09-.18-.15-.18-.24,0-.1.03-.15.69-.76Z"/>
        <path d="M23.64,155.15h2.13c.68,0,1.1-.03,1.54-.09v1.63c-.48-.04-.93-.07-1.56-.07h-1.62c.86,1.5,2.1,2.74,3.58,3.58-.48.48-.69.78-.99,1.5-.61-.43-1.05-.85-1.62-1.5-.74-.85-1.05-1.32-1.53-2.22.03.54.04,1,.04,1.44v1.81c0,.67.03,1.2.09,1.67h-1.67c.06-.46.09-1,.09-1.68v-1.71c0-.41.02-.88.04-1.49-.91,1.65-1.93,2.76-3.39,3.74-.38-.71-.58-1-.9-1.37,1.54-.88,2.8-2.17,3.67-3.78h-.95c-.64,0-1.11.03-1.58.09v-.6c-.25.36-.43.69-.61,1.21-.38-.58-.6-1.05-.89-1.8.03.47.06,1.28.06,1.91v3.69c0,.77.03,1.32.09,1.77h-1.67c.06-.46.09-1.02.09-1.77v-3.1c0-.57.02-.93.11-1.86-.44,1.46-.87,2.43-1.52,3.41-.18-.67-.37-1.11-.67-1.6.72-.92,1.47-2.61,1.92-4.35h-.57c-.44,0-.69.02-.96.06v-1.53c.24.04.51.06.96.06h.72v-1.16c0-.76-.01-1.14-.08-1.5h1.65c-.06.39-.08.79-.08,1.5v1.16h.43c.36,0,.54-.02.78-.06v1.42c.57-1.02,1.05-2.52,1.09-3.49l1.46.38c-.06.16-.1.34-.21.79-.08.27-.1.4-.18.69h1.15v-.99c0-.61-.03-.99-.09-1.36h1.68c-.06.36-.09.76-.09,1.36v.99h1.7c.72,0,1.14-.03,1.54-.09v1.58c-.42-.04-.9-.08-1.54-.08h-1.7v1.81ZM20.5,153.33c-.25.62-.39.9-.81,1.6q-.36-.38-1.17-.94c.12-.17.17-.24.24-.35-.2-.03-.44-.04-.71-.04h-.38c.34.79.71,1.4,1.36,2.28v-.83c.45.06.87.09,1.56.09h1.53v-1.81h-1.63Z"/>
        <path d="M32.76,158.48c.04.08.06.13.06.21,0,.11-.02.12-.15.45-.3.69-.66,1.77-.84,2.58-.04.17-.09.25-.15.29-.08.03-.58.1-.75.1h-.06c-.08,0-.18-.01-.3-.01-.2,0-.24-.04-.3-.23-.29-.97-.51-2.98-.51-4.5,0-1.65.1-2.67.52-4.92.15-.81.22-1.26.29-1.75.63.12,1.17.27,1.62.48.25.11.33.18.33.33,0,.11-.02.15-.18.39-.5.79-1.05,3.98-1.05,6.12,0,.34.02.81.06,1.56.42-.94.57-1.23.92-1.96.13.32.22.46.49.87ZM36.01,159.54c.48.25,1.05.34,2.06.34s1.53-.08,2.46-.34c.09-.03.17-.04.21-.04.1,0,.18.06.19.21.08.51.13,1.11.13,1.41,0,.15-.04.2-.25.26-.81.21-1.63.31-2.64.31-1.38,0-2.23-.17-2.94-.58-.66-.41-1.35-1.23-1.35-1.63,0-.21.32-.5,1.12-.99.27.54.53.81,1,1.07ZM34.96,151.89c.33.08,1.29.14,2.03.14.99,0,1.98-.08,2.91-.24q.08-.01.14-.01c.1,0,.15.04.18.16.03.15.08.81.08,1.22,0,.22-.04.3-.21.33-.62.12-1.63.2-2.71.2-1.29,0-2.45-.08-2.59-.17-.08-.04-.11-.15-.11-.42,0-.41.04-1,.08-1.12.01-.06.06-.09.15-.09.02,0,.05,0,.08.01Z"/>
        <path d="M47.13,158.76c.04.06.06.11.06.17q0,.09-.25.78c-.32.92-.51,1.67-.57,2.25-.01.19-.08.27-.27.31-.21.06-.61.09-1,.09-.15,0-.22-.03-.27-.12-.13-.28-.38-1.32-.5-2.16-.1-.71-.15-1.44-.15-2.21,0-1.73.2-3.36.74-6.3.09-.48.12-.71.17-1.17.69.09,1.17.22,1.6.43.23.12.32.23.32.36,0,.09-.03.17-.11.29-.61,1.05-1.18,4.29-1.18,6.69,0,.36.01.93.06,1.65.36-.93.52-1.35.85-2.07.11.41.21.6.51,1ZM49.65,154.82c-.72,0-.87-.03-.92-.19-.04-.13-.09-.62-.09-.96,0-.12,0-.24.01-.51.41.03.64.04,1.14.04.81,0,1.32-.02,2.1-.08-.02-1.91-.03-2.15-.18-2.85.74.01,1.29.07,1.77.19.22.06.31.13.31.29,0,.06-.01.11-.06.22-.15.35-.23.93-.25,1.98.55-.08,1.03-.18,1.93-.39.08-.03.1-.03.15-.03.09,0,.13.04.17.15.03.14.07.71.07,1.02,0,.38-.01.43-.17.5-.24.12-.9.22-2.17.39,0,1.04.09,2.75.2,3.72.95.41,1.59.75,2.25,1.21.42.3.51.41.51.51,0,.16-.27.67-.58,1.11-.18.25-.27.33-.38.33s-.1,0-.45-.33c-.33-.33-.67-.58-1.33-1.02v.12c0,1.32-1.09,2.19-2.76,2.19s-2.8-.9-2.8-2.25,1.14-2.35,2.66-2.35c.55,0,.84.01,1.24.08q-.06-1.17-.1-3.18c-.65.04-1.67.09-2.26.09ZM50.88,159.23c-.75,0-1.25.34-1.25.87,0,.48.46.78,1.19.78.79,0,1.21-.36,1.21-1.05,0-.21-.02-.38-.02-.38-.39-.15-.73-.23-1.14-.23Z"/>
        <path d="M59.29,151.91c-.63,0-1.08.03-1.51.08v-1.47c.42.06.83.09,1.54.09h3.96c0-.45-.03-.75-.09-1.09h1.69c-.06.35-.09.66-.09,1.09h4.23c.72,0,1.12-.01,1.54-.09v1.47c-.43-.05-.88-.08-1.5-.08h-4.28v.66h3.21c.69,0,.99-.02,1.38-.05-.04.41-.06.65-.06,1.16v2.8c0,.51.01.75.06,1.16-.46-.03-.69-.04-1.44-.04v.67h1.09c.75,0,1.11-.01,1.54-.09v1.47c-.48-.04-.97-.08-1.5-.08h-1.14v1.89c0,1.02-.5,1.29-2.33,1.29-.2,0-.51-.02-1-.03-.12-.69-.21-1.02-.44-1.47.66.09,1.12.12,1.65.12s.6-.05.6-.33v-1.47h-7.14c-.52,0-1.05.03-1.51.08v-1.47c.42.08.81.09,1.54.09h7.11v-.67h-6.1c-.66,0-.93.01-1.37.04.04-.45.06-.67.06-1.16v-2.8c0-.48-.02-.71-.06-1.16.39.03.69.05,1.37.05h2.96v-.66h-3.99ZM62.37,162.48c-.83-.97-1.17-1.29-2.03-1.91l1.16-.93c.93.62,1.47,1.08,2.07,1.8l-1.2,1.04ZM60.52,153.77v.75h2.76v-.75h-2.76ZM60.52,155.62v.78h2.76v-.78h-2.76ZM64.8,154.52h3.01v-.75h-3.01v.75ZM64.8,156.39h3.01v-.78h-3.01v.78Z"/>
        <path d="M74.68,158.31c-.21,1.96-.63,3.27-1.47,4.56-.6-.58-.81-.75-1.39-1.14,1.2-1.75,1.47-3.5,1.47-9.66,0-.98-.01-1.44-.08-2.03.5.04.89.06,1.65.06h8.07c.79,0,1.23-.02,1.67-.06-.04.48-.06.87-.06,1.62v9.46c0,1.2-.44,1.51-2.07,1.51-.43,0-1.18-.03-1.6-.06-.08-.56-.17-.9-.41-1.52.74.09,1.35.14,1.8.14.6,0,.72-.06.72-.38v-2.52h-3.43v2.37c0,.85.01,1.32.08,1.71h-1.71c.08-.45.09-.84.09-1.7v-2.38h-3.31ZM78,154.92h-3.2c0,.39-.01.71-.01.9,0,.66-.01.81-.01,1.06h3.22v-1.96ZM78,151.61h-3.15v1.9s3.15,0,3.15,0v-1.9ZM82.98,153.51v-1.9h-3.43v1.9h3.43ZM82.98,156.89v-1.96h-3.43v1.96h3.43Z"/>
        <path d="M92.32,159.2c-.72,1.25-1.71,1.94-2.73,1.94-1.56,0-2.67-1.53-2.67-3.66,0-2.37,1.2-4.41,3.25-5.49,1.01-.54,2.09-.78,3.51-.78,3.14,0,5.46,2.22,5.46,5.19,0,2.62-1.29,4.51-3.78,5.58-.5.21-.89.33-1.08.33-.18,0-.25-.06-.45-.34-.25-.39-.54-.68-.95-.95,3.09-.79,4.49-2.25,4.49-4.68,0-1.25-.53-2.29-1.46-2.96-.53-.36-.95-.51-1.77-.64-.42,3.16-.92,4.89-1.83,6.46ZM90.16,153.89c-1,.88-1.58,2.15-1.58,3.55,0,1.16.38,1.83,1,1.83.75,0,1.52-1.04,2.09-2.82.36-1.12.54-1.98.77-3.65-1.07.23-1.59.48-2.28,1.08Z"/>
        <path d="M104.81,156.2v-7.04h4.79v1.63h-3v5.4h-1.79Z"/>
        <path d="M116.67,161.3c0,.75.03,1.2.08,1.56h-1.68c.06-.45.09-.99.09-1.54v-1.35c-1.28.39-2.45.71-3.06.83-.54.1-.94.21-1.15.3l-.41-1.63c.36-.03.58-.06,1.11-.15v-7.86c-.51.01-.62.01-.96.06v-1.56c.4.04.81.07,1.29.07h4.4c.57,0,.9-.01,1.3-.07v.9c.36.03.54.03.92.03h3.78c.39,0,.78-.03,1.17-.08-.03.18-.06.48-.11.92-.21,2.46-.93,4.83-2.05,6.83.79,1.11,1.46,1.71,2.77,2.53-.38.56-.67,1.11-.87,1.62-1.47-1.06-2.05-1.63-2.83-2.73-.91,1.18-1.51,1.74-2.91,2.75-.25-.68-.46-1.05-.87-1.61v.2ZM113.16,153.04h2v-1.59h-2v1.59ZM113.16,155.85h2v-1.53h-2v1.53ZM113.16,159.02q1.02-.21,2-.46v-1.39h-2v1.86ZM116.67,161.07c1.44-.88,2.01-1.39,2.88-2.53-.51-.95-.79-1.64-1.08-2.58-.32-1.08-.42-1.63-.64-3.63-.26.01-.39.03-.6.06v-.93c-.17-.01-.25-.01-.55-.01v9.63ZM119.28,152.31c.33,2.5.53,3.25,1.22,4.71.66-1.33,1-2.56,1.33-4.71h-2.55Z"/>
        <path d="M131.13,156.39c.52,0,.83-.01,1.18-.06-.04.34-.04.4-.06.75-.08,1.92-.39,3.61-.86,4.51-.36.71-.99.96-2.37.96-.66,0-1.37-.03-2.27-.12-.07-.66-.17-1.02-.39-1.65,1.11.19,1.91.27,2.68.27.56,0,.79-.09.93-.36.28-.57.46-1.47.57-2.92h-3.97c-.41,0-.71.02-1.07.04.38-1.46.63-3.16.68-4.57.34.03.63.04,1.14.04h3.21v-1.75h-3.39c-.54,0-1.04.03-1.52.09v-1.61c.48.06.95.09,1.54.09h3.6c.57,0,1.05-.02,1.41-.06-.03.38-.04.69-.04,1.17v2.36c0,.48.02.76.04,1.12-.4-.03-.82-.04-1.29-.04h-3.21c-.11.67-.18,1.15-.32,1.74h3.75ZM136.89,149.75c-.08.54-.09.85-.09,1.6v9.57c0,.85.01,1.26.09,1.84h-1.82c.08-.63.09-1.02.09-1.84v-9.57c0-.75-.02-1.02-.09-1.6h1.82Z"/>
        <path d="M145.25,158.39c-.57.51-.92.75-1.75,1.23-.18-.31-.24-.42-.56-.76-.9.54-1.47.84-2.86,1.51-.02.02-.09.05-.2.11l-.13.08-.36-1.68c.38-.09.88-.27,1.62-.59v-3.79h-.42c-.42,0-.74.01-1.11.07v-1.53c.33.04.66.06,1.12.06h.41v-1.79c0-.75-.03-1.18-.09-1.6h1.68c-.08.46-.09.85-.09,1.6v1.79h.27c.46,0,.74-.01,1-.04v1.49c-.31-.03-.6-.04-1-.04h-.27v3.09c.33-.18.5-.27.97-.54v1c.78-.48,1.28-.92,1.71-1.47h-.33c-.6,0-1,.03-1.32.07v-1.44c.31.06.67.08,1.33.08h6.3c.69,0,1.14-.03,1.5-.08v1.42c-.44-.04-.84-.06-1.49-.06h-4.41c-.12.21-.19.33-.39.6h4.58c.7,0,.96-.01,1.41-.04-.03.24-.04.45-.06.85-.08,1.77-.29,3.25-.58,3.9-.3.66-.76.85-2.03.85-.36,0-.63-.01-1.21-.04-.06-.52-.17-.92-.39-1.32-.76.67-1.38,1.08-2.37,1.57-.33-.46-.55-.72-1.04-1.09,1.25-.54,1.86-.9,2.62-1.54.58-.51,1.05-1.11,1.49-1.92h-.86c-.9,1.35-2.13,2.31-4,3.15-.24-.45-.45-.69-.9-1.08,1.63-.63,2.58-1.2,3.33-2.07h-1.12ZM145.68,154.67c-.58,0-1.02.01-1.32.04.05-.41.06-.79.06-1.38v-2.1c0-.6-.01-.87-.06-1.31.45.06.77.08,1.46.08h4.2c.75,0,1.09-.01,1.54-.08-.04.38-.06.69-.06,1.42v2c0,.62.01,1.07.06,1.35-.34-.02-.71-.03-1.3-.03h-4.58ZM145.91,151.88h4.08v-.62h-4.08v.62ZM145.91,153.51h4.08v-.58h-4.08v.58ZM150.29,158.39c-.55,1.2-1.12,2.01-2.01,2.82.62.09,1.07.12,1.49.12.52,0,.67-.15.81-.76.11-.51.18-1.14.25-2.17h-.54Z"/>
        <path d="M158.36,156.18v7.02h-4.78v-1.63h3.01v-5.38h1.77Z"/>
        <path d="M164.93,155.48c-.12.03-.18.06-.27.11-.08.04-.12.06-.18.06-.33,0-.57-.57-.75-1.68h.29c.63,0,2.24-.2,3.2-.39.31-1.31.48-2.31.48-3.02,0-.06,0-.15-.01-.25.64.06,1.26.2,1.68.38.24.09.36.21.36.36,0,.08-.02.13-.09.25q-.23.39-.69,2.04c.36-.04.76-.08,1.02-.08.62,0,1.1.12,1.44.36.6.43.9,1.32.9,2.68,0,2.24-.41,4.16-1.1,5.1-.48.66-1.11.98-2,.98-.54,0-1.05-.08-1.2-.17q-.12-.08-.17-.63c-.04-.41-.13-.77-.32-1.19.78.27.98.32,1.46.32.72,0,1.02-.35,1.35-1.56.23-.79.35-1.81.35-2.92,0-1.17-.29-1.59-1.08-1.59-.27,0-.71.04-1.05.09-.04.18-.06.2-.12.39-.42,1.54-1.19,3.55-1.95,5.17-.79,1.63-.99,1.96-1.18,1.96-.12,0-.53-.21-.96-.5-.35-.21-.44-.3-.44-.42q0-.08.62-1.05c.83-1.28,1.91-3.77,2.28-5.25-1.11.25-1.73.39-1.86.43ZM174.35,152.41c-.24.18-.41.25-.48.25-.04,0-.09-.03-.13-.11-.32-.51-.84-1.09-1.28-1.47-.03-.03-.04-.06-.04-.09,0-.06.11-.17.36-.36.25-.18.33-.22.43-.22.24,0,1.56,1.33,1.56,1.58,0,.09-.12.19-.42.42ZM172.76,154c0-.11.13-.24.57-.58.3-.23.45-.32.57-.32.2,0,.87.72,1.5,1.61.52.75,1.09,1.81,1.09,2.07,0,.15-.04.2-.52.58-.3.24-.65.44-.77.44-.1,0-.15-.04-.25-.3-.29-.72-.54-1.21-.95-1.86-.4-.65-.43-.67-1.15-1.46-.06-.08-.09-.12-.09-.18ZM174.73,149.39c.25,0,1.53,1.28,1.53,1.53,0,.08-.09.17-.39.38-.27.21-.41.29-.46.29q-.08,0-.38-.42c-.25-.34-.74-.86-1-1.08-.04-.04-.08-.08-.08-.12,0-.12.62-.57.78-.57Z"/>
        <path d="M182.18,153.25c-.69.04-1.33.06-1.91.06-.63,0-.67,0-.71-.09-.04-.09-.09-.72-.09-1.16v-.28c.71.03,1,.04,1.38.04s.95-.02,1.4-.03c.08-.87.09-1.17.09-1.47,0-.14,0-.23-.01-.44.72.02,1.27.06,1.71.17.12.03.18.09.18.2,0,.08-.02.13-.09.31-.12.29-.21.68-.27,1.14.96-.08,2.12-.23,2.58-.33.45-.11.76-.17.84-.17.32-.03.54-.09.63-.17.02-.01.03-.01.03-.01.03,0,.04.01.08.01.06,0,.1.06.13.17.03.22.08.75.08,1.08,0,.22-.04.29-.2.31-.88.18-2.71.41-4.29.54-.01.06-.01.09-.01.24-.03.29-.03.32-.04,1.06.66-.15,1.25-.22,1.98-.22.11-.48.12-.6.15-.95,1.16.24,1.72.45,1.72.63,0,.06-.01.1-.13.3-.04.06-.08.1-.11.21,1.94.45,3.17,1.88,3.17,3.72,0,1.63-.88,2.94-2.58,3.84-.63.33-1.51.63-1.84.63-.17,0-.29-.06-.38-.18-.31-.45-.51-.66-.99-1.07,1.56-.29,2.32-.6,3.07-1.21.69-.58,1.02-1.26,1.02-2.1,0-1.2-.71-2.1-1.91-2.45-.9,2.07-1.5,3.04-2.58,4.16.08.25.13.4.27.72.06.12.07.17.07.21,0,.15-.06.2-.4.38-.38.2-.81.34-.96.34-.13,0-.17-.04-.33-.51-.87.62-1.8.95-2.71.95-1.02,0-1.71-.83-1.71-2.03,0-1.88,1.37-3.71,3.63-4.83.01-.78.03-1.44.04-1.74ZM180.07,159.54c0,.38.23.6.6.6.51,0,1.18-.29,1.86-.78-.21-1.02-.3-1.71-.38-2.83-1.32.98-2.08,2.1-2.08,3.02ZM185.32,155.4c-.67.06-1.04.12-1.65.33.03,1.07.06,1.52.18,2.28.63-.79,1.05-1.54,1.47-2.61Z"/>
        <path d="M200.57,154.85c2.12,0,3.62,1.44,3.62,3.48,0,1.39-.74,2.65-1.96,3.39-.86.51-1.91.76-3.09.76-1.91,0-3.02-.76-3.02-2.07,0-1.19.99-2.03,2.4-2.03,1.27,0,2.19.64,2.8,1.96.76-.55,1.08-1.14,1.08-1.95,0-1.29-.92-2.13-2.36-2.13s-3.04.74-4.35,2.04c-.24.24-.46.5-.73.84-.11.15-.18.21-.27.21-.27,0-1.33-1.05-1.33-1.32,0-.13.06-.21.39-.45.34-.27.84-.71,1.47-1.3,1.46-1.38,2.52-2.54,4.09-4.46-1.88.24-3.13.45-3.6.62-.08.01-.12.03-.17.03-.12,0-.2-.07-.29-.3-.18-.45-.27-.94-.32-1.6.41.06.69.08,1.02.08.72,0,1.93-.11,3.51-.29.55-.06.73-.11,1.15-.27.14-.06.21-.08.3-.08.21,0,.42.18.81.78.29.39.38.58.38.71,0,.2-.04.25-.38.46-.27.17-.43.3-.78.63-.75.72-.76.72-1.69,1.67-.66.67-.74.75-1.33,1.35.97-.54,1.74-.77,2.64-.77ZM199.13,160.04c-.23-.15-.48-.23-.77-.23-.46,0-.76.23-.76.58,0,.44.46.71,1.18.71.33,0,.62-.03.99-.13-.18-.5-.33-.72-.64-.93Z"/>
        <path d="M212.72,159.2c-.72,1.25-1.71,1.94-2.73,1.94-1.56,0-2.67-1.53-2.67-3.66,0-2.37,1.2-4.41,3.25-5.49,1-.54,2.08-.78,3.51-.78,3.14,0,5.46,2.22,5.46,5.19,0,2.62-1.29,4.51-3.78,5.58-.5.21-.89.33-1.08.33-.18,0-.25-.06-.45-.34-.25-.39-.54-.68-.95-.95,3.09-.79,4.49-2.25,4.49-4.68,0-1.25-.53-2.29-1.46-2.96-.53-.36-.95-.51-1.77-.64-.42,3.16-.92,4.89-1.83,6.46ZM210.56,153.89c-1,.88-1.58,2.15-1.58,3.55,0,1.16.38,1.83,1,1.83.75,0,1.52-1.04,2.08-2.82.36-1.12.54-1.98.77-3.65-1.07.23-1.59.48-2.28,1.08Z"/>
        <path d="M228.46,154.87c.03,1.12.06,1.71.21,3.21,1.26.41,1.86.66,2.75,1.14,1.18.67,1.79,1.12,1.79,1.33,0,.18-.2.52-.54,1.02-.22.33-.39.48-.51.48-.08,0-.14-.03-.24-.14-1.07-1.02-1.92-1.57-3.18-2.08-.03.91-.2,1.39-.63,1.84-.53.52-1.44.81-2.62.81-1.96,0-3.17-.87-3.17-2.29,0-1.51,1.32-2.47,3.38-2.47.5,0,.93.03,1.3.08-.15-2.46-.2-3.65-.21-5.85-.01-.87-.04-1.39-.13-2.1.69.02,1.38.09,1.79.2.24.08.33.15.33.31,0,.08-.01.12-.06.24-.17.39-.22.96-.25,2.62q.12,0,.58-.03c.72-.04,1.74-.22,2.88-.54.04-.01.08-.01.12-.01.09,0,.12.03.18.18.15.36.32,1.1.32,1.35,0,.12-.06.17-.2.21-1.16.27-2.78.5-3.66.5h-.21ZM225.52,159.18c-1.02,0-1.63.34-1.63.92,0,.53.51.79,1.46.79,1.15,0,1.66-.41,1.66-1.35v-.12c-.49-.18-.92-.24-1.48-.24Z"/>
        <path d="M243.58,161.31c0,.66-.53,1.18-1.18,1.18s-1.19-.52-1.19-1.18.53-1.18,1.19-1.18,1.18.52,1.18,1.18ZM243.05,159.09h-1.33l-.41-8.98h2.16l-.42,8.98Z"/>
      </g>
      <path class="cls-8" d="M329.77,1.42H90.4c-4.68,0-8.47,3.79-8.47,8.47v43.9s-9.69,9.69-9.69,9.69h9.69s0,.5,0,.5c0,4.68,3.79,8.47,8.47,8.47h239.38c4.68,0,8.47-3.79,8.47-8.47V9.89c0-4.68-3.79-8.47-8.47-8.47Z"/>
      <g>
        <path d="M104.5,23.55h2.13c.68,0,1.1-.03,1.54-.09v1.63c-.48-.04-.93-.07-1.56-.07h-1.62c.86,1.5,2.1,2.74,3.58,3.58-.48.48-.69.78-.99,1.5-.61-.43-1.05-.85-1.62-1.5-.74-.85-1.05-1.32-1.53-2.22.03.54.04,1,.04,1.44v1.81c0,.67.03,1.2.09,1.67h-1.67c.06-.46.09-1,.09-1.68v-1.71c0-.4.02-.88.04-1.48-.91,1.65-1.93,2.76-3.39,3.73-.38-.71-.58-1-.9-1.36,1.54-.89,2.8-2.17,3.67-3.78h-.95c-.64,0-1.11.03-1.58.09v-.6c-.25.36-.43.69-.61,1.22-.38-.59-.6-1.05-.89-1.8.03.47.06,1.27.06,1.91v3.69c0,.77.03,1.32.09,1.77h-1.67c.06-.46.09-1.02.09-1.77v-3.1c0-.57.02-.93.11-1.86-.44,1.46-.87,2.43-1.52,3.41-.18-.68-.37-1.11-.67-1.6.72-.92,1.47-2.61,1.92-4.35h-.57c-.44,0-.69.02-.96.06v-1.53c.24.04.51.06.96.06h.72v-1.16c0-.76-.01-1.14-.08-1.5h1.65c-.06.39-.08.8-.08,1.5v1.16h.43c.36,0,.54-.02.78-.06v1.42c.57-1.02,1.05-2.52,1.09-3.49l1.46.38c-.06.17-.1.34-.21.79-.08.27-.1.4-.18.69h1.15v-.99c0-.61-.03-.99-.09-1.36h1.68c-.06.36-.09.77-.09,1.36v.99h1.7c.72,0,1.14-.03,1.54-.09v1.58c-.42-.04-.9-.08-1.54-.08h-1.7v1.81ZM101.37,21.74c-.25.62-.39.9-.81,1.6q-.36-.38-1.17-.94c.12-.17.17-.24.24-.35-.2-.03-.44-.04-.71-.04h-.38c.34.79.71,1.4,1.36,2.28v-.82c.45.06.87.09,1.56.09h1.53v-1.81h-1.63Z"/>
        <path d="M113.13,23.52c1.89-.52,3.25-.77,4.27-.77,2.12,0,3.42,1.16,3.42,3.03,0,1.12-.46,2.12-1.35,2.87-.58.49-1.46.92-2.61,1.26-.64.18-1.33.31-1.63.31-.18,0-.27-.04-.33-.19-.21-.52-.45-.9-.76-1.21,3.3-.35,4.98-1.4,4.98-3.1,0-.87-.72-1.54-1.65-1.54-1.62,0-3.39.54-5.25,1.57-.15.08-.24.12-.3.12-.25,0-.67-.75-1.02-1.83.74-.1.99-.17,2.24-.51Z"/>
        <path d="M126.6,22.1c-.39.09-.53.13-1.07.33-.19.08-.3.1-.39.1-.33,0-.63-.61-.9-1.9.96-.04,1.31-.09,2.97-.34,1.8-.27,4.08-.62,5.28-.77,1.35-.18,2.43-.36,3-.48.1-.03.15-.03.22-.03.2,0,.27.09.41.46.12.31.21.76.21.97,0,.18-.06.24-.27.24-.32,0-.6.03-.89.08-2.53.42-4.56,2.64-4.56,4.98,0,1.75,1.38,2.91,3.72,3.12.21.01.29.09.29.27,0,.38-.15,1.09-.29,1.42-.08.17-.19.24-.39.24s-.65-.09-1.11-.22c-2.55-.75-3.88-2.37-3.88-4.67,0-1.25.41-2.4,1.19-3.39.42-.54.78-.84,1.63-1.43-1.96.33-4.04.72-5.17,1.01Z"/>
        <path d="M142.96,23c-.19-.66-.25-1.06-.43-2.91-.06-.72-.12-1.08-.27-1.59.91.02,1.5.06,1.9.17.23.06.33.17.33.33,0,.06-.01.13-.04.25-.1.36-.15.63-.15,1.02,0,.73.15,1.94.32,2.46.09.28.18.39.34.39.36,0,1.68-.69,2.4-1.24.19-.15.22-.17.3-.17.13,0,.27.1.5.39.38.51.67,1.06.67,1.27,0,.17-.11.27-.36.34-.93.25-2.46.85-3.49,1.35-1.83.9-2.66,1.73-2.66,2.65s.76,1.29,2.7,1.29c1.12,0,2.14-.1,3.52-.33.06-.02.17-.03.2-.03.12,0,.19.06.25.18.04.15.15,1.06.15,1.43,0,.21-.06.28-.26.34-.33.08-2.14.18-3.28.18-1.92,0-3.2-.25-3.99-.79-.67-.47-1.04-1.2-1.04-2.1,0-.69.2-1.31.6-1.9.52-.78,1.09-1.27,2.35-2.02-.31-.29-.43-.5-.57-.96ZM148.41,19.64c.12-.09.2-.12.29-.12.21,0,1.51,1.38,1.51,1.6,0,.09-.12.23-.41.46-.3.25-.33.27-.4.27-.09,0-.11,0-.39-.42-.3-.42-.72-.9-1.04-1.17-.04-.04-.07-.09-.07-.14,0-.07.13-.21.51-.49ZM151.66,20.04c0,.09-.04.15-.23.3-.21.18-.49.38-.55.38-.09,0-.12-.04-.3-.28-.34-.5-.55-.73-1.09-1.23-.06-.06-.08-.09-.08-.14,0-.13.57-.57.75-.57.25,0,1.5,1.27,1.5,1.54Z"/>
        <path d="M160.02,28.32c1.23,0,2.59-.18,3.94-.52.08-.03.12-.03.17-.03.09,0,.13.06.17.2.04.33.08.81.08,1.3,0,.3-.03.39-.17.45-.45.24-2.47.46-4.21.46-2.26,0-3.55-.38-4.59-1.35-.5-.46-.99-1.27-.99-1.6,0-.22.13-.31,1.37-1.02.54,1.49,1.79,2.12,4.25,2.12ZM160.15,19.7c.87,0,1.38-.03,2.4-.18h.11c.12,0,.17.04.2.13.03.18.06.63.06,1.17,0,.35-.03.47-.12.53-.12.07-1.42.17-2.43.17-1.33,0-2.45-.11-3.69-.35-.85-.17-.9-.21-.9-.73,0-.35.03-.92.08-1.33,1.3.4,2.73.6,4.3.6Z"/>
        <path d="M169.98,22.1c-.39.09-.53.13-1.07.33-.19.08-.3.1-.39.1-.33,0-.63-.61-.9-1.9.96-.04,1.31-.09,2.97-.34,1.8-.27,4.08-.62,5.28-.77,1.35-.18,2.43-.36,3-.48.1-.03.15-.03.22-.03.2,0,.27.09.41.46.12.31.21.76.21.97,0,.18-.06.24-.27.24-.32,0-.6.03-.89.08-2.53.42-4.56,2.64-4.56,4.98,0,1.75,1.38,2.91,3.72,3.12.21.01.29.09.29.27,0,.38-.15,1.09-.29,1.42-.08.17-.19.24-.39.24s-.65-.09-1.11-.22c-2.55-.75-3.88-2.37-3.88-4.67,0-1.25.41-2.4,1.19-3.39.42-.54.78-.84,1.63-1.43-1.96.33-4.04.72-5.17,1.01ZM177.66,22.49c.21,0,1.48,1.43,1.48,1.65,0,.08-.09.17-.36.41-.29.24-.3.24-.42.28q-.08.03-.11.03c-.06,0-.08-.02-.34-.44-.24-.38-.5-.71-.97-1.2-.03-.03-.08-.1-.08-.12.03-.08.04-.12.06-.12.04-.06.3-.27.36-.31.15-.08.24-.14.25-.15.01-.03.04-.03.04-.03h.08ZM180.22,23.52c-.22.17-.36.25-.43.25-.06,0-.09-.03-.17-.15-.45-.67-.67-.96-1.16-1.42-.03-.05-.06-.09-.06-.12,0-.08.09-.17.3-.31s.39-.24.46-.24c.11,0,.29.14.6.45.44.45.84,1,.84,1.14,0,.09-.11.2-.39.41Z"/>
        <path d="M184.75,28.86c-.6,0-1.05.01-1.54.06.04-.41.06-.9.06-1.7v-3.31c0-.71-.02-1.19-.06-1.62.45.03.77.04,1.5.04h7.3c.84,0,1.17-.02,1.59-.04-.04.46-.06.87-.06,1.63v3.35c0,.79.01,1.32.06,1.65-.46-.05-.92-.06-1.53-.06h-1.07c1.02.57,2.37.93,4.12,1.12-.33.43-.51.75-.78,1.41-1.29-.19-1.92-.36-2.83-.72-.87-.36-1.35-.6-2.11-1.11l.85-.71h-4.03l.9.71c-.71.52-1.16.78-1.96,1.11-.92.38-1.54.55-2.64.76-.18-.51-.41-.84-.87-1.32,1.84-.29,3.13-.71,3.94-1.26h-.84ZM194.41,20.67c0,.54.01.81.06,1.16-.36-.03-.72-.05-1.48-.05h-9.2c-.72,0-1.18.02-1.5.05.04-.36.06-.62.06-1.16v-1.12c0-.55-.02-.81-.06-1.21.41.04.81.06,1.62.06h8.94c.81,0,1.22-.02,1.62-.06-.04.39-.06.66-.06,1.21v1.12ZM185.83,19.63h-2v.93h2v-.93ZM184.83,24.17h7.16v-.63h-7.16v.63ZM184.83,25.88h7.16v-.62h-7.16v.62ZM184.83,27.65h7.16v-.68h-7.16v.68ZM189.28,19.63h-2v.93h2v-.93ZM192.88,20.56v-.93h-2.14v.93h2.14Z"/>
        <path d="M202.18,25.82c.34-.1.6-.15.85-.15,1.04,0,1.51.61,1.71,2.16.1.89.15,1.05.36,1.23.18.18.46.24.99.24.71,0,1.05-.06,2.28-.39.04-.02.08-.02.1-.02.09,0,.14.03.2.14.11.24.23,1.03.23,1.47,0,.14-.03.19-.17.23-.41.1-1.83.23-2.7.23-1.3,0-2-.24-2.4-.85-.25-.41-.38-.85-.46-1.79-.1-1.15-.29-1.44-.88-1.44-.54,0-.96.27-1.84,1.15-.86.85-1.59,1.76-2.08,2.54-.09.15-.2.24-.29.24-.1,0-.21-.09-.67-.58-.45-.49-.62-.69-.62-.78,0-.1.03-.13.3-.38q.36-.3,5.94-6.24c-2.42.44-3.95.75-4.3.88-.17.06-.23.08-.3.08-.13,0-.17-.04-.25-.34-.15-.5-.22-.89-.29-1.49.32.02.42.02.53.02.66,0,2.5-.18,4.17-.42,1.26-.17,1.46-.21,1.79-.38.09-.04.18-.08.24-.08.38,0,1.23.98,1.23,1.41,0,.18-.06.25-.25.36-.23.09-.54.3-.81.52-.15.12-.6.54-.81.74l-1.77,1.69ZM200.4,18.32c.06-.18.1-.25.18-.24s.12.02.15.03c.61.21,1.18.35,1.83.47.93.18,1.06.19,2.67.27.18.01.2.06.2.42,0,.45-.06,1-.13,1.12-.04.09-.11.13-.18.13s-1.7-.18-1.94-.21c-1.08-.17-2.02-.39-2.86-.69-.14-.06-.18-.1-.18-.21,0-.14.11-.58.27-1.1Z"/>
        <path d="M218.88,23.25c2.12,0,3.62,1.44,3.62,3.48,0,1.39-.74,2.65-1.96,3.39-.86.51-1.91.77-3.09.77-1.91,0-3.02-.77-3.02-2.07,0-1.19.99-2.02,2.4-2.02,1.27,0,2.19.64,2.8,1.96.76-.56,1.08-1.14,1.08-1.95,0-1.29-.92-2.13-2.36-2.13s-3.04.73-4.35,2.04c-.24.24-.46.5-.73.84-.11.15-.18.21-.27.21-.27,0-1.33-1.05-1.33-1.32,0-.13.06-.21.39-.45.34-.27.84-.7,1.47-1.3,1.46-1.38,2.52-2.54,4.09-4.46-1.88.24-3.13.45-3.6.62-.08.02-.12.03-.17.03-.12,0-.2-.07-.29-.3-.18-.45-.27-.94-.32-1.6.41.06.69.08,1.02.08.72,0,1.93-.1,3.51-.29.55-.06.73-.1,1.15-.27.14-.06.21-.08.3-.08.21,0,.42.18.81.78.29.39.38.58.38.71,0,.19-.04.25-.38.46-.27.17-.43.3-.78.63-.75.72-.76.72-1.69,1.67-.66.67-.74.75-1.33,1.35.97-.54,1.74-.77,2.64-.77ZM217.44,28.44c-.23-.15-.48-.23-.77-.23-.46,0-.76.23-.76.58,0,.44.46.71,1.18.71.33,0,.62-.03.99-.14-.18-.5-.33-.72-.64-.93Z"/>
        <path d="M231.03,27.6c-.72,1.25-1.71,1.94-2.73,1.94-1.56,0-2.67-1.53-2.67-3.66,0-2.37,1.2-4.41,3.25-5.49,1-.54,2.08-.78,3.51-.78,3.14,0,5.46,2.22,5.46,5.19,0,2.62-1.29,4.51-3.78,5.58-.5.21-.89.33-1.08.33-.18,0-.25-.06-.45-.34-.25-.39-.54-.68-.95-.95,3.09-.79,4.49-2.25,4.49-4.68,0-1.25-.53-2.29-1.46-2.96-.53-.36-.95-.51-1.77-.64-.42,3.16-.92,4.89-1.83,6.46ZM228.87,22.29c-1,.88-1.58,2.15-1.58,3.55,0,1.16.38,1.83,1,1.83.75,0,1.52-1.04,2.08-2.82.36-1.12.54-1.98.77-3.65-1.07.23-1.59.48-2.28,1.08Z"/>
        <path d="M241.29,23.55c-.12.03-.18.06-.27.1-.08.04-.12.06-.2.06-.32,0-.55-.58-.74-1.69.12.02.23.02.29.02.63,0,2.24-.2,3.2-.39.31-1.32.48-2.31.48-3.03,0-.06,0-.14-.01-.25.64.07,1.26.21,1.68.38.24.09.36.22.36.38,0,.07-.02.12-.09.24q-.23.4-.69,2.05c.36-.04.76-.07,1.02-.07.62,0,1.1.12,1.44.36.6.44.9,1.32.9,2.69,0,2.23-.41,4.14-1.1,5.08-.48.66-1.11.98-1.99.98-.54,0-1.05-.07-1.2-.17q-.12-.07-.17-.63c-.04-.4-.13-.75-.32-1.17.78.25.98.3,1.46.3.72,0,1.02-.34,1.35-1.54.23-.79.35-1.83.35-2.92,0-1.17-.29-1.59-1.08-1.59-.27,0-.71.03-1.05.09-.04.17-.06.18-.12.39-.42,1.53-1.19,3.55-1.95,5.17-.79,1.63-.99,1.96-1.18,1.96-.12,0-.53-.21-.96-.5-.35-.21-.44-.3-.44-.42q0-.07.62-1.05c.83-1.27,1.91-3.78,2.28-5.25-1.11.24-1.73.39-1.86.44ZM248.94,21.88c0-.1.14-.24.57-.58.3-.23.45-.31.55-.31.09,0,.17.04.36.24.88.85,1.71,2,2.19,2.98.15.33.24.54.24.63,0,.15-.04.2-.52.58-.3.24-.65.44-.77.44-.1,0-.15-.04-.25-.3-.3-.73-.58-1.31-.94-1.86-.39-.6-.47-.69-1.35-1.64-.06-.09-.08-.13-.08-.18Z"/>
        <path d="M255.88,22.43c-.27.02-.43.03-.61.05-.14.01-.15.01-.17.01-.12,0-.18-.04-.23-.19-.08-.24-.18-1.04-.19-1.48.17.01.6.03,1.14.03.17,0,1.35-.07,1.88-.12.25-1.21.34-1.84.34-2.65,1.54.21,2.1.39,2.1.68,0,.1-.01.13-.24.48-.12.18-.17.34-.42,1.27.7-.12,1.12-.23,1.68-.41.1-.03.15-.04.22-.04.11,0,.13.08.23.51.07.38.12.69.12.85,0,.18-.04.21-.43.3-.51.12-1.38.27-2.31.39-.56,1.68-.93,2.58-1.62,3.99-.53,1.05-.83,1.6-1.23,2.23-.12.18-.19.24-.3.24-.15,0-.57-.22-1.09-.61-.24-.17-.3-.24-.3-.35s.06-.19.25-.46c.43-.54,1-1.47,1.5-2.46.42-.82.57-1.17,1-2.35-.58.04-.63.06-1.32.1ZM260.82,31.07c-1.64,0-2.75-.9-2.75-2.23s1.15-2.41,2.7-2.41c.36,0,.53.01,1.14.1-.06-.72-.06-1.01-.12-2.4,0-.29-.03-.68-.06-1.16.77.08,1.35.17,1.64.29.12.04.18.12.18.24,0,.08-.01.14-.03.24-.08.31-.09.54-.09.94,0,.56.04,1.5.09,2.23,1.07.48,1.5.72,2.25,1.31.33.25.45.39.45.51,0,.15-.08.29-.5.96-.18.3-.31.44-.42.44q-.09,0-.51-.39c-.33-.33-.71-.58-1.23-.9,0,1.4-1.02,2.23-2.74,2.23ZM260.79,27.86c-.72,0-1.21.34-1.21.87,0,.5.45.81,1.12.81.79,0,1.21-.4,1.21-1.2,0-.12,0-.24-.02-.24-.3-.15-.7-.24-1.11-.24ZM266.4,23.6c-.18.26-.27.33-.38.33-.08,0-.13-.03-.24-.13-.38-.36-.9-.75-1.46-1.1q-.36-.22-1.02-.52c-.21-.09-.29-.15-.29-.27,0-.1.08-.24.3-.58.36-.52.45-.61.58-.61.28,0,1.39.57,2.19,1.11.65.44.84.61.84.78,0,.12-.24.57-.54,1Z"/>
        <path d="M271.33,20.98c.34-.9.67-1.38,1.25-1.86.69-.57,1.51-.84,2.56-.84,2.25,0,3.69,1.23,3.69,3.15,0,.65-.18,1.26-.53,1.75-.27.39-.39.51-1.23,1.27-1.17,1.05-1.42,1.46-1.42,2.25v.79h-1.53v-.84c0-.67.13-1.27.41-1.75.21-.38.43-.63,1.03-1.23.63-.61.83-.84.99-1.11.21-.3.33-.72.33-1.12,0-1-.67-1.63-1.74-1.63s-1.69.55-2.14,1.86l-1.67-.69ZM276.12,29.72c0,.66-.53,1.18-1.19,1.18s-1.18-.52-1.18-1.18.52-1.19,1.18-1.19,1.19.52,1.19,1.19Z"/>
        <path d="M293.89,27.41c.96.87,1.54,1.5,1.54,1.67,0,.13-.2.38-.66.82-.34.33-.5.44-.6.44-.06,0-.13-.03-.22-.1q-.17-.19-.86-.98c-.83-.93-1.95-1.92-3.25-2.85-.99,1.03-2.33,2.16-3.4,2.9-.86.58-1.67,1.03-1.85,1.03-.15,0-.17-.02-.52-.42-.21-.24-.56-.54-.93-.81,1.73-.79,3-1.65,4.42-2.95,1.54-1.41,2.57-2.71,3.77-4.79q-5.07.03-5.9.12c-.18.02-.21.02-.24.02-.17,0-.25-.08-.29-.24-.08-.48-.11-.93-.11-1.72,1.02.13,2.61.19,4.79.19.88,0,1.81-.03,2.31-.09.2-.02.23-.03.54-.14.06-.03.09-.03.18-.03.25,0,.52.21.88.69.29.4.45.72.45.88,0,.18-.05.24-.44.6-.24.24-.34.36-.81,1.12-.45.75-1.14,1.69-1.71,2.38,1.17.78,1.96,1.38,2.89,2.25Z"/>
        <path d="M303.51,23.72c2.75,0,4.32-.03,5.83-.13h.2c.45,0,.45.01.45,1.21,0,.61-.04.72-.3.72h-.06c-.99-.04-1.54-.04-5.88-.04-1.59,0-2.38.02-3.76.06h-.44c-.48,0-.55.02-.84.06-.08,0-.13.02-.17.02-.17,0-.27-.08-.3-.21-.09-.38-.15-1.14-.15-1.83,1.21.12,2.28.15,5.42.15Z"/>
        <path d="M100.32,47.67c0,.06-.03.14-.1.27-.17.27-.23.5-.42,1.35-.48,2.11-1.26,3.94-2.28,5.34-.44.6-.75.92-.93.92-.06,0-.12-.03-.23-.09-.5-.27-.92-.45-1.5-.58,1.38-1.2,2.43-3.12,2.99-5.43.18-.79.29-1.54.29-2.22v-.26c1.3.14,2.19.42,2.19.71ZM105.94,55.17c-.78-2.75-1.91-5.29-3.13-7.12-.18-.25-.2-.3-.2-.38,0-.12.13-.23.57-.48.45-.28.69-.39.82-.39.17,0,.21.06.78.94.67,1.05,1.33,2.38,2.12,4.32.52,1.29.84,2.26.84,2.53,0,.18-.08.24-.45.42-.36.18-.96.39-1.09.39-.12,0-.21-.09-.25-.24ZM108.18,46.02c0,.9-.71,1.6-1.6,1.6s-1.61-.71-1.61-1.6.71-1.6,1.61-1.6,1.6.71,1.6,1.6ZM105.78,46.02c0,.44.36.79.79.79s.79-.36.79-.79-.36-.79-.79-.79-.79.36-.79.79Z"/>
        <path d="M115.53,49.97c2.75,0,4.32-.03,5.83-.13h.2c.45,0,.45.01.45,1.21,0,.61-.04.72-.3.72h-.06c-.99-.04-1.54-.04-5.88-.04-1.59,0-2.38.02-3.76.06h-.44c-.48,0-.55.02-.84.06-.08,0-.13.02-.17.02-.17,0-.27-.08-.3-.21-.09-.38-.15-1.14-.15-1.83,1.21.12,2.28.15,5.42.15Z"/>
        <path d="M126.73,47.23c.34-.9.67-1.38,1.25-1.86.69-.57,1.51-.84,2.56-.84,2.25,0,3.69,1.23,3.69,3.15,0,.65-.18,1.26-.53,1.75-.27.39-.39.51-1.23,1.27-1.17,1.05-1.42,1.46-1.42,2.25v.79h-1.53v-.84c0-.67.13-1.27.41-1.75.21-.38.43-.63,1.03-1.23.63-.61.83-.84.99-1.11.21-.3.33-.72.33-1.12,0-1-.67-1.63-1.74-1.63s-1.69.55-2.14,1.86l-1.67-.69ZM131.52,55.97c0,.66-.53,1.18-1.19,1.18s-1.18-.52-1.18-1.18.52-1.19,1.18-1.19,1.19.52,1.19,1.19Z"/>
        <path d="M148.05,48.25h-1.38c-2.75,0-5.53.09-5.91.18-.08.02-.12.03-.14.03l-.07-.02-.06.02c-.17-.05-.17-.06-.2-.18-.07-.36-.1-.77-.16-1.86.88.1,1.96.15,4.02.15,3.93,0,4.25,0,5.73-.08-.04,1.46-.04,2.29-.04,4.77,0,.87.04,3.51.08,4.03.01.23.01.24.01.31,0,.2-.04.32-.15.36-.09.03-.77.09-1.16.09q-.6,0-.6-.36,0-.06.01-.66h-1.49c-1.65,0-4.65.06-5.23.09-.36.03-.57.05-.86.09-.04.01-.09.01-.13.01-.17,0-.22-.06-.27-.37-.06-.29-.11-.84-.15-1.64,1,.09,2,.12,4.37.12q1.59,0,3.78-.02v-5.08Z"/>
        <path d="M165.21,48.74c.08.15.1.25.1.35,0,.15-.06.25-.25.52-.82,1.08-1.71,1.95-3.04,2.98-1.5,1.17-2.77,1.95-4.57,2.8-1.16.54-1.21.57-1.4.74-.12.12-.18.15-.27.15-.13,0-.25-.12-.48-.45-.3-.45-.58-1.06-.75-1.59,1.52-.34,3.33-1.15,5.08-2.26,2.31-1.46,3.76-2.9,4.89-4.86.17.55.3.85.69,1.62ZM155.22,46.22c.25-.29.36-.36.49-.36.29.02,1.41.73,2.34,1.48.57.47.75.66.75.81,0,.1-.27.51-.63.92-.33.38-.49.51-.61.51q-.11,0-.72-.58c-.39-.38-1.17-1-1.56-1.24q-.53-.35-.63-.41c-.06-.04-.09-.09-.09-.13,0-.14.29-.56.66-.99Z"/>
        <path d="M171.52,54c.24.36.9.49,2.34.49s2.13-.06,4.23-.34c.04-.02.09-.02.13-.02.15,0,.23.08.26.24.04.24.12.99.12,1.25,0,.23-.07.33-.28.39-.47.1-2.57.23-4.28.23s-2.62-.12-3.33-.45c-.52-.25-.87-.67-.99-1.2-.08-.36-.11-.69-.11-1.29v-.58c.03-1.58.03-1.77.03-2.81,0-2.59-.04-3.54-.18-4.24,1.84.15,2.25.24,2.25.52,0,.08-.02.1-.09.27-.04.1-.09.3-.13.6-.06.45-.08.79-.08,1.59-.01.58-.01.99-.01,1.21,2.59-.76,4.71-1.81,5.58-2.77.73.92,1.17,1.6,1.17,1.81,0,.14-.06.18-.36.29-.21.07-.6.24-1.18.54-1.85.88-3.17,1.36-5.22,1.92,0,1.88.01,2.16.13,2.35ZM178.27,47.55c-.32-.6-.63-1-1.11-1.51q-.09-.1-.09-.15c0-.09.08-.18.34-.38.22-.17.34-.23.42-.23.12,0,.29.13.65.52.48.56.82,1.02.82,1.15,0,.15-.67.71-.87.71-.07,0-.1-.03-.16-.12ZM179.98,46.64c-.06,0-.09-.03-.15-.14-.41-.65-.66-.99-1.12-1.47-.06-.06-.08-.08-.08-.12,0-.12.58-.57.74-.57.13,0,.31.15.64.51.44.46.81.99.81,1.12,0,.15-.65.66-.84.66Z"/>
        <path d="M187.6,53.21c2.73,0,5.01-.04,6.09-.13.16-.02.27-.02.33-.02.09,0,.14.02.18.03.1.06.13.31.13,1.14,0,.77-.03.84-.29.84t-.25-.02c-.79-.08-1.71-.09-3.64-.09-4.14,0-6.11.04-7.02.18-.15.03-.21.03-.27.03-.34,0-.41-.27-.53-2.07,1.22.08,2.69.1,5.27.1ZM188.07,46.76c2.01,0,3.17-.04,4.02-.15.09-.02.11-.02.17-.02.17,0,.22.05.25.26.02.12.03.65.03,1.06,0,.51-.04.63-.24.63-.06,0-.13,0-.25-.02-.3-.02-2.49-.03-4.23-.03-1.16,0-1.94.01-2.76.07-.2.02-.44.03-.47.03-.18,0-.28-.08-.34-.23-.08-.21-.15-1.09-.15-1.8.91.13,1.87.18,3.97.18Z"/>
        <path d="M200.8,49.25c-.19-.66-.25-1.06-.43-2.91-.06-.72-.12-1.08-.27-1.59.91.02,1.5.06,1.9.17.23.06.33.17.33.33,0,.06-.01.13-.04.25-.1.36-.15.63-.15,1.02,0,.73.15,1.94.32,2.46.09.28.18.39.34.39.36,0,1.68-.69,2.4-1.24.19-.15.22-.17.3-.17.13,0,.27.1.5.39.38.51.67,1.06.67,1.27,0,.17-.11.27-.36.34-.93.25-2.46.85-3.49,1.35-1.83.9-2.66,1.73-2.66,2.65s.76,1.29,2.7,1.29c1.12,0,2.14-.1,3.52-.33.06-.02.17-.03.2-.03.12,0,.19.06.25.18.04.15.15,1.06.15,1.43,0,.21-.06.28-.26.34-.33.08-2.14.18-3.28.18-1.92,0-3.2-.25-3.99-.79-.67-.47-1.04-1.2-1.04-2.1,0-.69.2-1.31.6-1.9.52-.78,1.09-1.27,2.35-2.02-.31-.29-.43-.5-.57-.96Z"/>
        <path d="M212.37,49.8c-.12.03-.18.06-.27.1-.08.04-.12.06-.2.06-.32,0-.55-.58-.74-1.69.12.02.23.02.29.02.63,0,2.24-.2,3.2-.39.31-1.32.48-2.31.48-3.03,0-.06,0-.14-.01-.25.64.07,1.26.21,1.68.38.24.09.36.22.36.38,0,.07-.02.12-.09.24q-.23.4-.69,2.05c.36-.04.76-.07,1.02-.07.62,0,1.1.12,1.44.36.6.44.9,1.32.9,2.69,0,2.23-.41,4.14-1.1,5.08-.48.66-1.11.98-1.99.98-.54,0-1.05-.07-1.2-.17q-.12-.07-.17-.63c-.04-.4-.13-.75-.32-1.17.78.25.98.3,1.46.3.72,0,1.02-.34,1.35-1.54.23-.79.35-1.83.35-2.92,0-1.17-.29-1.59-1.08-1.59-.27,0-.71.03-1.05.09-.04.17-.06.18-.12.39-.42,1.53-1.19,3.55-1.95,5.17-.79,1.63-.99,1.96-1.18,1.96-.12,0-.53-.21-.96-.5-.35-.21-.44-.3-.44-.42q0-.07.62-1.05c.83-1.27,1.91-3.78,2.28-5.25-1.11.24-1.73.39-1.86.44ZM220.02,48.13c0-.1.14-.24.57-.58.3-.23.45-.31.55-.31.09,0,.17.04.36.24.88.85,1.71,2,2.19,2.98.15.33.24.54.24.63,0,.15-.04.2-.52.58-.3.24-.65.44-.77.44-.1,0-.15-.04-.25-.3-.3-.73-.58-1.31-.94-1.86-.39-.6-.47-.69-1.35-1.64-.06-.09-.08-.13-.08-.18Z"/>
        <path d="M227.95,47.23c.34-.9.67-1.38,1.25-1.86.69-.57,1.51-.84,2.56-.84,2.25,0,3.69,1.23,3.69,3.15,0,.65-.18,1.26-.53,1.75-.27.39-.39.51-1.23,1.27-1.17,1.05-1.42,1.46-1.42,2.25v.79h-1.53v-.84c0-.67.13-1.27.41-1.75.21-.38.43-.63,1.03-1.23.63-.61.83-.84.99-1.11.21-.3.33-.72.33-1.12,0-1-.67-1.63-1.74-1.63s-1.69.55-2.14,1.86l-1.67-.69ZM232.74,55.97c0,.66-.53,1.18-1.19,1.18s-1.18-.52-1.18-1.18.52-1.19,1.18-1.19,1.19.52,1.19,1.19Z"/>
      </g>
      <circle class="cls-11" cx="31.42" cy="60.58" r="30"/>
      <circle class="cls-9" cx="308.2" cy="160.51" r="30"/>
      <g>
        <path class="cls-1" d="M325.77,153.53c1.8.14,1.23,2.13.34,3.28-.19.24-.54.27-.77.08-1.56-1.33-1.02-3.47.43-3.36Z"/>
        <path class="cls-1" d="M325.68,154.37c-.34,0-.62-.28-.62-.62v-3.55l-.89-1.24c-.2-.28-.14-.67.14-.87.28-.2.67-.14.87.14l1,1.4c.08.11.12.23.12.36v3.75c0,.34-.28.62-.62.62Z"/>
        <polygon class="cls-5" points="322.84 144.38 316.72 143.81 319.44 149.31 325.68 149.97 322.84 144.38"/>
        <rect class="cls-5" x="316.14" y="147.48" width="6.66" height="2.89" transform="translate(161.91 -166.38) rotate(38.45)"/>
        <path class="cls-1" d="M321.2,153.21c-.14,0-.27-.04-.39-.13-.27-.21-.32-.61-.1-.88l2.25-2.85c.13-.17.34-.26.56-.23l1.09.12-2.16-4.26-4.66-.43.65,1.31c.1.21.08.46-.06.65l-1.8,2.4c-.21.28-.6.33-.87.12-.28-.21-.33-.6-.12-.87l1.57-2.09-.98-1.97c-.1-.2-.08-.44.05-.63.13-.19.35-.29.57-.27l6.11.57c.21.02.4.15.5.34l2.84,5.59c.1.2.09.45-.04.64-.13.19-.35.29-.58.27l-1.89-.2-2.03,2.58c-.12.16-.31.24-.49.24Z"/>
        <path class="cls-6" d="M317.17,176.07l4.18-1.61,2.02-5.47-.29-8.13-2.24-7.53-3.73-4.66-5.58-1.9-5.51-.3-7.13,3.83-3.23,5.73-3.97,4.71-1.8,4.97,1.35,4.51,9.8,4.91c2.83,1.15,12.95,1.45,16.14.93Z"/>
        <path class="cls-12" d="M290.3,162.44c4.88.32,7.69,5.48,5.89,11-4.76-2.59-7.42-5.22-5.89-11Z"/>
        <path class="cls-12" d="M323.43,166.19c-5.63-.78-9.94,4.07-9.06,10.36,5.98-1.67,9.57-3.86,9.06-10.36Z"/>
        <path class="cls-1" d="M301.77,155.34c1.6-.65,3.04-.03,3.71,1.21.16.29-.14.54-.45.39-1-.51-1.99-.75-3.07-.96-.36-.07-.49-.51-.19-.64Z"/>
        <path class="cls-1" d="M314.46,157.78c-1.18-1.26-2.75-1.29-3.88-.44-.26.2-.1.55.25.54,1.12-.04,2.12.14,3.19.4.36.09.66-.26.44-.5Z"/>
        <path class="cls-1" d="M310.46,166.81c-.14,0-.27-.05-.39-.14-.25-.21-.28-.59-.07-.84.68-.81,1.5-1.23,2.33-1.19.74.04,1.43.46,1.93,1.18.19.27.12.65-.15.83-.27.19-.65.12-.83-.15-.2-.29-.53-.64-1-.66-.44-.02-.92.25-1.36.77-.12.14-.29.21-.46.21Z"/>
        <path class="cls-1" d="M303.02,165.54c-.19,0-.37-.09-.49-.25-.37-.52-.71-.8-1-.8,0,0,0,0-.02,0-.33,0-.68.34-.92.64-.21.26-.59.29-.84.08-.26-.21-.29-.59-.08-.84.6-.73,1.23-1.1,1.9-1.07.7.02,1.33.45,1.94,1.31.19.27.13.64-.14.84-.11.08-.23.11-.35.11Z"/>
        <path class="cls-1" d="M313.23,177.17c-.34,0-.62-.27-.62-.61,0-.34.27-.63.61-.64,3.7-.08,6.35-.94,7.88-2.56,1.96-2.07,1.86-5.03,1.77-7.4l-.02-.46c-.13-4.25-1.4-18.18-12.14-18.91-9.11-.62-12.52,5.19-14.77,9.03-.46.78-.86,1.46-1.25,1.98-.11.15-.23.31-.37.48-1.57,2.04-4.49,5.85-3.39,9.49.79,2.62,3.58,4.76,8.3,6.36,1.42.48,2.86.87,4.28,1.13.34.06.56.39.5.73-.06.34-.39.56-.73.5-1.48-.28-2.98-.67-4.45-1.18-5.11-1.74-8.17-4.16-9.09-7.18-1.29-4.25,2.01-8.54,3.59-10.61.13-.17.25-.33.36-.47.35-.46.73-1.11,1.17-1.86,2.26-3.86,6.05-10.3,15.94-9.64,5.12.35,8.86,3.36,11.13,8.95,1.72,4.24,2.1,8.82,2.17,11.16l.02.46c.09,2.47.21,5.84-2.11,8.3-1.79,1.9-4.66,2.86-8.76,2.95,0,0,0,0-.01,0Z"/>
        <path class="cls-1" d="M301.36,164.27c-.07,0-.14-.02-.19-.07-.76-.6-1.15-1.22-1.44-2.28-.05-.17.05-.34.22-.38.17-.05.34.05.38.22.29,1.06.65,1.5,1.22,1.95.14.11.16.3.05.44-.06.08-.15.12-.24.12Z"/>
        <path class="cls-1" d="M313.33,165.8c-.15,0-.29-.11-.31-.27-.02-.17.1-.33.27-.35.66-.09,1.41-.66,1.84-1.38.09-.15.28-.2.43-.11.15.09.2.28.11.43-.53.89-1.45,1.56-2.29,1.68-.01,0-.03,0-.04,0Z"/>
        <path class="cls-1" d="M314.68,166.34c-.37,0-.76-.07-1.13-.24-.16-.07-.23-.26-.15-.41.07-.16.26-.23.41-.15.85.39,1.81.08,2.46-.24.15-.08.34-.01.42.14.08.15.01.34-.14.42-.51.25-1.17.49-1.87.49Z"/>
        <path class="cls-1" d="M300.49,164.27c-.8,0-1.67-.46-2.36-1.27-.11-.13-.1-.33.04-.44.13-.11.33-.1.44.04.61.71,1.39,1.11,2.04,1.04.17-.02.33.1.34.28.02.17-.1.33-.28.34-.07,0-.15.01-.23.01Z"/>
        <g>
          <path class="cls-3" d="M310.65,169.96c-.67-1.83-3.64-3.8-5.15-3.58s-4.7,2.05-5.69,1.99-1.68-.73-1.8,1.59,1.69,3.5,4.12,2.65c3.36,1.92,9.67.49,8.52-2.65Z"/>
          <path class="cls-3" d="M310.65,172.34c-.75,3.68-4.92,5.83-6.19,5.29s-2.85-1.41-1.46-4.62c2.5.53,6.9-.12,7.02-1.63s.63.96.63.96Z"/>
          <path class="cls-10" d="M304.24,173.33c-.73,1.34-.38,3.06,1.83,1.99s2.2-2.28,2.2-2.28c0,0,1.45-.73-.48,0s-3.55.3-3.55.3Z"/>
          <path class="cls-1" d="M305.74,174.1c-1.06,0-2.2-.33-3.37-.98-2.3.65-3.58.03-4.26-.61-.86-.82-1.18-2.12-.84-3.41.34-1.31.95-1.42,1.84-1.44.64-.01,1.61-.04,3.2-.87,3.54-1.86,5.62-.79,7.64,1.39.21.22.19.57-.03.77-.22.21-.57.19-.77-.03-1.82-1.96-3.36-2.72-6.33-1.16-1.81.95-2.98.98-3.68.99q-.65.02-.81.63c-.23.89-.02,1.81.54,2.34.7.67,1.88.77,3.41.29.15-.05.31-.03.44.05,1.91,1.12,4.63,1.79,6.8-1.36.15-.21.42-.29.66-.2,0,0,.71.29,1.35.43.29.07.48.36.41.65-.07.29-.36.48-.65.41-.4-.09-.82-.23-1.12-.33-1.23,1.62-2.74,2.44-4.42,2.44Z"/>
          <path class="cls-1" d="M305.04,178.23c-.61,0-1.19-.14-1.72-.43-.86-.46-1.41-1.12-1.63-1.95-.43-1.63.61-3.33.65-3.4.16-.26.5-.33.75-.17.26.16.33.5.17.75,0,.01-.83,1.37-.52,2.54.14.53.5.95,1.09,1.27.84.45,1.89.38,2.95-.19,1.5-.81,3.11-2.77,3.32-5.31.02-.3.29-.52.59-.5.3.02.52.29.5.59-.21,2.59-1.74,5.02-3.88,6.18-.77.41-1.54.62-2.27.62Z"/>
        </g>
      </g>
      <g>
        <path class="cls-7" d="M40.86,50.36c5.99-4.82,10.66-4.4,11.63-2.77.89,1.5-.2,9.39-9.12,4.98"/>
        <path class="cls-4" d="M45.1,52.94c2.15-3.7,6.52-2.97,7.65-2.44-1.95,3.62-3.96,4.96-7.65,2.44Z"/>
        <path class="cls-1" d="M48.09,54.52c-1.31,0-2.95-.38-4.99-1.39-.3-.15-.43-.52-.28-.82.15-.3.52-.42.82-.28,3.32,1.64,5.84,1.68,7.3.12,1.3-1.4,1.35-3.69,1.02-4.24-.21-.35-.72-.62-1.4-.75-.91-.17-4.28-.39-9.33,3.68-.26.21-.65.17-.86-.09-.21-.26-.17-.65.09-.86,3.68-2.96,7.54-4.43,10.31-3.93,1.04.19,1.83.66,2.23,1.32.64,1.09.43,3.95-1.18,5.69-.75.81-1.93,1.54-3.74,1.54Z"/>
        <path class="cls-7" d="M46.34,64.59c1.64-16.83-17.12-22.81-25.65-13.47-2.98,3.26-5.19,9.03-4.06,15.78-3.29,3.25-2.73,7.92,2.42,10.47,3.1,1.53,6.2,2.2,13.34,2.2,6.63,0,14.3-2.8,16.45-6.94,1.2-2.31.78-5.73-2.5-8.03Z"/>
        <path class="cls-2" d="M36.12,46.96c-.6-4.19-4.15-6.53-4.34-.47"/>
        <path class="cls-2" d="M24.43,48.02c-.51-4.21,2.31-7.38,4.07-1.58"/>
        <path class="cls-7" d="M19.97,51.08c-6.66-3.83-11.22-2.69-11.92-.92-.65,1.62,2.36,9.82,10.47,4.08"/>
        <path class="cls-4" d="M16.7,54.9c-2.15-3.7-7.04-2.78-8.16-2.25,1.95,3.62,4.48,4.77,8.16,2.25Z"/>
        <path class="cls-4" d="M29.53,46.47c1.23,7.47-2.33,14.46-12.54,14.46,0-11.43,12.54-14.46,12.54-14.46Z"/>
        <path class="cls-4" d="M31.78,46.49c0,8.41,6.81,12.73,13.85,13.26,0-11.43-13.85-13.26-13.85-13.26Z"/>
        <path class="cls-4" d="M15.55,73.36c13.82-6.39,25.47-3.61,33.3-.74-3.13,7.58-29.27,10.16-33.3.74Z"/>
        <path class="cls-1" d="M32.39,80.17c-7.6,0-10.65-.79-13.61-2.26-2.69-1.33-4.37-3.31-4.74-5.59-.32-1.98.37-3.97,1.94-5.63-1.1-7.14,1.47-12.92,4.26-15.98,4.25-4.65,11.26-5.93,17.43-3.18,3.01,1.34,5.47,3.51,7.11,6.28,1.79,3.02,2.53,6.55,2.2,10.5,3.38,2.57,3.64,6.23,2.4,8.6-2.36,4.55-10.5,7.26-17,7.26ZM31.01,47.31c-3.76,0-7.35,1.46-9.87,4.22-2.64,2.89-5.06,8.42-3.91,15.27.03.2-.03.39-.17.53-1.44,1.42-2.08,3.13-1.81,4.8.3,1.88,1.75,3.55,4.07,4.69,2.8,1.38,5.72,2.13,13.07,2.13,6.88,0,14.02-2.96,15.91-6.61,1.03-1.99.75-5.1-2.31-7.25-.18-.13-.28-.34-.26-.56.71-7.25-2.5-13.19-8.57-15.9-2.01-.89-4.11-1.33-6.16-1.33Z"/>
        <path class="cls-1" d="M13.31,56.87c-1.46,0-2.58-.54-3.4-1.18-2.09-1.64-2.9-4.58-2.44-5.76.29-.72.99-1.31,1.99-1.65,2.66-.93,6.7-.08,10.8,2.27.29.17.39.54.23.83-.17.29-.54.39-.83.23-5.62-3.23-8.91-2.49-9.79-2.18-.65.23-1.11.57-1.26.95-.21.53.31,2.97,2.06,4.35,1.89,1.49,4.48,1.14,7.5-.99.27-.19.65-.13.85.15.19.27.13.66-.15.85-2.23,1.58-4.07,2.14-5.56,2.14Z"/>
        <path class="cls-1" d="M36.12,47.57c-.3,0-.56-.22-.6-.52-.32-2.23-1.49-3.66-2.13-3.63-.31.02-.93.69-1,3.09-.01.34-.3.6-.63.59-.34-.01-.6-.29-.59-.63.11-3.62,1.4-4.23,2.15-4.27.03,0,.06,0,.09,0,1.46,0,2.94,2.06,3.31,4.67.05.33-.18.64-.52.69-.03,0-.06,0-.09,0Z"/>
        <path class="cls-1" d="M24.43,48.63c-.3,0-.57-.23-.6-.54-.32-2.67.61-5.08,2.07-5.39.74-.15,2.14.1,3.19,3.56.1.32-.08.66-.41.76-.32.1-.66-.08-.76-.41-.7-2.3-1.46-2.79-1.77-2.72-.62.13-1.38,1.81-1.11,4.05.04.33-.2.64-.53.68-.02,0-.05,0-.07,0Z"/>
        <path class="cls-1" d="M37.36,58.47c-.65-1.09-1.64-1.26-2.42-.7-.18.13-.11.42.12.44.71.07,1.33.3,1.99.61.22.1.44-.14.31-.35Z"/>
        <path class="cls-1" d="M26.39,58.67c.65-1.09,1.64-1.26,2.42-.7.18.13.11.42-.12.44-.71.07-1.33.3-1.99.61-.22.1-.44-.14-.31-.35Z"/>
        <circle class="cls-1" cx="33.24" cy="72.48" r=".57"/>
        <circle class="cls-1" cx="31.46" cy="72.48" r=".57"/>
        <path class="cls-1" d="M31.57,76.68c-.58,0-1.17-.13-1.74-.4-1.05-.5-1.76-1.38-1.96-2.34l-.5.2c-.32.13-.68-.02-.8-.34-.13-.32.02-.68.34-.8l1.32-.53c.21-.08.44-.05.62.09.17.14.26.36.22.59-.16.89.54,1.66,1.3,2.02.9.43,2.24.48,3.27-.69.23-.26.62-.28.87-.05.26.23.28.62.05.87-.81.91-1.88,1.39-2.99,1.39Z"/>
        <ellipse class="cls-1" cx="36.03" cy="67.02" rx="1.44" ry="1.56" transform="translate(-9.99 6.42) rotate(-8.95)"/>
        <ellipse class="cls-1" cx="28.36" cy="67.38" rx="1.56" ry="1.44" transform="translate(-40.37 92.3) rotate(-87.1)"/>
      </g>
    </g>
  </g>
</svg>