<?xml version="1.0" encoding="UTF-8"?>
<svg id="_レイヤー_2" data-name="レイヤー 2" xmlns="http://www.w3.org/2000/svg" width="339.66" height="195.72" viewBox="0 0 339.66 195.72">
  <defs>
    <style>
      .cls-1 {
        fill: #211815;
      }

      .cls-2 {
        fill: #f5f19b;
      }

      .cls-3 {
        fill: #ecbb6e;
      }

      .cls-4 {
        fill: #93c9ce;
      }

      .cls-5 {
        fill: #5c948d;
      }

      .cls-6 {
        fill: #fffba1;
      }

      .cls-7, .cls-8 {
        fill: #fff;
      }

      .cls-9 {
        fill: #d3f2c9;
      }

      .cls-10 {
        fill: #de8a4c;
      }

      .cls-11 {
        fill: #ceeaeb;
      }

      .cls-12 {
        fill: #f2d496;
      }

      .cls-8 {
        stroke: #ceeaeb;
        stroke-miterlimit: 10;
        stroke-width: 2.83px;
      }
    </style>
  </defs>
  <g id="_レイヤー_1-2" data-name="レイヤー 1">
    <g>
      <path class="cls-8" d="M9.89,107.66h239.38c4.68,0,8.47,3.79,8.47,8.47v45.82s9.69,9.69,9.69,9.69h-9.69s0,.5,0,.5c0,4.68-3.79,8.47-8.47,8.47H9.89c-4.68,0-8.47-3.79-8.47-8.47v-56.01c0-4.68,3.79-8.47,8.47-8.47Z"/>
      <g>
        <path d="M19.06,132.84c0-.97.54-1.95,1.74-2.77-1.96.29-3.99.54-5.83.78l-.2-1.47c.55-.01,1.27-.07,2.07-.13,1.69-.99,3.57-2.4,4.87-3.51-1.63.25-2.92.36-4.06.41l-.25-1.44c1.74-.03,3.4-.1,5.86-.46l1.14.9c-.96,1.08-3.06,2.59-5.03,3.85,2.67-.29,5.59-.67,7.26-.99l.27,1.52c-1.23-.02-2.42.1-3.39.43-1.65.55-2.95,1.72-2.95,2.89,0,1.25,1.5,1.94,3.99,2.06l-.5,1.48c-2.91-.19-4.99-1.44-4.99-3.54Z"/>
        <path d="M33.15,135.36c1.84-.72,2.59-1.23,3.33-2.01.67-.72,1.26-1.88,1.26-2.96,0-1.47-.98-2-1.91-2-.5,0-.97.08-2.21.41-1.12.3-1.69.46-2.61.72l-.44-1.47c.92-.23,1.49-.38,2.54-.63,1.39-.35,2.13-.48,2.94-.48,1.77,0,3.36.99,3.36,3.21,0,1.89-.79,3.13-1.56,4.04-.81.94-1.95,1.68-3.45,2.26l-1.26-1.09ZM32.76,124.89l.57-1.33c1.5.27,2.91.57,4.54,1.35l-.63,1.38c-1.46-.72-3-1.09-4.49-1.39Z"/>
        <path d="M47.98,132.84c0-.97.54-1.95,1.74-2.77-1.96.29-3.99.54-5.83.78l-.2-1.47c.55-.01,1.27-.07,2.07-.13,1.69-.99,3.57-2.4,4.87-3.51-1.63.25-2.92.36-4.06.41l-.25-1.44c1.74-.03,3.4-.1,5.86-.46l1.14.9c-.96,1.08-3.06,2.59-5.03,3.85,2.67-.29,5.59-.67,7.26-.99l.27,1.52c-1.23-.02-2.42.1-3.39.43-1.65.55-2.95,1.72-2.95,2.89,0,1.25,1.5,1.94,3.99,2.06l-.5,1.48c-2.91-.19-4.99-1.44-4.99-3.54Z"/>
        <path d="M62.07,135.36c1.84-.72,2.59-1.23,3.33-2.01.67-.72,1.26-1.88,1.26-2.96,0-1.47-.98-2-1.91-2-.5,0-.97.08-2.21.41-1.12.3-1.69.46-2.61.72l-.44-1.47c.92-.23,1.49-.38,2.54-.63,1.39-.35,2.13-.48,2.94-.48,1.77,0,3.36.99,3.36,3.21,0,1.89-.79,3.13-1.56,4.04-.81.94-1.95,1.68-3.45,2.26l-1.26-1.09ZM61.68,124.89l.57-1.33c1.5.27,2.91.57,4.54,1.35l-.63,1.38c-1.46-.72-3-1.09-4.49-1.39Z"/>
        <path d="M77.4,134.48c0-.66.49-1.23,1.21-1.23s1.21.57,1.21,1.23-.5,1.21-1.21,1.21-1.21-.56-1.21-1.21ZM77.73,124.79h1.76l-.09,7.33h-1.56l-.11-7.33Z"/>
        <path d="M86.74,134h5.12v-10.14h1.6v3.75h4.83v1.42h-4.83v4.96h5.91v1.46h-12.63v-1.46Z"/>
        <path d="M100.83,132.69c.38-.13,1.12-.45,1.75-.74v-4.14h-1.6v-1.37h1.6v-2.98h1.37v2.98h1.47v1.37h-1.47v3.48c.48-.24,1.04-.55,1.42-.81l.2,1.23c-1.08.79-2.7,1.71-4.19,2.36l-.55-1.38ZM107.32,135.81c1.35-.87,2.34-2.08,3.03-3.72h-.76c-.72,1.46-1.95,2.81-3.39,3.67l-.98-.91c1.32-.74,2.46-1.77,3.04-2.76h-.78c-.63.74-1.49,1.49-2.29,2l-.86-.96c1.33-.76,2.36-1.74,3.01-2.89h-2.16v-1.12h8.95v1.12h-5.4l-.5.79h5.46c-.06,1.93-.23,3.73-.44,4.46-.19.76-.61,1.05-1.47,1.05-.45,0-.99-.04-1.5-.09l-.24-1.32c-.6.67-1.14,1.18-1.68,1.56l-1.06-.87ZM106.26,123.75h6.42v4.69h-6.42v-4.69ZM111.37,125.61v-.84h-3.81v.84h3.81ZM111.37,127.46v-.87h-3.81v.87h3.81ZM112.36,132.09h-.7c-.33,1.05-.89,2.12-1.54,2.97.4.09.85.15,1.23.15.75,0,.83-.24,1.02-3.12Z"/>
        <path d="M116.88,131c0-1.42.32-3.93.86-6.79l1.53.24c-.6,2.9-.92,5.42-.92,6.58,0,.46.03,1,.11,1.46.24-.77.62-1.65.9-2.19l.9.9c-.46.93-.67,1.53-.84,2.1-.2.69-.3,1.37-.24,2l-1.18.5c-.62-1.21-1.11-2.82-1.11-4.79ZM121.23,132.63c0-.64.27-1.36.99-2.17l1.42.48c-.69.6-.92,1.08-.92,1.46,0,.75.63,1.18,2.29,1.18.66,0,1.63-.09,2.59-.32l.3,1.56c-1.04.17-2.07.21-2.7.21-2.71,0-3.99-.72-3.99-2.4ZM121.39,125.73c1.68.03,4.29-.12,6-.39l.18,1.5c-1.72.27-4.32.43-6.04.39l-.14-1.5Z"/>
        <path d="M130.9,129.9c0-.53.38-1.26,1.02-1.92l1.05.51c-.4.36-.64.67-.64.88,0,.33.43.48,1.5.48h.22c.06-.36.11-.74.17-1.14.06-.45.13-.93.2-1.43-1-.01-2.01-.07-2.9-.19l-.07-1.42c1.05.15,2.11.24,3.15.24.12-.93.24-1.8.3-2.43l1.56.21c-.11.53-.24,1.32-.38,2.17.92-.04,1.83-.15,2.74-.31l.09,1.42c-.89.15-2.04.25-3.06.29-.07.52-.13,1.02-.19,1.47-.04.38-.09.72-.12,1.04,1.06-.11,2.17-.3,3.03-.57l.33,1.41c-1.11.24-2.37.39-3.51.46-.04.55-.08.96-.08,1.21,0,1.38.62,2.16,2.07,2.14,1.54-.01,2.92-1.09,2.92-2.89,0-.93-.33-1.68-.93-2.68l1.56-.06c.66,1.1.88,2.17.88,2.94,0,2.65-1.84,4.2-4.47,4.2-2.43,0-3.54-1.21-3.54-3.33,0-.35.03-.84.09-1.46h-.36c-1.96,0-2.64-.56-2.64-1.25Z"/>
        <path d="M145.35,135.51c1.43-.51,2.64-1.6,2.9-2.64-1.02.3-2.33.62-3.57.84l-.48-1.35c1.42-.22,3.12-.53,4.21-.78.06-.4.07-.81.07-1.59h-3.36v-1.26h3.36v-1.62h-3.64v-1.26h3.64v-2.19h1.47v6.04c0,.63-.02,1.02-.06,1.5.42-.1.98-.27,1.28-.36l.04,1.18c-.34.12-.9.3-1.44.43-.27,1.86-1.44,3.27-3.45,4.17l-.98-1.12ZM151.83,123.59h1.47v2.26h3.82v1.26h-3.82v1.7h3.38v1.26h-3.38v1.71h4.17v1.29h-4.17v3.34h-1.47v-12.82Z"/>
        <path d="M159.04,134h5.12v-10.14h1.6v3.75h4.83v1.42h-4.83v4.96h5.91v1.46h-12.63v-1.46Z"/>
        <path d="M173.13,132.69c.38-.13,1.12-.45,1.75-.74v-4.14h-1.6v-1.37h1.6v-2.98h1.37v2.98h1.47v1.37h-1.47v3.48c.48-.24,1.04-.55,1.42-.81l.2,1.23c-1.08.79-2.7,1.71-4.19,2.36l-.55-1.38ZM179.62,135.81c1.35-.87,2.34-2.08,3.03-3.72h-.76c-.72,1.46-1.95,2.81-3.39,3.67l-.98-.91c1.32-.74,2.46-1.77,3.04-2.76h-.78c-.63.74-1.49,1.49-2.29,2l-.86-.96c1.33-.76,2.36-1.74,3.01-2.89h-2.16v-1.12h8.95v1.12h-5.4l-.5.79h5.46c-.06,1.93-.23,3.73-.44,4.46-.19.76-.61,1.05-1.47,1.05-.45,0-.99-.04-1.5-.09l-.24-1.32c-.6.67-1.14,1.18-1.68,1.56l-1.06-.87ZM178.56,123.75h6.42v4.69h-6.42v-4.69ZM183.67,125.61v-.84h-3.81v.84h3.81ZM183.67,127.46v-.87h-3.81v.87h3.81ZM184.66,132.09h-.7c-.33,1.05-.89,2.12-1.55,2.97.41.09.86.15,1.23.15.75,0,.83-.24,1.02-3.12Z"/>
        <path d="M189.18,131c0-1.42.32-3.93.86-6.79l1.53.24c-.6,2.9-.92,5.42-.92,6.58,0,.46.03,1,.11,1.46.24-.77.62-1.65.9-2.19l.9.9c-.46.93-.67,1.53-.84,2.1-.2.69-.3,1.37-.24,2l-1.18.5c-.62-1.21-1.11-2.82-1.11-4.79ZM193.53,132.63c0-.64.27-1.36.99-2.17l1.42.48c-.69.6-.92,1.08-.92,1.46,0,.75.63,1.18,2.29,1.18.66,0,1.63-.09,2.59-.32l.3,1.56c-1.04.17-2.07.21-2.7.21-2.71,0-3.99-.72-3.99-2.4ZM193.69,125.73c1.68.03,4.29-.12,6-.39l.18,1.5c-1.72.27-4.32.43-6.04.39l-.14-1.5Z"/>
        <path d="M203.21,129.9c0-.53.38-1.26,1.02-1.92l1.05.51c-.4.36-.64.67-.64.88,0,.33.43.48,1.5.48h.22c.06-.36.11-.74.17-1.14.06-.45.13-.93.2-1.43-1-.01-2.01-.07-2.9-.19l-.07-1.42c1.05.15,2.11.24,3.15.24.12-.93.24-1.8.3-2.43l1.56.21c-.11.53-.24,1.32-.38,2.17.92-.04,1.83-.15,2.74-.31l.09,1.42c-.89.15-2.04.25-3.06.29-.07.52-.13,1.02-.19,1.47-.04.38-.09.72-.12,1.04,1.06-.11,2.17-.3,3.03-.57l.33,1.41c-1.11.24-2.37.39-3.51.46-.04.55-.08.96-.08,1.21,0,1.38.62,2.16,2.07,2.14,1.54-.01,2.92-1.09,2.92-2.89,0-.93-.33-1.68-.93-2.68l1.56-.06c.66,1.1.88,2.17.88,2.94,0,2.65-1.84,4.2-4.47,4.2-2.43,0-3.54-1.21-3.54-3.33,0-.35.03-.84.09-1.46h-.36c-1.96,0-2.64-.56-2.64-1.25Z"/>
        <path d="M216.24,133.47l1.3-1.12c.92.78,1.98,1.99,2.77,3.13l-1.41,1.24c-.69-1.15-1.64-2.29-2.67-3.25Z"/>
        <path d="M235.97,132.84c0-.97.54-1.95,1.74-2.77-1.96.29-3.99.54-5.83.78l-.2-1.47c.55-.01,1.27-.07,2.07-.13,1.69-.99,3.57-2.4,4.87-3.51-1.63.25-2.92.36-4.06.41l-.25-1.44c1.74-.03,3.4-.1,5.86-.46l1.14.9c-.96,1.08-3.06,2.59-5.03,3.85,2.67-.29,5.59-.67,7.26-.99l.27,1.52c-1.23-.02-2.42.1-3.39.43-1.65.55-2.95,1.72-2.95,2.89,0,1.25,1.5,1.94,3.99,2.06l-.5,1.48c-2.91-.19-4.99-1.44-4.99-3.54Z"/>
        <path d="M17.43,158.21c-.54.62-1.17,1.37-1.94,2.38l-1.23-.93c1.25-1.26,2.28-2.73,2.7-3.57.15-.3.33-.74.48-1.2v-.96c-.86.19-1.89.34-2.68.42l-.24-1.4c.83-.06,1.95-.19,2.91-.42,0-1.06-.02-1.86-.03-2.65l1.59.06c-.03.88-.06,1.68-.08,2.61l.63.42c-.15.51-.36,1.06-.64,1.77v.18c1.69-1.78,3.18-3.1,4.51-3.1.96,0,1.6.58,1.6,1.68,0,.65-.1,1.31-.22,2.04-.25,1.59-.36,2.78-.36,3.38,0,.81.27,1.04.72,1.04.63,0,1.33-.42,2.07-1.63l.66,1.54c-.75,1.08-1.75,1.62-2.97,1.62s-2.01-.89-2.01-2.28c0-.95.1-2.19.38-3.93.08-.5.15-1.05.15-1.44,0-.36-.12-.51-.39-.51-.72,0-2.57,1.74-4.14,3.33,0,1.96,0,3.43.03,5.7l-1.57.06c.03-1.62.06-2.92.08-4.2Z"/>
        <path d="M33.22,159.09c0-.97.54-1.95,1.74-2.77-1.96.29-3.99.54-5.83.78l-.19-1.47c.55-.01,1.27-.07,2.07-.13,1.68-.99,3.56-2.38,4.86-3.5-1.63.27-2.91.39-4.05.44l-.25-1.44c1.74-.03,3.4-.15,5.86-.51l1.14.9c-1.06,1.08-3.12,2.59-5.04,3.85,2.67-.29,5.59-.67,7.27-.99l.27,1.52c-1.23-.02-2.41.1-3.39.43-1.65.55-2.96,1.72-2.96,2.89,0,1.25,1.5,1.94,3.99,2.06l-.5,1.48c-2.91-.19-4.99-1.44-4.99-3.54ZM38.29,151.98l.95-.43c.43.67.69,1.26.99,2.08l-1,.45c-.29-.84-.52-1.39-.93-2.1ZM39.85,151.31l.95-.46c.46.71.72,1.29,1.04,2.07l-1,.45c-.3-.78-.54-1.33-.98-2.05Z"/>
        <path d="M46.35,158.21c-.54.62-1.17,1.37-1.94,2.38l-1.23-.93c1.25-1.26,2.28-2.73,2.7-3.57.15-.3.33-.74.48-1.2v-.96c-.86.19-1.89.34-2.68.42l-.24-1.4c.83-.06,1.95-.19,2.91-.42,0-1.06-.02-1.86-.03-2.65l1.59.06c-.03.88-.06,1.68-.08,2.61l.63.42c-.15.51-.36,1.06-.64,1.77v.18c1.69-1.78,3.18-3.1,4.51-3.1.96,0,1.6.58,1.6,1.68,0,.65-.1,1.31-.22,2.04-.25,1.59-.36,2.78-.36,3.38,0,.81.27,1.04.72,1.04.63,0,1.33-.42,2.07-1.63l.66,1.54c-.75,1.08-1.75,1.62-2.97,1.62s-2.01-.89-2.01-2.28c0-.95.1-2.19.38-3.93.08-.5.15-1.05.15-1.44,0-.36-.12-.51-.39-.51-.72,0-2.57,1.74-4.14,3.33,0,1.96,0,3.43.03,5.7l-1.57.06c.03-1.62.06-2.92.08-4.2Z"/>
        <path d="M64.05,160.83c2.75-.69,4.38-2.37,4.38-4.5s-1.47-3.52-3.6-3.66c-.11,1.69-.38,3.16-.84,4.6-.72,2.25-2,3.48-3.36,3.48s-2.52-1.39-2.52-3.31c0-3.48,2.88-6.21,6.42-6.21,3.25,0,5.49,1.98,5.49,5.08,0,2.68-1.65,4.68-4.74,5.75l-1.23-1.23ZM60.67,159.15c.77,0,1.41-.9,1.88-2.38.41-1.32.65-2.49.74-3.96-2.07.52-3.64,2.42-3.64,4.65,0,.92.49,1.7,1.03,1.7Z"/>
        <path d="M78.39,162.62l-.33-1.5c.98.17,1.86.25,2.57.25.5,0,.66-.08.81-.41.11-.27.27-.94.38-1.6h-4.71c-.18.55-.28.84-.43,1.23l-1.41-.4c.34-.89.6-1.73.87-2.78-1.32.79-2.62,1.47-3.63,1.92l-.79-1.23c2.37-.92,4.58-2.04,6.33-3.23h-5.94v-1.18h4.91v-1.32h-3.29v-1.17h3.39v-1.63h1.44v1.63h2.52v.99c.66-.71,1.2-1.33,1.65-1.95l1.29.72c-.74.88-1.61,1.78-2.5,2.58h3.67v1.19h-4.95c-.73.54-1.81,1.27-2.37,1.62l-.03.13c1.98-.25,3.67-.58,4.89-.92l.96,1.17c-1.5.33-3.86.63-6.09.81l-.17.63h6.06c-.18,1.73-.46,3.04-.78,3.66-.34.69-.84.92-1.89.92-.67,0-1.59-.04-2.42-.13ZM79.44,153.69c.38-.3.95-.83,1.46-1.32h-2.46v1.32h1Z"/>
        <path d="M87.16,161.06c3.03-3,4.94-4.81,6.94-6.7-1.93.33-4.2.51-5.52.57l-.19-1.45c1.74-.04,5.4-.32,7.52-.78l1,1.04c-1.05.88-2.55,2.19-3.6,3.12.29-.06.56-.09.79-.09.74,0,1.11.54,1.11,1.1,0,.4-.04,1.32-.04,1.59,0,.71.17,1.08,1.05,1.08.65,0,1.91-.11,2.85-.35l.18,1.59c-1.02.21-2.28.27-2.99.27-1.88,0-2.67-.76-2.67-2.22,0-.33.03-.83.03-1.05,0-.37-.2-.75-.57-.75-.45,0-.87.24-1.39.7-.6.54-1.17,1.12-3.24,3.39l-1.26-1.05ZM90.3,151.04l.59-1.3c1.5.25,2.79.51,4.41,1.2l-.72,1.3c-1.4-.62-2.9-.94-4.28-1.2Z"/>
        <path d="M104.67,156.05c-1.11.45-2.14.87-2.89,1.19l-.69-1.47c.92-.35,1.95-.72,3.03-1.11-.48-1.17-.95-2.17-1.49-3.21l1.46-.6c.5.97.99,2.13,1.47,3.3.23-.09.44-.17.66-.24,1.83-.64,3.33-1.16,4.51-1.16,1.82,0,3.11,1.14,3.11,2.9s-1.5,2.94-3.67,2.94c-.44,0-.79-.04-1.11-.1l-.42-1.58c.39.13.9.2,1.37.2,1.39,0,2.28-.65,2.28-1.53,0-.93-.64-1.42-1.67-1.42-.75,0-2.04.38-3.84,1.08l-.69.27c.9,2.34,1.63,4.39,2.31,6.81l-1.53.48c-.58-2.31-1.38-4.59-2.19-6.74ZM106.17,151.34l.62-1.23c1.18.34,2.16.74,3.27,1.4l-.74,1.3c-1.15-.74-2.04-1.09-3.15-1.47Z"/>
        <path d="M119.13,156.05c-1.11.45-2.14.87-2.89,1.19l-.69-1.47c.92-.35,1.95-.72,3.03-1.11-.48-1.17-.95-2.17-1.49-3.21l1.46-.6c.5.97.99,2.13,1.47,3.3.23-.09.44-.17.66-.24,1.83-.64,3.33-1.16,4.51-1.16,1.82,0,3.11,1.14,3.11,2.9s-1.5,2.94-3.67,2.94c-.44,0-.79-.04-1.11-.1l-.42-1.58c.39.13.9.2,1.37.2,1.39,0,2.28-.65,2.28-1.53,0-.93-.64-1.42-1.67-1.42-.75,0-2.04.38-3.84,1.08l-.69.27c.9,2.34,1.63,4.39,2.31,6.81l-1.53.48c-.59-2.31-1.38-4.59-2.19-6.74ZM120.63,151.34l.62-1.23c1.18.34,2.16.74,3.27,1.4l-.74,1.3c-1.15-.74-2.04-1.09-3.15-1.47Z"/>
        <path d="M132.54,154.17c0-1.29.17-2.5.5-4.14l1.5.36c-.36,1.44-.6,2.98-.6,4.08,0,.3,0,.58.02.84.3-.75.67-1.53.97-2.12l.76,1.04c-.46.76-.78,1.5-.96,2.02-.27.81-.3,1.33-.27,2.07l-1.2.41c-.55-1.58-.72-3.08-.72-4.56ZM134.79,161.66c2.73-1.65,3.96-3.45,3.96-6.75,0-1.18-.12-2.92-.33-4.63l1.59-.2c.18,1.82.27,3.36.27,4.67,0,3.95-1.15,5.94-4,7.83l-1.48-.92Z"/>
        <path d="M144.88,161.55c1.63-.72,3.03-2.22,3.6-3.85.41-1.08.57-2.35.65-4.3h-4.54v-1.33h5.44v-2.25h1.59v2.25h5.62v1.33h-6.63c-.02.67-.06,1.25-.12,1.93h5.32c-.09,2.91-.31,5.13-.6,6.01-.27.89-.78,1.19-1.98,1.19-.55,0-1.44-.06-2.19-.14l-.34-1.59c.85.17,1.63.25,2.2.25.63,0,.81-.16.95-.81.18-.81.3-1.92.41-3.6h-3.96c-.45,2.73-2.01,4.9-4.35,6.09l-1.07-1.19Z"/>
        <path d="M159.37,161.3c1.25-2.34,2.1-4.38,2.71-6.57-.92.13-1.77.25-2.43.36l-.25-1.45c.69-.06,1.96-.2,2.98-.35.24-1.03.45-2.11.65-3.25l1.53.24c-.19.93-.42,1.86-.66,2.82.44-.03.83-.06,1.14-.06,1.44,0,2.4.88,2.4,2.69,0,1.29-.12,2.91-.45,4.27-.37,1.56-1.27,1.96-2.17,1.96-.7,0-1.39-.13-2.01-.36l-.12-1.65c.71.34,1.38.48,1.83.48.58,0,.88-.31,1.11-1.35.19-.88.3-2,.3-3.06s-.43-1.59-1.18-1.59c-.26,0-.62.03-1.14.09-.73,2.59-1.53,4.88-2.82,7.51l-1.41-.74ZM167.37,153.27l1.23-.92c1.17,1.39,1.95,3.06,2.64,5.19l-1.38.9c-.72-2.26-1.35-3.97-2.49-5.17ZM168.54,151.16l.79-.66c.63.6,1.05,1.11,1.56,2.01l-.86.67c-.51-.92-.94-1.49-1.5-2.03ZM169.99,150.32l.79-.66c.68.58,1.08,1.16,1.56,1.98l-.87.66c-.45-.84-.9-1.46-1.49-1.98Z"/>
        <path d="M178.54,160.86c-.79.6-1.61.96-2.42.96-1.32,0-2.1-.96-2.1-2.36,0-1.29.66-2.55,1.74-3.51.53-.48,1.14-.87,1.79-1.14.01-.5.04-1.11.11-1.77-1.14.06-2.18.09-2.93.09l-.07-1.37c.81.03,1.9,0,3.12-.06.06-.69.15-1.38.24-1.98l1.53.21c-.12.53-.23,1.09-.32,1.68,1.4-.12,2.87-.28,4.14-.52l.1,1.38c-1.35.21-2.92.36-4.42.48-.06.53-.11,1.04-.13,1.47.71-.15,1.48-.23,2.31-.21.08-.35.11-.63.15-.98l1.41.21c-.04.32-.1.62-.18.92,1.83.42,3.11,1.73,3.11,3.42,0,1.91-.96,3.67-4.19,4.7l-1.11-1.11c2.85-.84,3.76-2.13,3.76-3.55,0-1.08-.76-1.89-1.92-2.24-.57,1.58-1.53,3.21-2.55,4.32.13.27.27.54.43.79l-1.18,1.02c-.15-.27-.29-.55-.42-.85ZM176.26,160.4c.54,0,1.19-.3,1.82-.87-.27-.9-.46-2.08-.53-3.3-.33.19-.69.48-1.04.83-.54.54-1.04,1.35-1.04,2.23,0,.75.33,1.11.78,1.11ZM179.22,158.45c.66-.83,1.29-1.93,1.7-3.03-.74,0-1.41.08-2.01.25.02.95.09,1.91.32,2.78Z"/>
        <path d="M191.34,160.01c0-1.05.95-1.81,2.23-1.81s2.39.72,3.12,2.01c.72-.48,1.19-1.18,1.19-2.03,0-1.05-1.07-1.9-2.79-1.9-1.1,0-2.42.36-3.42.99-.69.43-1.2.85-1.96,1.63l-1.04-1.12c1.65-1.28,4.05-3.39,6.21-5.82-1.21.21-2.73.35-3.99.41l-.27-1.44c1.72-.03,3.61-.15,5.77-.56l.85,1.05c-1.44,1.54-2.56,2.61-3.91,3.83.69-.21,1.33-.3,1.93-.3,2.52,0,4.16,1.33,4.16,3.19,0,2.4-2.4,4.05-5.24,4.05-1.54,0-2.85-.82-2.85-2.17ZM194.34,160.86c.39,0,.75-.04,1.11-.13-.46-.81-1.11-1.26-1.8-1.26-.51,0-.81.25-.81.58,0,.53.66.81,1.5.81Z"/>
        <path d="M208.65,160.83c2.75-.69,4.38-2.37,4.38-4.5s-1.47-3.52-3.6-3.66c-.11,1.69-.38,3.16-.84,4.6-.72,2.25-2,3.48-3.36,3.48s-2.52-1.39-2.52-3.31c0-3.48,2.88-6.21,6.42-6.21,3.25,0,5.49,1.98,5.49,5.08,0,2.68-1.65,4.68-4.74,5.75l-1.23-1.23ZM205.27,159.15c.77,0,1.41-.9,1.88-2.38.41-1.32.65-2.49.74-3.96-2.07.52-3.64,2.42-3.64,4.65,0,.92.49,1.7,1.03,1.7Z"/>
        <path d="M218.25,159.87c0-1.27,1.11-2.22,3.15-2.22.36,0,.72.03,1.11.08-.02-.32-.04-.65-.06-.96-.09-1.37-.17-3.42-.17-4.41,0-.71-.01-1.5.02-2.47l1.6.08c-.09,1-.1,1.69-.12,2.65,1.23-.06,2.49-.21,3.72-.46l.17,1.5c-1.41.22-2.7.36-3.87.42.01.88.06,1.91.12,2.68.03.44.06.89.07,1.31,1.44.4,2.94,1.11,4.21,2.04l-.85,1.31c-1.19-.9-2.31-1.5-3.29-1.88v.29c0,1.57-.94,2.37-2.8,2.37s-3.01-.85-3.01-2.31ZM221.13,160.76c.84,0,1.44-.29,1.44-1.18,0-.11,0-.25-.01-.46-.41-.08-.79-.11-1.12-.11-1.09,0-1.65.38-1.65.88,0,.58.57.87,1.35.87Z"/>
        <path d="M230.85,160.8c0-1.17.98-2.14,2.17-2.14s2.15.99,2.15,2.16-.98,2.16-2.17,2.16-2.15-.99-2.15-2.17ZM234.17,160.82c0-.65-.51-1.16-1.16-1.16s-1.16.53-1.16,1.16.51,1.15,1.16,1.15,1.16-.52,1.16-1.15Z"/>
      </g>
      <circle class="cls-9" cx="305.91" cy="165.72" r="30"/>
      <path class="cls-8" d="M329.77,1.42H90.4c-4.68,0-8.47,3.79-8.47,8.47v43.9s-9.69,9.69-9.69,9.69h9.69v.5c0,4.68,3.79,8.47,8.47,8.47h239.38c4.68,0,8.47-3.79,8.47-8.47V9.89c0-4.68-3.79-8.47-8.47-8.47Z"/>
      <g>
        <path d="M95.31,28.65h5.12v-10.14h1.6v3.75h4.83v1.42h-4.83v4.96h5.91v1.46h-12.63v-1.46Z"/>
        <path d="M109.39,27.35c.38-.13,1.12-.45,1.75-.73v-4.14h-1.6v-1.37h1.6v-2.98h1.37v2.98h1.47v1.37h-1.47v3.48c.48-.24,1.04-.55,1.42-.81l.2,1.23c-1.08.79-2.7,1.71-4.19,2.35l-.55-1.38ZM115.89,30.47c1.35-.87,2.34-2.08,3.03-3.72h-.76c-.72,1.46-1.95,2.8-3.39,3.67l-.98-.91c1.32-.74,2.46-1.77,3.04-2.76h-.78c-.63.73-1.49,1.48-2.29,1.99l-.86-.96c1.33-.77,2.36-1.74,3.01-2.9h-2.16v-1.12h8.95v1.12h-5.4l-.5.79h5.46c-.06,1.93-.23,3.74-.44,4.46-.19.76-.61,1.05-1.47,1.05-.45,0-.99-.04-1.5-.09l-.24-1.32c-.6.68-1.14,1.19-1.68,1.56l-1.06-.87ZM114.82,18.41h6.42v4.7h-6.42v-4.7ZM119.94,20.27v-.84h-3.81v.84h3.81ZM119.94,22.12v-.87h-3.81v.87h3.81ZM120.93,26.75h-.7c-.33,1.05-.89,2.12-1.55,2.97.41.09.86.15,1.23.15.75,0,.83-.24,1.02-3.12Z"/>
        <path d="M127.32,26.64c0-.84.03-2.65.06-3.78.03-.97.01-2.97-.02-4.28l1.72.03c-.03,1.29-.07,3.18-.12,4.12-.04,1.01-.08,2.75-.08,3.68,0,1.79.5,2.65,1.89,2.65,1.72,0,3.57-1.23,4.56-3.04l.83,1.63c-1.16,1.65-3.21,2.93-5.4,2.93-2.62,0-3.45-1.63-3.45-3.95Z"/>
        <path d="M143.13,26.09c0-1.67,1.05-3.22,3.02-4.56-2.88.27-4.68.42-6.81.59l-.19-1.58c3.12-.12,7.92-.41,11.43-.98l.3,1.53c-2.08.29-2.79.51-4,1.47-1.38,1.08-2.21,2.19-2.21,3.55,0,1.71,1.37,2.6,4.04,2.94l-.67,1.46c-2.99-.42-4.89-1.86-4.89-4.42Z"/>
        <path d="M156.52,28.41c0-1.05.95-1.81,2.23-1.81s2.39.72,3.12,2.01c.72-.48,1.19-1.18,1.19-2.03,0-1.05-1.07-1.9-2.79-1.9-1.1,0-2.42.36-3.42.99-.69.43-1.2.86-1.96,1.63l-1.04-1.12c1.65-1.28,4.05-3.39,6.21-5.82-1.21.21-2.73.35-3.99.41l-.27-1.44c1.72-.03,3.61-.15,5.77-.56l.85,1.05c-1.44,1.54-2.56,2.61-3.91,3.82.69-.21,1.33-.3,1.93-.3,2.52,0,4.16,1.33,4.16,3.19,0,2.4-2.4,4.05-5.24,4.05-1.54,0-2.85-.83-2.85-2.18ZM159.52,29.27c.39,0,.75-.04,1.11-.13-.46-.81-1.11-1.26-1.8-1.26-.51,0-.81.25-.81.58,0,.53.66.81,1.5.81Z"/>
        <path d="M168.24,29.55c1.28-2.38,2.07-4.33,2.71-6.57-.92.13-1.77.26-2.43.36l-.25-1.45c.69-.06,1.96-.2,2.98-.35.24-1.04.45-2.12.65-3.25l1.53.24c-.19.93-.4,1.86-.64,2.82.42-.03.81-.06,1.12-.06,1.44,0,2.4.88,2.4,2.68,0,1.29-.12,2.91-.45,4.28-.38,1.56-1.28,1.96-2.17,1.96-.71,0-1.4-.13-2.01-.36l-.12-1.65c.7.34,1.38.48,1.83.48.58,0,.89-.32,1.11-1.35.2-.88.3-1.99.3-3.06s-.43-1.59-1.18-1.59c-.27,0-.62.03-1.16.09-.71,2.62-1.48,4.83-2.8,7.51l-1.41-.73ZM176.85,21.14l1.28-.84c1.04,1.47,1.75,3.19,2.34,5.46l-1.44.81c-.56-2.29-1.1-3.92-2.18-5.43Z"/>
        <path d="M186.52,29.48c3.18-.27,5.28-1.23,5.25-2.83-.02-.97-.84-1.61-2.13-1.57-1.58.03-3.15.96-4.4,2.34l-1.18-.57c.34-1.81.52-4.08.54-6.07l1.59.15c-.04,1.26-.2,2.85-.42,4.32,1.15-.99,2.73-1.48,3.9-1.51,2.05-.04,3.63.99,3.66,2.82v.08c0,2.38-2.04,3.72-5.87,4.2l-.94-1.33ZM185.92,19.6l.56-1.26c1.46.24,2.95.75,4.36,1.5l-.61,1.35c-1.44-.77-2.85-1.26-4.31-1.59Z"/>
        <path d="M196.95,29.46c3.03-3,4.93-4.81,6.94-6.71-1.93.33-4.2.51-5.52.57l-.19-1.46c1.74-.04,5.4-.31,7.51-.78l1,1.04c-1.05.88-2.55,2.19-3.6,3.12.29-.06.56-.09.79-.09.74,0,1.11.54,1.11,1.09,0,.41-.04,1.32-.04,1.59,0,.71.17,1.08,1.05,1.08.65,0,1.91-.1,2.85-.34l.18,1.59c-1.02.21-2.28.27-2.99.27-1.88,0-2.67-.76-2.67-2.22,0-.33.03-.83.03-1.05,0-.38-.2-.75-.57-.75-.45,0-.87.24-1.39.71-.6.54-1.17,1.12-3.24,3.39l-1.26-1.05ZM200.08,19.45l.58-1.3c1.5.25,2.79.51,4.41,1.2l-.72,1.3c-1.4-.62-2.9-.94-4.28-1.2Z"/>
        <path d="M215.44,29.48c3.18-.27,5.28-1.23,5.25-2.83-.02-.97-.84-1.61-2.13-1.57-1.58.03-3.15.96-4.4,2.34l-1.18-.57c.34-1.81.52-4.08.54-6.07l1.59.15c-.04,1.26-.2,2.85-.42,4.32,1.15-.99,2.73-1.48,3.9-1.51,2.05-.04,3.63.99,3.66,2.82v.08c0,2.38-2.04,3.72-5.87,4.2l-.94-1.33ZM214.84,19.6l.56-1.26c1.46.24,2.95.75,4.36,1.5l-.61,1.35c-1.44-.77-2.85-1.26-4.31-1.59Z"/>
        <path d="M227.16,27.21c-.33-1.06-.55-2.97-.55-4.71,0-.75.03-1.82.09-2.75l1.59.33c-.09,1.02-.13,1.92-.13,2.88,0,1.64.17,2.81.43,3.67.32,1.02.76,1.63,1.2,1.63.48,0,1.11-1.04,1.51-2.94l1.32,1.11c-.63,2.37-1.7,3.51-2.8,3.51-1.22,0-2.13-1.06-2.66-2.74ZM234.01,21.56l1.14-1.02c1.8,1.65,2.32,3.67,2.71,6.52l-1.54.48c-.35-2.66-.9-4.77-2.31-5.98Z"/>
        <path d="M244.75,28.92c2.99-.32,4.59-1.38,4.59-2.88,0-.95-.64-1.85-1.92-1.85-.67,0-1.5.18-2.46.38-.95.2-2.23.5-3.21.74l-.4-1.41c.96-.21,2.08-.44,3.28-.68,1.05-.21,2.05-.39,2.85-.39,2.17,0,3.42,1.36,3.42,3.13,0,2.31-1.8,3.76-5.28,4.29l-.87-1.33Z"/>
        <path d="M258.81,26.09c0-1.67,1.05-3.22,3.02-4.56-2.88.27-4.68.42-6.81.59l-.19-1.58c3.12-.12,7.92-.41,11.43-.98l.3,1.53c-2.08.29-2.79.51-4,1.47-1.38,1.08-2.21,2.19-2.21,3.55,0,1.71,1.37,2.6,4.04,2.94l-.67,1.46c-2.99-.42-4.89-1.86-4.89-4.42Z"/>
        <path d="M271.83,26.46c-.69.73-1.33,1.53-2.01,2.43l-1.26-.93c1.42-1.41,2.32-2.66,2.85-3.58.15-.27.3-.63.43-1v-1.28c-.92.24-2.07.42-2.75.46l-.3-1.39c.96-.08,2.12-.22,3.03-.42,0-.97-.01-1.72-.03-2.46l1.59.06c-.03.77-.04,1.49-.06,2.28l.88.42c-.21.57-.53,1.32-.88,2.16,1.54-1.44,2.98-2.13,4.44-2.13,2.1,0,3.69,1.53,3.69,3.82,0,2.75-1.73,4.38-4.77,5.24l-1.11-1.21c2.98-.76,4.3-2.13,4.3-3.99,0-1.35-.9-2.4-2.17-2.4s-2.85,1.04-4.41,2.46c0,2,0,3.46.03,5.76l-1.58.06c.03-1.68.06-3.03.08-4.35Z"/>
        <path d="M284.67,25.5c0-1.33.3-4.17.57-6.39l1.53.25c-.52,3.18-.66,5.08-.66,6.48,0,.48.01,1.05.1,1.53.21-.57.54-1.22.83-1.74l.85.87c-.45.81-.6,1.15-.78,1.67-.18.51-.32,1.16-.25,1.71l-1.19.46c-.67-1.35-1-2.82-1-4.84ZM288.31,22.04c1.28.03,2.58.01,3.81-.08-.06-1-.15-2.19-.25-3.48l1.6-.12c.08,1.21.15,2.38.2,3.45.79-.09,1.51-.21,2.17-.36l.18,1.5c-.69.12-1.47.22-2.29.31.02.48.03.95.03,1.37,0,3.72-.53,5.07-2.31,6.55l-1.58-.69c2.22-1.68,2.33-3.44,2.33-6.27,0-.26,0-.54-.02-.84-1.27.08-2.58.1-3.76.09l-.11-1.44Z"/>
        <path d="M300.61,26.64c0-.84.03-2.65.06-3.78.03-.97.01-2.97-.01-4.28l1.72.03c-.03,1.29-.08,3.18-.12,4.12-.04,1.01-.08,2.75-.08,3.68,0,1.79.5,2.65,1.89,2.65,1.72,0,3.57-1.23,4.56-3.04l.83,1.63c-1.16,1.65-3.21,2.93-5.4,2.93-2.62,0-3.45-1.63-3.45-3.95ZM305.14,19.98l.96-.46c.51.79.86,1.54,1.23,2.49l-1,.5c-.35-.96-.75-1.77-1.19-2.52ZM306.84,19.49l.97-.46c.53.75.86,1.47,1.26,2.49l-1.02.46c-.39-1.05-.75-1.82-1.21-2.49Z"/>
        <path d="M316.15,25.98c-.86.35-1.65.66-2.18.88l-.61-1.24,2.31-.86c-.31-.76-.64-1.54-1.06-2.37l1.32-.51c.38.79.69,1.59,1.02,2.43.18-.08.36-.14.52-.2.71-.26,1.58-.54,2.33-.71-.86-.54-1.5-.83-2.33-1.11l.53-1.1c.93.29,1.62.58,2.55,1.11l-.66,1.07c.42-.09.79-.15,1.08-.15,1.37,0,2.58.84,2.58,2.35,0,1.59-1.44,2.35-2.91,2.35-.42,0-.74-.03-.97-.07l-.41-1.3c.31.07.76.13,1.21.13.95,0,1.62-.39,1.62-1.14,0-.71-.48-1.09-1.21-1.09-.65,0-1.58.29-2.97.83-.17.06-.33.13-.5.2.6,1.57,1.32,3.55,1.8,5.26l-1.38.44c-.45-1.8-1.09-3.67-1.68-5.21Z"/>
        <path d="M95.73,53.49c1.35-2.04,2.19-3.66,2.8-5.29-.99.09-1.93.15-2.67.17l-.19-1.43c1-.01,2.19-.07,3.38-.19.22-.76.45-1.56.66-2.43l1.53.38c-.2.66-.38,1.28-.57,1.86.89-.12,1.73-.27,2.42-.45l.27,1.43c-.78.18-1.95.36-3.18.51-.73,2.04-1.6,3.91-3.03,6.27l-1.41-.81ZM98.8,54.8c0-1.14,1.06-2.06,2.67-2.06.36,0,.75.03,1.14.09-.03-.49-.06-1.08-.06-1.36,0-.42.06-1.16.51-1.92l1.33.76c-.29.59-.33.99-.33,1.41,0,.46.03.9.04,1.43,1.06.34,2.16.88,3.15,1.47l-.72,1.31c-.78-.56-1.58-1.02-2.35-1.35v.24c0,1.39-1,2.25-2.58,2.25-1.39,0-2.8-.71-2.8-2.26ZM101.59,55.64c.69,0,1.11-.32,1.11-.94,0-.12,0-.29-.01-.48-.34-.09-.69-.13-1-.13-.79,0-1.33.29-1.33.76,0,.52.55.79,1.25.79ZM103.86,48.42l.67-1.2c1.37.53,2.46,1.14,3.48,2.13l-.82,1.18c-1.16-1.06-2.04-1.59-3.33-2.11Z"/>
        <path d="M111.48,53.46c-.33-1.06-.55-2.97-.55-4.71,0-.75.03-1.82.09-2.75l1.59.33c-.09,1.02-.13,1.92-.13,2.88,0,1.64.17,2.81.43,3.67.32,1.02.76,1.63,1.2,1.63.48,0,1.11-1.04,1.51-2.94l1.32,1.11c-.63,2.37-1.7,3.51-2.8,3.51-1.22,0-2.13-1.06-2.66-2.74ZM118.33,47.81l1.14-1.02c1.8,1.65,2.32,3.67,2.71,6.52l-1.54.48c-.35-2.66-.9-4.77-2.31-5.98Z"/>
        <path d="M124.5,56.04c2.04-4.32,3.56-7.62,5.27-11.5l1.54.58c-1.04,2.04-1.91,3.81-2.81,5.71.8-.69,1.65-1.02,2.33-1.02,1.04,0,1.38.82,1.38,2.64,0,1.94.24,2.58,1.02,2.58,1.05,0,2.05-1.27,2.95-3.99l1.23,1.18c-1.04,2.8-2.35,4.3-4.17,4.3s-2.52-1.23-2.52-3.57c0-1.27-.12-1.6-.58-1.6-.53,0-1.37.67-2.01,1.47-.76.93-1.15,1.65-2.2,4.01l-1.43-.79Z"/>
        <path d="M139.02,56.24c1.23-2.76,2.1-5.34,2.71-7.94-1.02.08-1.98.12-2.77.15l-.17-1.52c1.03-.03,2.14-.07,3.28-.15.15-.81.3-1.64.42-2.48l1.54.24c-.13.72-.29,1.43-.43,2.12,1.11-.12,2.21-.25,3.27-.46l.24,1.5c-1.18.2-2.54.36-3.85.48-.69,2.92-1.54,5.7-2.71,8.65l-1.53-.6ZM144.25,54.3c0-.55.21-1.23.68-1.89l1.36.44c-.39.45-.57.9-.57,1.21,0,.58.66.92,2.13.92.96,0,1.98-.1,2.79-.28l.3,1.56c-.93.18-2.13.21-2.85.21-2.74,0-3.84-.9-3.84-2.16ZM145.02,49.5c1.71-.29,3.7-.42,5.4-.34l-.2,1.48c-1.63-.09-3.45.03-4.8.27l-.4-1.41ZM147.54,45.52l.9-.54c.55.71.85,1.25,1.24,2.12l-.94.57c-.39-.87-.71-1.46-1.2-2.14ZM149.25,45l.88-.55c.54.67.88,1.25,1.26,2.08l-.93.57c-.39-.87-.71-1.43-1.21-2.1Z"/>
        <path d="M155.7,53.1c-.48.6-1,1.31-1.62,2.21l-1.27-.94c.96-1.1,1.92-2.31,2.49-3.48.12-.24.27-.64.42-1.11v-1.21c-.72.18-1.66.33-2.34.39l-.24-1.38c.76-.06,1.71-.17,2.56-.38,0-1.08-.01-1.88-.03-2.66l1.59.06c-.03.84-.04,1.62-.06,2.51l.72.34c-.13.42-.43,1.17-.75,1.91v.15c1.54-1.65,3-2.91,4.8-2.91s2.73,1.5,2.73,4.46c0,.75-.08,1.5-.2,2.16.66.36,1.29.81,1.88,1.37l-.96,1.28c-.39-.46-.84-.87-1.3-1.19-.09.26-.2.46-.3.63-.5.79-1.43,1.2-2.5,1.2-1.59,0-2.58-.94-2.58-2.14s1.04-2.04,2.56-2.04c.57,0,1.17.1,1.79.29.06-.52.09-1.07.09-1.58,0-1.77-.41-2.96-1.35-2.96-1.26,0-2.94,1.47-4.65,3.33,0,1.92,0,3.38.03,5.61l-1.58.06c.03-1.51.04-2.76.08-3.96ZM161.31,55.07c.6,0,1.08-.29,1.33-.83.04-.09.09-.19.12-.3-.49-.2-1.02-.3-1.42-.3-.64,0-1.09.27-1.09.68,0,.45.36.75,1.07.75Z"/>
        <path d="M167.11,55.46c0-1.17.98-2.14,2.17-2.14s2.15.99,2.15,2.16-.98,2.16-2.17,2.16-2.15-.99-2.15-2.18ZM170.43,55.47c0-.64-.51-1.15-1.16-1.15s-1.16.52-1.16,1.15.51,1.15,1.16,1.15,1.16-.52,1.16-1.15Z"/>
      </g>
      <circle class="cls-11" cx="31.42" cy="60.58" r="30"/>
      <path class="cls-7" d="M41.02,50c5.99-4.81,10.66-4.4,11.63-2.77.89,1.5-.2,9.39-9.11,4.98"/>
      <path class="cls-4" d="M45.26,52.58c2.15-3.69,6.52-2.97,7.64-2.44-1.95,3.62-3.96,4.96-7.64,2.44Z"/>
      <path class="cls-1" d="M48.26,54.15c-1.31,0-2.94-.38-4.99-1.39-.3-.15-.42-.51-.28-.82.15-.3.52-.42.82-.28,3.32,1.64,5.84,1.68,7.29.12,1.3-1.4,1.35-3.69,1.02-4.24-.21-.35-.72-.62-1.4-.75-.91-.16-4.27-.39-9.33,3.68-.26.21-.65.17-.86-.09-.21-.26-.17-.65.09-.86,3.68-2.96,7.53-4.43,10.31-3.92,1.04.19,1.83.66,2.23,1.32.64,1.09.43,3.95-1.18,5.69-.75.81-1.93,1.54-3.74,1.54Z"/>
      <path class="cls-7" d="M46.51,64.23c1.64-16.82-17.11-22.8-25.64-13.47-2.97,3.25-5.19,9.02-4.06,15.77-3.29,3.25-2.73,7.92,2.42,10.46,3.1,1.53,6.19,2.19,13.34,2.19,6.63,0,14.3-2.8,16.45-6.93,1.2-2.31.78-5.72-2.5-8.03Z"/>
      <path class="cls-2" d="M36.29,46.6c-.6-4.19-4.15-6.52-4.34-.47"/>
      <path class="cls-2" d="M24.6,47.66c-.51-4.2,2.31-7.38,4.07-1.58"/>
      <path class="cls-7" d="M20.15,50.72c-6.66-3.82-11.21-2.69-11.91-.92-.65,1.62,2.36,9.82,10.47,4.08"/>
      <ellipse class="cls-1" cx="35.77" cy="66.17" rx="1.44" ry="1.56" transform="translate(-9.86 6.37) rotate(-8.95)"/>
      <path class="cls-4" d="M16.88,54.54c-2.15-3.69-7.03-2.78-8.16-2.25,1.95,3.62,4.47,4.77,8.16,2.25Z"/>
      <path class="cls-4" d="M29.7,46.12c1.23,7.46-2.33,14.45-12.53,14.45,0-11.42,12.53-14.45,12.53-14.45Z"/>
      <path class="cls-4" d="M31.95,46.13c0,8.41,6.81,12.72,13.84,13.25,0-11.42-13.84-13.25-13.84-13.25Z"/>
      <path class="cls-4" d="M15.73,72.99c13.81-6.39,25.45-3.61,33.28-.74-3.13,7.57-29.25,10.15-33.28.74Z"/>
      <path class="cls-1" d="M32.56,79.8c-7.59,0-10.64-.79-13.61-2.26-2.68-1.33-4.37-3.31-4.74-5.59-.32-1.98.37-3.96,1.94-5.63-1.1-7.13,1.47-12.92,4.26-15.97,4.25-4.65,11.25-5.93,17.42-3.18,3.01,1.34,5.47,3.51,7.11,6.28,1.79,3.02,2.53,6.54,2.2,10.49,3.38,2.56,3.63,6.22,2.4,8.6-2.36,4.54-10.49,7.26-16.99,7.26ZM31.19,46.95c-3.76,0-7.35,1.46-9.87,4.22-2.64,2.89-5.06,8.42-3.91,15.26.03.2-.03.39-.17.53-1.44,1.42-2.08,3.13-1.81,4.79.3,1.88,1.75,3.54,4.07,4.69,2.8,1.38,5.71,2.13,13.07,2.13,6.88,0,14.01-2.96,15.91-6.6,1.03-1.98.75-5.1-2.31-7.25-.18-.13-.28-.34-.26-.56.71-7.25-2.49-13.19-8.56-15.89-2.01-.89-4.11-1.33-6.15-1.33Z"/>
      <path class="cls-1" d="M32.2,76.28c-1.88,0-3.48-.99-4.4-2.72l-.45.09c-.33.07-.65-.14-.72-.47-.07-.33.14-.65.47-.72l.91-.19c.28-.06.57.09.68.35.73,1.67,2.12,2.55,3.82,2.43,1.72-.13,3.25-1.27,3.64-2.72.07-.28.34-.46.62-.45l.77.04c.34.02.59.3.58.64-.02.34-.31.59-.64.58l-.31-.02c-.69,1.72-2.5,2.99-4.57,3.14-.14.01-.27.02-.41.02Z"/>
      <ellipse class="cls-1" cx="35.77" cy="66.17" rx="1.44" ry="1.56" transform="translate(-9.86 6.37) rotate(-8.95)"/>
      <ellipse class="cls-1" cx="28.1" cy="66.53" rx="1.56" ry="1.44" transform="translate(-39.76 91.23) rotate(-87.1)"/>
      <path class="cls-1" d="M13.5,56.51c-1.46,0-2.58-.54-3.4-1.18-2.09-1.64-2.9-4.58-2.43-5.75.29-.72.99-1.3,1.99-1.65,2.66-.93,6.69-.08,10.79,2.27.29.17.39.54.22.83-.17.29-.54.39-.83.22-5.62-3.23-8.91-2.48-9.78-2.18-.65.23-1.11.57-1.26.95-.21.53.31,2.97,2.06,4.35,1.89,1.49,4.48,1.14,7.49-.99.27-.19.65-.13.85.15.19.27.13.65-.15.85-2.23,1.58-4.07,2.14-5.55,2.14Z"/>
      <path class="cls-1" d="M36.29,47.21c-.3,0-.56-.22-.6-.52-.32-2.23-1.48-3.66-2.12-3.62-.31.02-.93.69-1,3.09-.01.34-.3.59-.63.59-.34-.01-.6-.29-.59-.63.11-3.61,1.4-4.22,2.15-4.27.03,0,.06,0,.09,0,1.46,0,2.94,2.06,3.31,4.67.05.33-.18.64-.52.69-.03,0-.06,0-.09,0Z"/>
      <path class="cls-1" d="M24.6,48.27c-.3,0-.57-.23-.6-.54-.32-2.66.61-5.08,2.07-5.39.74-.15,2.14.1,3.19,3.56.1.32-.08.66-.41.76-.32.1-.66-.08-.76-.41-.7-2.3-1.46-2.78-1.77-2.72-.62.13-1.38,1.81-1.11,4.05.04.33-.2.64-.53.68-.02,0-.05,0-.07,0Z"/>
      <path class="cls-1" d="M37.03,57.7c-.65-1.09-1.64-1.26-2.41-.7-.18.13-.11.42.12.44.71.07,1.33.3,1.98.61.22.1.44-.14.31-.35Z"/>
      <path class="cls-1" d="M26.14,58.11c.65-1.09,1.64-1.26,2.41-.7.18.13.11.42-.12.44-.71.07-1.33.3-1.98.61-.22.1-.44-.14-.31-.35Z"/>
      <circle class="cls-1" cx="33.41" cy="72.11" r=".57"/>
      <circle class="cls-1" cx="31.63" cy="72.11" r=".57"/>
      <g>
        <path class="cls-1" d="M322.34,157.37c1.79.14,1.22,2.12.34,3.27-.18.24-.54.27-.77.08-1.56-1.33-1.01-3.46.43-3.34Z"/>
        <path class="cls-1" d="M322.24,158.16c-.31,0-.56-.25-.56-.56v-3.55l-.89-1.24c-.18-.25-.12-.61.13-.79.25-.18.61-.12.79.13l1,1.39c.07.1.11.21.11.33v3.73c0,.31-.25.56-.56.56Z"/>
        <path class="cls-6" d="M307.48,183.76c1.34-.08,2.63-.26,3.88-.53,9.79-2.16,10.15-7.15,10.02-11.31-.13-4.16-1.03-19.07-13.04-19.88s-15.11,8.74-17.43,11.84c-2.32,3.1-10.78,12.79,5.09,18.2,1.55.53,3.09.93,4.6,1.21"/>
        <polygon class="cls-5" points="319.41 148.49 313.33 147.92 316.04 153.4 322.24 154.06 319.41 148.49"/>
        <rect class="cls-5" x="312.75" y="151.58" width="6.62" height="2.88" transform="translate(163.71 -163.37) rotate(38.45)"/>
        <path class="cls-12" d="M287.27,169.69c5.03.33,7.93,5.64,6.07,11.34-4.9-2.67-7.64-5.38-6.07-11.34Z"/>
        <path class="cls-12" d="M320.87,171.81c-5.8-.8-10.25,4.19-9.34,10.68,6.16-1.72,9.86-3.98,9.34-10.68Z"/>
        <ellipse class="cls-1" cx="299.25" cy="171.99" rx="1.82" ry="1.68" transform="translate(82.8 440.84) rotate(-81.05)"/>
        <ellipse class="cls-1" cx="309.32" cy="173.03" rx="1.68" ry="1.82" transform="translate(-8.35 15.85) rotate(-2.9)"/>
        <path class="cls-1" d="M299.09,162.38c1.65-.67,3.13-.04,3.82,1.25.16.3-.14.56-.46.4-1.03-.52-2.05-.78-3.16-.99-.37-.07-.51-.53-.2-.66Z"/>
        <path class="cls-1" d="M312.17,164.88c-1.22-1.29-2.83-1.33-4-.45-.27.21-.11.57.26.56,1.16-.05,2.19.14,3.29.41.37.09.68-.27.45-.52Z"/>
        <path class="cls-1" d="M307.48,184.32c-.3,0-.55-.23-.56-.53-.02-.31.22-.58.53-.6,1.29-.08,2.57-.25,3.79-.52,9.84-2.17,9.68-7.33,9.58-10.74-.13-4.28-.81-7.98-2.03-11-2.08-5.2-5.61-8-10.49-8.33-9.65-.65-13.25,5.48-15.63,9.54-.48.82-.9,1.53-1.31,2.07-.11.15-.24.32-.38.51-1.66,2.17-4.75,6.2-3.58,10.07.84,2.78,3.8,5.06,8.79,6.76,1.5.51,3.02.91,4.52,1.19.31.06.51.35.45.66s-.35.51-.66.45c-1.55-.29-3.12-.71-4.67-1.23-5.35-1.82-8.55-4.35-9.5-7.5-1.34-4.42,2.11-8.92,3.77-11.08.14-.18.26-.35.38-.5.37-.49.77-1.18,1.24-1.97,2.37-4.04,6.34-10.8,16.68-10.1,5.35.36,9.2,3.4,11.46,9.03,1.26,3.14,1.97,6.98,2.11,11.39.14,4.6-.54,9.69-10.46,11.88-1.28.28-2.61.47-3.97.54-.01,0-.02,0-.03,0Z"/>
        <path class="cls-1" d="M298.32,171.35c-.06,0-.12-.02-.17-.06-.75-.59-1.13-1.2-1.42-2.25-.04-.15.05-.31.2-.35.15-.04.31.05.35.2.29,1.06.65,1.51,1.23,1.96.12.1.14.27.05.4-.06.07-.14.11-.22.11Z"/>
        <path class="cls-1" d="M298.13,171.94c-.79,0-1.64-.46-2.32-1.25-.1-.12-.09-.3.03-.4.12-.1.3-.09.4.03.62.73,1.39,1.12,2.05,1.05.15-.02.29.09.31.25.02.15-.09.29-.25.31-.07,0-.15.01-.22.01Z"/>
        <path class="cls-1" d="M310.5,172.52c-.14,0-.26-.1-.28-.24-.02-.15.09-.3.24-.32.66-.09,1.42-.66,1.85-1.39.08-.13.25-.18.39-.1.13.08.18.25.1.39-.52.88-1.43,1.54-2.26,1.66-.01,0-.03,0-.04,0Z"/>
        <path class="cls-1" d="M311.58,173.77c-.37,0-.75-.07-1.11-.24-.14-.06-.2-.23-.14-.37.06-.14.23-.2.37-.14.85.39,1.82.09,2.47-.24.14-.07.31-.01.38.13.07.14.01.31-.13.38-.5.25-1.16.48-1.85.48Z"/>
        <g>
          <path class="cls-3" d="M309.11,177.64c-.67-1.82-3.62-3.78-5.13-3.57-1.51.21-4.67,2.04-5.66,1.99s-1.67-.72-1.79,1.58,1.69,3.49,4.1,2.64c3.35,1.91,9.62.49,8.48-2.64Z"/>
          <path class="cls-3" d="M309.11,180c-.74,3.66-4.9,5.8-6.16,5.26-1.26-.54-2.84-1.41-1.46-4.59,2.49.53,6.87-.11,6.98-1.62s.63.95.63.95Z"/>
          <path class="cls-10" d="M302.73,181c-.72,1.34-.37,3.05,1.82,1.98s2.19-2.27,2.19-2.27c0,0,1.44-.72-.48,0-1.92.72-3.53.29-3.53.29Z"/>
          <path class="cls-1" d="M304.22,181.71c-1.05,0-2.18-.32-3.35-.98-2.28.65-3.54.04-4.21-.59-.84-.8-1.15-2.08-.82-3.34.33-1.27.9-1.38,1.78-1.4.64-.01,1.62-.04,3.2-.87,3.5-1.84,5.55-.78,7.54,1.37.19.2.17.51-.03.7s-.51.17-.7-.03c-1.78-1.92-3.39-2.73-6.36-1.17-1.79.94-2.9.97-3.64.98-.68.02-.69.03-.85.66-.24.9-.02,1.84.55,2.38.71.68,1.9.78,3.44.3.13-.04.28-.02.4.05,1.91,1.13,4.66,1.8,6.84-1.37.13-.19.38-.27.59-.18,0,0,.71.29,1.35.43.27.06.43.32.37.59s-.32.44-.59.37c-.42-.09-.85-.23-1.14-.34-1.22,1.62-2.71,2.44-4.39,2.44Z"/>
          <path class="cls-1" d="M303.53,185.82c-.6,0-1.17-.14-1.69-.42-.84-.45-1.38-1.1-1.59-1.91-.43-1.61.6-3.27.64-3.34.14-.23.45-.3.68-.16.23.14.3.45.16.68,0,.01-.84,1.38-.52,2.57.15.55.51.97,1.11,1.29.85.46,1.91.39,2.98-.19,1.5-.82,3.12-2.78,3.33-5.32.02-.27.26-.47.53-.45.27.02.47.26.45.53-.21,2.56-1.72,4.96-3.84,6.11-.75.41-1.51.61-2.23.61Z"/>
        </g>
        <path class="cls-1" d="M317.78,157.22c-.12,0-.25-.04-.35-.12-.24-.19-.29-.55-.09-.79l2.24-2.84c.12-.15.31-.23.5-.21l1.19.13-2.21-4.36-4.77-.45.69,1.4c.09.19.07.42-.05.59l-1.8,2.39c-.19.25-.54.3-.79.11-.25-.19-.3-.54-.11-.79l1.59-2.11-.99-1.99c-.09-.18-.08-.4.04-.57.12-.17.31-.26.52-.24l6.09.57c.19.02.36.13.45.31l2.82,5.57c.09.18.08.41-.04.58-.12.17-.32.26-.52.24l-1.91-.2-2.04,2.59c-.11.14-.28.21-.44.21Z"/>
      </g>
    </g>
  </g>
</svg>