<?xml version="1.0" encoding="UTF-8"?>
<svg id="_レイヤー_2" data-name="レイヤー 2" xmlns="http://www.w3.org/2000/svg" width="374" height="77.36" viewBox="0 0 374 77.36">
  <defs>
    <style>
      .cls-1 {
        fill: #fff;
      }

      .cls-2 {
        fill: #b2d5d9;
      }

      .cls-3 {
        fill: #739b9e;
      }
    </style>
  </defs>
  <g id="_レイヤー_1-2" data-name="レイヤー 1">
    <g>
      <rect class="cls-2" x="0" y="0" width="374" height="77.36"/>
      <rect class="cls-1" x="7.58" y="14.39" width="358.85" height="51.32" rx="25.57" ry="25.57"/>
      <g>
        <path class="cls-3" d="M124.07,39.25h2.27c.72,0,1.17-.03,1.65-.1v1.74c-.51-.05-.99-.08-1.67-.08h-1.73c.91,1.6,2.24,2.93,3.83,3.83-.51.51-.74.83-1.06,1.6-.66-.46-1.12-.91-1.73-1.6-.79-.91-1.12-1.41-1.63-2.37.03.58.05,1.07.05,1.54v1.94c0,.72.03,1.28.1,1.78h-1.78c.06-.5.1-1.07.1-1.79v-1.82c0-.43.02-.94.05-1.58-.98,1.76-2.07,2.95-3.62,3.99-.4-.75-.62-1.07-.96-1.46,1.65-.94,2.99-2.32,3.92-4.03h-1.01c-.69,0-1.18.03-1.68.1v-.64c-.27.38-.46.74-.66,1.3-.4-.62-.64-1.12-.94-1.92.03.5.06,1.36.06,2.03v3.94c0,.82.03,1.41.1,1.89h-1.78c.06-.5.1-1.09.1-1.89v-3.31c0-.61.02-.99.11-1.98-.46,1.55-.93,2.59-1.62,3.63-.19-.72-.4-1.18-.72-1.71.77-.98,1.57-2.79,2.05-4.64h-.61c-.46,0-.74.02-1.02.06v-1.63c.26.05.54.06,1.02.06h.77v-1.23c0-.82-.02-1.22-.08-1.6h1.76c-.06.42-.08.85-.08,1.6v1.23h.46c.38,0,.58-.02.83-.06v1.52c.61-1.09,1.12-2.69,1.17-3.73l1.55.4c-.06.18-.11.37-.22.85-.08.29-.11.43-.19.74h1.23v-1.06c0-.66-.03-1.06-.1-1.46h1.79c-.06.38-.1.82-.1,1.46v1.06h1.81c.77,0,1.22-.03,1.65-.1v1.68c-.45-.05-.96-.08-1.65-.08h-1.81v1.94ZM120.72,37.32c-.27.66-.42.96-.87,1.71q-.38-.4-1.25-1.01c.13-.18.18-.26.26-.37-.21-.03-.46-.05-.75-.05h-.4c.37.85.75,1.49,1.46,2.43v-.88c.48.06.93.1,1.66.1h1.63v-1.94h-1.74Z"/>
        <path class="cls-3" d="M134.67,43.11c.05.06.06.11.06.18q0,.1-.27.83c-.34.98-.54,1.78-.61,2.4-.02.21-.08.29-.29.34-.22.06-.66.1-1.07.1-.16,0-.24-.03-.29-.13-.14-.3-.4-1.41-.53-2.31-.11-.75-.16-1.54-.16-2.35,0-1.84.21-3.59.79-6.72.1-.51.13-.75.18-1.25.74.1,1.25.24,1.71.46.24.13.34.24.34.38,0,.1-.03.18-.11.3-.66,1.12-1.27,4.58-1.27,7.14,0,.38.02.99.06,1.76.38-.99.56-1.44.91-2.21.11.43.22.64.54,1.07ZM137.36,38.9c-.77,0-.93-.03-.98-.21-.05-.14-.1-.66-.1-1.02,0-.13,0-.26.02-.54.43.03.69.05,1.22.05.86,0,1.41-.02,2.24-.08-.02-2.03-.03-2.29-.19-3.04.78.02,1.38.08,1.89.21.24.06.34.14.34.3,0,.06-.02.11-.06.24-.16.37-.24.99-.27,2.11.59-.08,1.1-.19,2.07-.42.08-.03.11-.03.16-.03.1,0,.14.05.18.16.03.14.08.75.08,1.09,0,.4-.02.46-.18.53-.26.13-.96.24-2.32.42,0,1.1.1,2.93.21,3.97,1.01.43,1.7.8,2.4,1.3.45.32.54.43.54.54,0,.18-.29.72-.62,1.18-.19.27-.29.35-.4.35s-.11,0-.48-.35c-.35-.35-.72-.62-1.42-1.09v.13c0,1.41-1.17,2.34-2.95,2.34s-2.99-.96-2.99-2.4,1.22-2.51,2.83-2.51c.59,0,.9.02,1.33.08q-.06-1.25-.11-3.39c-.69.05-1.78.1-2.42.1ZM138.67,43.61c-.8,0-1.33.37-1.33.93,0,.51.5.83,1.27.83.85,0,1.3-.38,1.3-1.12,0-.22-.02-.4-.02-.4-.42-.16-.78-.24-1.22-.24Z"/>
        <path class="cls-3" d="M151.61,38.66c-.21-.7-.27-1.14-.46-3.1-.06-.77-.13-1.15-.29-1.7.98.02,1.6.06,2.03.18.24.06.35.18.35.35,0,.06-.02.14-.05.27-.11.38-.16.67-.16,1.09,0,.78.16,2.06.34,2.62.1.3.19.42.37.42.38,0,1.79-.74,2.56-1.33.21-.16.24-.18.32-.18.14,0,.29.11.53.42.4.54.72,1.14.72,1.36,0,.18-.11.29-.38.37-.99.27-2.62.91-3.73,1.44-1.95.96-2.83,1.84-2.83,2.83s.82,1.38,2.88,1.38c1.2,0,2.29-.11,3.76-.35.06-.02.18-.03.21-.03.13,0,.21.06.27.19.05.16.16,1.14.16,1.52,0,.22-.06.3-.27.37-.35.08-2.29.19-3.5.19-2.05,0-3.41-.27-4.26-.85-.72-.5-1.1-1.28-1.1-2.24,0-.74.21-1.39.64-2.03.56-.83,1.17-1.36,2.51-2.16-.34-.3-.46-.53-.61-1.02ZM157.42,35.08c.13-.1.21-.13.3-.13.22,0,1.62,1.47,1.62,1.71,0,.1-.13.24-.43.5-.32.27-.35.29-.43.29-.1,0-.11,0-.42-.45-.32-.45-.77-.96-1.1-1.25-.05-.05-.08-.1-.08-.14,0-.08.14-.22.54-.53ZM160.9,35.51c0,.1-.05.16-.24.32-.22.19-.53.4-.59.4-.1,0-.13-.05-.32-.3-.37-.53-.59-.78-1.17-1.31-.06-.06-.08-.1-.08-.14,0-.14.61-.61.8-.61.27,0,1.6,1.36,1.6,1.65Z"/>
        <path class="cls-3" d="M170.78,44.34c1.31,0,2.77-.19,4.21-.56.08-.03.13-.03.18-.03.1,0,.14.06.18.21.05.35.08.86.08,1.39,0,.32-.03.42-.18.48-.48.26-2.64.5-4.5.5-2.42,0-3.79-.4-4.9-1.44-.53-.5-1.06-1.36-1.06-1.71,0-.24.14-.34,1.46-1.09.58,1.58,1.9,2.26,4.53,2.26ZM170.93,35.14c.93,0,1.47-.03,2.56-.19h.11c.13,0,.18.05.21.14.03.19.06.67.06,1.25,0,.37-.03.5-.13.56-.13.08-1.52.18-2.59.18-1.42,0-2.61-.11-3.94-.37-.91-.18-.96-.22-.96-.78,0-.37.03-.98.08-1.42,1.39.43,2.91.64,4.59.64Z"/>
        <path class="cls-3" d="M182.38,37.7c-.42.1-.56.14-1.14.35-.21.08-.32.11-.42.11-.35,0-.67-.66-.96-2.03,1.02-.05,1.39-.1,3.17-.37,1.92-.29,4.35-.66,5.63-.82,1.44-.19,2.59-.38,3.2-.51.11-.03.16-.03.24-.03.21,0,.29.1.43.5.13.34.22.82.22,1.04,0,.19-.06.26-.29.26-.34,0-.64.03-.94.08-2.71.45-4.87,2.82-4.87,5.31,0,1.87,1.47,3.11,3.97,3.33.22.02.3.1.3.29,0,.4-.16,1.17-.3,1.52-.08.18-.21.26-.42.26s-.69-.1-1.19-.24c-2.72-.8-4.14-2.53-4.14-4.98,0-1.33.43-2.56,1.26-3.62.45-.58.83-.9,1.75-1.52-2.1.35-4.31.77-5.52,1.07ZM190.58,38.12c.22,0,1.58,1.52,1.58,1.76,0,.08-.1.18-.38.43-.3.26-.32.26-.45.3q-.08.03-.11.03c-.06,0-.08-.02-.37-.46-.26-.4-.53-.75-1.04-1.28-.03-.03-.08-.11-.08-.13.03-.08.05-.13.06-.13.05-.06.32-.29.38-.34.16-.08.26-.14.27-.16.02-.03.05-.03.05-.03h.08ZM193.31,39.22c-.24.18-.38.27-.46.27-.06,0-.1-.03-.18-.16-.48-.72-.72-1.02-1.23-1.52-.03-.05-.06-.1-.06-.13,0-.08.1-.18.32-.34.22-.16.42-.26.5-.26.11,0,.3.14.64.48.46.48.9,1.07.9,1.22,0,.1-.11.21-.42.43Z"/>
        <path class="cls-3" d="M199.12,44.92c-.64,0-1.12.02-1.65.06.05-.43.06-.96.06-1.81v-3.54c0-.75-.02-1.26-.06-1.73.48.03.82.05,1.6.05h7.8c.9,0,1.25-.02,1.7-.05-.05.5-.06.93-.06,1.74v3.57c0,.85.02,1.41.06,1.76-.5-.05-.98-.06-1.63-.06h-1.14c1.09.61,2.53.99,4.4,1.2-.35.46-.54.8-.83,1.5-1.38-.21-2.05-.38-3.03-.77-.93-.38-1.44-.64-2.26-1.18l.91-.75h-4.31l.96.75c-.75.56-1.23.83-2.1,1.18-.98.4-1.65.59-2.82.82-.19-.54-.43-.9-.93-1.41,1.97-.3,3.34-.75,4.21-1.34h-.9ZM209.43,36.18c0,.58.02.86.06,1.23-.38-.03-.77-.05-1.58-.05h-9.81c-.77,0-1.26.02-1.6.05.05-.38.06-.66.06-1.23v-1.2c0-.59-.02-.86-.06-1.3.43.05.86.06,1.73.06h9.54c.86,0,1.3-.02,1.73-.06-.05.42-.06.7-.06,1.3v1.2ZM200.27,35.06h-2.13v.99h2.13v-.99ZM199.2,39.91h7.63v-.67h-7.63v.67ZM199.2,41.74h7.63v-.66h-7.63v.66ZM199.2,43.62h7.63v-.72h-7.63v.72ZM203.95,35.06h-2.13v.99h2.13v-.99ZM207.79,36.05v-.99h-2.29v.99h2.29Z"/>
        <path class="cls-3" d="M218.69,41.67c.37-.11.64-.16.91-.16,1.1,0,1.62.66,1.83,2.31.11.94.16,1.12.38,1.31.19.19.5.26,1.06.26.75,0,1.12-.06,2.43-.42.05-.02.08-.02.11-.02.1,0,.14.03.21.14.11.26.24,1.1.24,1.57,0,.14-.03.21-.18.24-.43.11-1.95.24-2.88.24-1.39,0-2.13-.26-2.56-.91-.27-.43-.4-.91-.5-1.9-.11-1.23-.3-1.54-.94-1.54-.58,0-1.03.29-1.97,1.23-.91.91-1.7,1.87-2.23,2.71-.1.16-.21.26-.3.26-.11,0-.22-.1-.72-.62-.48-.53-.66-.74-.66-.83,0-.11.03-.14.32-.4q.38-.32,6.34-6.66c-2.58.46-4.21.8-4.59.94-.18.06-.24.08-.32.08-.14,0-.18-.05-.27-.37-.16-.53-.24-.94-.3-1.58.34.02.45.02.56.02.71,0,2.67-.19,4.45-.45,1.34-.18,1.55-.22,1.91-.4.1-.05.19-.08.26-.08.4,0,1.31,1.04,1.31,1.5,0,.19-.06.27-.27.38-.24.1-.58.32-.86.56-.16.13-.64.58-.86.78l-1.89,1.81ZM216.78,33.67c.06-.19.11-.27.19-.26s.13.02.16.03c.66.22,1.26.37,1.95.5.99.19,1.14.21,2.85.29.19.02.21.06.21.45,0,.48-.06,1.07-.14,1.2-.05.1-.11.14-.19.14s-1.81-.19-2.07-.22c-1.15-.18-2.16-.42-3.06-.74-.14-.06-.19-.11-.19-.22,0-.14.11-.62.29-1.17Z"/>
        <path class="cls-3" d="M237.47,38.93c2.26,0,3.86,1.54,3.86,3.71,0,1.49-.78,2.83-2.1,3.62-.91.54-2.03.82-3.3.82-2.03,0-3.22-.82-3.22-2.21,0-1.26,1.06-2.16,2.56-2.16,1.36,0,2.34.69,2.99,2.1.82-.59,1.15-1.22,1.15-2.08,0-1.38-.98-2.27-2.51-2.27s-3.25.78-4.64,2.18c-.26.26-.5.53-.79.9-.11.16-.19.22-.29.22-.29,0-1.43-1.12-1.43-1.41,0-.14.06-.22.42-.48.37-.29.9-.75,1.57-1.39,1.55-1.47,2.69-2.71,4.37-4.75-2,.26-3.35.48-3.84.66-.08.02-.13.03-.18.03-.13,0-.21-.08-.3-.32-.19-.48-.29-1.01-.34-1.71.43.06.74.08,1.09.08.77,0,2.07-.11,3.75-.3.59-.06.78-.11,1.23-.29.14-.06.22-.08.32-.08.22,0,.45.19.86.83.3.42.4.62.4.75,0,.21-.05.27-.4.5-.29.18-.46.32-.83.67-.8.77-.82.77-1.81,1.78-.7.72-.78.8-1.42,1.44,1.04-.58,1.86-.82,2.82-.82ZM235.94,44.47c-.24-.16-.51-.24-.82-.24-.5,0-.82.24-.82.62,0,.46.5.75,1.26.75.35,0,.66-.03,1.06-.14-.19-.53-.35-.77-.69-.99Z"/>
        <path class="cls-3" d="M251.41,43.58c-.77,1.33-1.82,2.06-2.91,2.06-1.67,0-2.85-1.63-2.85-3.91,0-2.53,1.28-4.71,3.47-5.86,1.07-.58,2.22-.83,3.75-.83,3.35,0,5.83,2.37,5.83,5.54,0,2.8-1.38,4.82-4.03,5.95-.53.22-.95.35-1.15.35-.19,0-.27-.06-.48-.37-.27-.42-.58-.72-1.01-1.01,3.3-.85,4.79-2.4,4.79-4.99,0-1.33-.56-2.45-1.55-3.15-.56-.38-1.01-.54-1.89-.69-.45,3.38-.98,5.22-1.95,6.9ZM249.1,37.91c-1.07.94-1.68,2.29-1.68,3.79,0,1.23.4,1.95,1.07,1.95.8,0,1.62-1.1,2.23-3.01.38-1.2.58-2.11.82-3.89-1.14.24-1.7.51-2.43,1.15Z"/>
        <path class="cls-3" d="M264.53,36.5c.37-.96.72-1.47,1.33-1.98.74-.61,1.62-.9,2.74-.9,2.4,0,3.94,1.31,3.94,3.36,0,.69-.19,1.34-.56,1.87-.29.42-.42.54-1.31,1.36-1.25,1.12-1.52,1.55-1.52,2.4v.85h-1.63v-.9c0-.72.14-1.36.43-1.87.22-.4.46-.67,1.1-1.31.67-.66.88-.9,1.06-1.18.22-.32.35-.77.35-1.2,0-1.07-.72-1.74-1.86-1.74s-1.81.59-2.29,1.98l-1.78-.74ZM269.63,45.83c0,.7-.56,1.26-1.26,1.26s-1.27-.56-1.27-1.26.56-1.26,1.27-1.26,1.26.56,1.26,1.26Z"/>
      </g>
      <g>
        <g>
          <path class="cls-3" d="M43.05,35.58c.02-1.97.63-3.49,1.83-4.55,1.13-1.05,2.47-1.58,4.03-1.58s2.98.53,4.1,1.58c1.15,1.06,1.74,2.58,1.77,4.56v9.42c-.04,1.96-.63,3.48-1.77,4.54-1.13,1.05-2.5,1.59-4.1,1.61-1.56-.02-2.91-.56-4.03-1.61-1.2-1.06-1.81-2.57-1.83-4.53v-9.44ZM51.84,35.77c-.06-2.14-1.03-3.23-2.92-3.27-1.9.04-2.87,1.13-2.91,3.27v9.07c.04,2.16,1.01,3.25,2.91,3.27,1.89-.02,2.87-1.11,2.92-3.27v-9.07Z"/>
          <path class="cls-3" d="M57.43,48.12l8.09-10.45c.31-.42.53-.81.64-1.17.08-.34.11-.67.11-.97,0-.8-.24-1.5-.73-2.1-.5-.6-1.21-.9-2.13-.92-.82,0-1.49.27-2.04.81-.56.54-.89,1.3-1,2.28h-2.96c.08-1.77.65-3.24,1.73-4.4,1.09-1.13,2.43-1.71,4.02-1.73,1.78.02,3.22.61,4.33,1.76,1.13,1.14,1.7,2.6,1.72,4.35,0,1.41-.42,2.66-1.25,3.75l-6.66,8.62h7.91v3.05h-11.8v-2.87Z"/>
        </g>
        <path class="cls-3" d="M33.72,42.84c-.76.79-1.8,1.41-3.01,1.81-.17-.32-.31-.52-.56-.82,1.2-.29,2.21-.79,2.94-1.47h-1.5c-.05.18-.06.22-.13.43l-1.01-.02c.24-.56.38-1.02.49-1.58.08-.39.14-.77.14-.95.17.02.4.03.82.03h1.78l-.02-.58h-1.93c-.34,0-.56,0-.8.04v-.83c-.1.08-.13.12-.26.23-.17-.29-.35-.5-.56-.69.74-.57,1.16-1.12,1.35-1.76l.93.17c-.11.23-.14.29-.25.47h1.11c.41,0,.64-.02.85-.04v.7c.34-.4.55-.78.7-1.3l.92.16q-.07.17-.22.49h1.65c.46,0,.67,0,.95-.05v.9c-.26-.04-.52-.05-.9-.05h-.68c.23.33.23.35.38.59l-.71.2h.41c.43,0,.59,0,.81-.03-.03.16-.04.3-.04.61v.91c0,.31,0,.45.04.63-.2-.02-.47-.03-.81-.03h-1.99v.57h2.47c.33,0,.52,0,.74-.03-.02.11-.02.17-.03.26t-.03.26s-.02.22-.05.55c-.09.86-.14,1.07-.31,1.27-.17.2-.43.26-1.02.26-.25,0-.43,0-.8-.03-.05-.36-.11-.56-.22-.85.33.04.74.08.95.08.47,0,.49-.05.55-1.01h-2.22l.02,1.45c0,.46.02.68.06.95h-1.02c.04-.25.05-.4.05-.75v-.22l-.02-.96ZM32.48,38.94c-.11-.29-.22-.5-.39-.8h-.48c-.21.29-.4.5-.68.77.21.03.38.04.79.04h.75ZM33.69,41.04h-1.77c-.03.19-.04.21-.12.57h1.9v-.57ZM34.18,38.94c-.13-.16-.31-.33-.56-.51.15-.12.2-.15.32-.27-.15,0-.32-.02-.49-.02h-.48c.11.17.17.26.34.58l-.71.22h1.58ZM36.01,38.94c-.1-.22-.26-.51-.44-.79h-.53c-.23.33-.42.55-.69.79h1.67ZM34.59,40.28h1.87v-.58h-1.88v.58Z"/>
        <path class="cls-3" d="M80.29,44.74v-.47h-5.38v.47h-1.01c.04-.28.05-.64.05-1.12v-5.46c0-.42-.02-.69-.05-1.04.32.04.59.05,1.02.05h5.36c.42,0,.7,0,1.02-.05-.04.32-.04.6-.04,1.04v5.47c0,.47.02.89.04,1.11h-1ZM74.91,43.42h5.38v-5.39h-5.38v5.39ZM78.51,39.01c.38,0,.6,0,.83-.03-.02.21-.03.41-.03.68v2.06c0,.29,0,.47.03.68-.26-.02-.47-.03-.83-.03h-1.85c-.43,0-.57,0-.84.03.03-.23.04-.42.04-.68v-2.06c0-.25,0-.45-.04-.68.22.02.46.03.84.03h1.85ZM76.77,41.58h1.63v-1.76h-1.63v1.76Z"/>
      </g>
      <rect class="cls-2" x="95.06" y="32.52" width="1.42" height="15.06"/>
    </g>
  </g>
</svg>